<mxfile host="app.diagrams.net" agent="Mozilla/5.0 (X11; Linux x86_64; rv:133.0) Gecko/20100101 Firefox/133.0" version="25.0.3">
  <diagram name="Page-1" id="mz1Ur3lC-kKvIxkAm4-n">
    <mxGraphModel dx="2614" dy="2144" grid="1" gridSize="10" guides="1" tooltips="1" connect="1" arrows="1" fold="1" page="1" pageScale="1" pageWidth="850" pageHeight="1100" math="0" shadow="0">
      <root>
        <mxCell id="0" />
        <mxCell id="1" parent="0" />
        <mxCell id="k0TNPrw3BuTJVG0LLQwn-31" value="" style="rounded=0;whiteSpace=wrap;html=1;fillColor=none;strokeColor=#000000;dashed=1;dashPattern=1 1;strokeWidth=4;" parent="1" vertex="1">
          <mxGeometry x="-330" width="670" height="280" as="geometry" />
        </mxCell>
        <mxCell id="eL6V0xW0Z7W9l1deCJd3-5" style="edgeStyle=orthogonalEdgeStyle;rounded=0;orthogonalLoop=1;jettySize=auto;html=1;exitX=1;exitY=1;exitDx=0;exitDy=0;" parent="1" source="n7QWhcrF3B2wRNdfnVHo-2" target="eL6V0xW0Z7W9l1deCJd3-4" edge="1">
          <mxGeometry relative="1" as="geometry" />
        </mxCell>
        <mxCell id="n7QWhcrF3B2wRNdfnVHo-2" value="" style="rounded=0;whiteSpace=wrap;html=1;rotation=0;fillColor=#bac8d3;strokeColor=#23445d;" parent="1" vertex="1">
          <mxGeometry x="20" y="10" width="310" height="250" as="geometry" />
        </mxCell>
        <mxCell id="n7QWhcrF3B2wRNdfnVHo-3" value="" style="rounded=0;whiteSpace=wrap;html=1;" parent="1" vertex="1">
          <mxGeometry x="30" y="20" width="20" height="190" as="geometry" />
        </mxCell>
        <mxCell id="n7QWhcrF3B2wRNdfnVHo-4" value="" style="rounded=0;whiteSpace=wrap;html=1;" parent="1" vertex="1">
          <mxGeometry x="60" y="20" width="20" height="190" as="geometry" />
        </mxCell>
        <mxCell id="n7QWhcrF3B2wRNdfnVHo-5" value="" style="rounded=0;whiteSpace=wrap;html=1;" parent="1" vertex="1">
          <mxGeometry x="90" y="20" width="20" height="190" as="geometry" />
        </mxCell>
        <mxCell id="n7QWhcrF3B2wRNdfnVHo-6" value="" style="rounded=0;whiteSpace=wrap;html=1;" parent="1" vertex="1">
          <mxGeometry x="150" y="20" width="20" height="190" as="geometry" />
        </mxCell>
        <mxCell id="n7QWhcrF3B2wRNdfnVHo-7" value="" style="rounded=0;whiteSpace=wrap;html=1;" parent="1" vertex="1">
          <mxGeometry x="120" y="20" width="20" height="190" as="geometry" />
        </mxCell>
        <mxCell id="n7QWhcrF3B2wRNdfnVHo-8" value="" style="rounded=0;whiteSpace=wrap;html=1;" parent="1" vertex="1">
          <mxGeometry x="180" y="20" width="20" height="190" as="geometry" />
        </mxCell>
        <mxCell id="n7QWhcrF3B2wRNdfnVHo-9" value="" style="rounded=0;whiteSpace=wrap;html=1;" parent="1" vertex="1">
          <mxGeometry x="210" y="20" width="20" height="190" as="geometry" />
        </mxCell>
        <mxCell id="n7QWhcrF3B2wRNdfnVHo-10" value="" style="rounded=0;whiteSpace=wrap;html=1;" parent="1" vertex="1">
          <mxGeometry x="240" y="20" width="20" height="190" as="geometry" />
        </mxCell>
        <mxCell id="n7QWhcrF3B2wRNdfnVHo-11" value="" style="rounded=0;whiteSpace=wrap;html=1;" parent="1" vertex="1">
          <mxGeometry x="270" y="20" width="20" height="190" as="geometry" />
        </mxCell>
        <mxCell id="n7QWhcrF3B2wRNdfnVHo-13" value="" style="rounded=0;whiteSpace=wrap;html=1;" parent="1" vertex="1">
          <mxGeometry x="300" y="20" width="20" height="190" as="geometry" />
        </mxCell>
        <mxCell id="n7QWhcrF3B2wRNdfnVHo-14" value="&lt;b&gt;此处显示当前算子&lt;/b&gt;" style="text;html=1;align=center;verticalAlign=middle;whiteSpace=wrap;rounded=0;" parent="1" vertex="1">
          <mxGeometry x="55" y="230" width="130" height="30" as="geometry" />
        </mxCell>
        <mxCell id="n7QWhcrF3B2wRNdfnVHo-15" value="数&lt;br&gt;据&lt;br&gt;1" style="text;html=1;align=center;verticalAlign=middle;whiteSpace=wrap;rounded=0;rotation=0;" parent="1" vertex="1">
          <mxGeometry x="10" y="90" width="60" height="30" as="geometry" />
        </mxCell>
        <mxCell id="n7QWhcrF3B2wRNdfnVHo-16" value="数&lt;br&gt;据&lt;br&gt;2" style="text;html=1;align=center;verticalAlign=middle;whiteSpace=wrap;rounded=0;rotation=0;" parent="1" vertex="1">
          <mxGeometry x="40" y="90" width="60" height="30" as="geometry" />
        </mxCell>
        <mxCell id="n7QWhcrF3B2wRNdfnVHo-17" value="数&lt;br&gt;据&lt;br&gt;3" style="text;html=1;align=center;verticalAlign=middle;whiteSpace=wrap;rounded=0;rotation=0;" parent="1" vertex="1">
          <mxGeometry x="70" y="90" width="60" height="30" as="geometry" />
        </mxCell>
        <mxCell id="n7QWhcrF3B2wRNdfnVHo-18" value="数&lt;br&gt;据&lt;br&gt;4" style="text;html=1;align=center;verticalAlign=middle;whiteSpace=wrap;rounded=0;rotation=0;" parent="1" vertex="1">
          <mxGeometry x="100" y="90" width="60" height="30" as="geometry" />
        </mxCell>
        <mxCell id="n7QWhcrF3B2wRNdfnVHo-19" value="数&lt;br&gt;据&lt;br&gt;5" style="text;html=1;align=center;verticalAlign=middle;whiteSpace=wrap;rounded=0;rotation=0;" parent="1" vertex="1">
          <mxGeometry x="130" y="90" width="60" height="30" as="geometry" />
        </mxCell>
        <mxCell id="n7QWhcrF3B2wRNdfnVHo-20" value="数&lt;br&gt;据&lt;br&gt;6" style="text;html=1;align=center;verticalAlign=middle;whiteSpace=wrap;rounded=0;rotation=0;" parent="1" vertex="1">
          <mxGeometry x="160" y="90" width="60" height="30" as="geometry" />
        </mxCell>
        <mxCell id="n7QWhcrF3B2wRNdfnVHo-21" value="数&lt;br&gt;据&lt;br&gt;7" style="text;html=1;align=center;verticalAlign=middle;whiteSpace=wrap;rounded=0;rotation=0;" parent="1" vertex="1">
          <mxGeometry x="190" y="90" width="60" height="30" as="geometry" />
        </mxCell>
        <mxCell id="n7QWhcrF3B2wRNdfnVHo-22" value="数&lt;br&gt;据&lt;br&gt;8" style="text;html=1;align=center;verticalAlign=middle;whiteSpace=wrap;rounded=0;rotation=0;" parent="1" vertex="1">
          <mxGeometry x="220" y="90" width="60" height="30" as="geometry" />
        </mxCell>
        <mxCell id="n7QWhcrF3B2wRNdfnVHo-23" value="数&lt;br&gt;据&lt;br&gt;9" style="text;html=1;align=center;verticalAlign=middle;whiteSpace=wrap;rounded=0;rotation=0;" parent="1" vertex="1">
          <mxGeometry x="250" y="90" width="60" height="30" as="geometry" />
        </mxCell>
        <mxCell id="n7QWhcrF3B2wRNdfnVHo-25" value="..." style="text;html=1;align=center;verticalAlign=middle;whiteSpace=wrap;rounded=0;rotation=0;" parent="1" vertex="1">
          <mxGeometry x="280" y="90" width="60" height="30" as="geometry" />
        </mxCell>
        <mxCell id="eL6V0xW0Z7W9l1deCJd3-6" style="edgeStyle=orthogonalEdgeStyle;rounded=0;orthogonalLoop=1;jettySize=auto;html=1;exitX=0;exitY=0.5;exitDx=0;exitDy=0;entryX=1;entryY=0.5;entryDx=0;entryDy=0;" parent="1" source="n7QWhcrF3B2wRNdfnVHo-26" target="n7QWhcrF3B2wRNdfnVHo-2" edge="1">
          <mxGeometry relative="1" as="geometry" />
        </mxCell>
        <mxCell id="n7QWhcrF3B2wRNdfnVHo-26" value="编译器" style="ellipse;whiteSpace=wrap;html=1;fillColor=#647687;fontColor=#ffffff;strokeColor=#314354;" parent="1" vertex="1">
          <mxGeometry x="410" y="95" width="120" height="80" as="geometry" />
        </mxCell>
        <mxCell id="eL6V0xW0Z7W9l1deCJd3-2" style="edgeStyle=orthogonalEdgeStyle;rounded=0;orthogonalLoop=1;jettySize=auto;html=1;exitX=1;exitY=0.5;exitDx=0;exitDy=0;entryX=0;entryY=0.5;entryDx=0;entryDy=0;" parent="1" source="n7QWhcrF3B2wRNdfnVHo-28" target="bcigPeDxtLIJx2mJaEiS-1" edge="1">
          <mxGeometry relative="1" as="geometry">
            <mxPoint x="630" y="67.5" as="targetPoint" />
          </mxGeometry>
        </mxCell>
        <mxCell id="n7QWhcrF3B2wRNdfnVHo-28" value="晶圆信息/编译信息/代码" style="rounded=0;whiteSpace=wrap;html=1;fillColor=#647687;fontColor=#ffffff;strokeColor=#314354;" parent="1" vertex="1">
          <mxGeometry x="430" y="10" width="80" height="60" as="geometry" />
        </mxCell>
        <mxCell id="n7QWhcrF3B2wRNdfnVHo-29" value="" style="endArrow=classic;html=1;rounded=0;exitX=0.5;exitY=1;exitDx=0;exitDy=0;entryX=0.5;entryY=0;entryDx=0;entryDy=0;" parent="1" source="n7QWhcrF3B2wRNdfnVHo-28" target="n7QWhcrF3B2wRNdfnVHo-26" edge="1">
          <mxGeometry width="50" height="50" relative="1" as="geometry">
            <mxPoint x="205" y="380" as="sourcePoint" />
            <mxPoint x="255" y="330" as="targetPoint" />
          </mxGeometry>
        </mxCell>
        <mxCell id="n7QWhcrF3B2wRNdfnVHo-52" style="edgeStyle=orthogonalEdgeStyle;rounded=0;orthogonalLoop=1;jettySize=auto;html=1;entryX=1;entryY=0.5;entryDx=0;entryDy=0;" parent="1" source="n7QWhcrF3B2wRNdfnVHo-39" target="n7QWhcrF3B2wRNdfnVHo-51" edge="1">
          <mxGeometry relative="1" as="geometry" />
        </mxCell>
        <mxCell id="n7QWhcrF3B2wRNdfnVHo-39" value="" style="rounded=0;whiteSpace=wrap;html=1;fillColor=#647687;strokeColor=#314354;fontColor=#ffffff;" parent="1" vertex="1">
          <mxGeometry x="530" y="362.5" width="230" height="195" as="geometry" />
        </mxCell>
        <mxCell id="n7QWhcrF3B2wRNdfnVHo-40" value="" style="endArrow=classic;html=1;rounded=0;entryX=0.5;entryY=0;entryDx=0;entryDy=0;exitX=1;exitY=0.5;exitDx=0;exitDy=0;" parent="1" source="n7QWhcrF3B2wRNdfnVHo-26" target="n7QWhcrF3B2wRNdfnVHo-39" edge="1">
          <mxGeometry width="50" height="50" relative="1" as="geometry">
            <mxPoint x="530" y="135" as="sourcePoint" />
            <mxPoint x="265" y="330" as="targetPoint" />
            <Array as="points">
              <mxPoint x="660" y="240" />
            </Array>
          </mxGeometry>
        </mxCell>
        <mxCell id="n7QWhcrF3B2wRNdfnVHo-41" value="&lt;font color=&quot;#ffffff&quot;&gt;可执行文件&lt;/font&gt;" style="text;html=1;align=center;verticalAlign=middle;whiteSpace=wrap;rounded=0;" parent="1" vertex="1">
          <mxGeometry x="605" y="370" width="65" height="30" as="geometry" />
        </mxCell>
        <mxCell id="n7QWhcrF3B2wRNdfnVHo-44" value="CPU 主控程序" style="rounded=0;whiteSpace=wrap;html=1;" parent="1" vertex="1">
          <mxGeometry x="540" y="400" width="130" height="150" as="geometry" />
        </mxCell>
        <mxCell id="n7QWhcrF3B2wRNdfnVHo-45" value="GPU PTX&lt;br&gt;文件" style="rounded=0;whiteSpace=wrap;html=1;" parent="1" vertex="1">
          <mxGeometry x="680" y="400" width="70" height="150" as="geometry" />
        </mxCell>
        <mxCell id="eL6V0xW0Z7W9l1deCJd3-10" style="edgeStyle=orthogonalEdgeStyle;rounded=0;orthogonalLoop=1;jettySize=auto;html=1;exitX=0.5;exitY=1;exitDx=0;exitDy=0;" parent="1" source="n7QWhcrF3B2wRNdfnVHo-46" target="eL6V0xW0Z7W9l1deCJd3-9" edge="1">
          <mxGeometry relative="1" as="geometry" />
        </mxCell>
        <mxCell id="n7QWhcrF3B2wRNdfnVHo-46" value="" style="rounded=0;whiteSpace=wrap;html=1;fillColor=#bac8d3;strokeColor=#23445d;" parent="1" vertex="1">
          <mxGeometry x="20" y="340" width="300" height="263.75" as="geometry" />
        </mxCell>
        <mxCell id="n7QWhcrF3B2wRNdfnVHo-47" value="核组1" style="rounded=0;whiteSpace=wrap;html=1;fillColor=#d5e8d4;gradientColor=#97d077;strokeColor=#82b366;" parent="1" vertex="1">
          <mxGeometry x="35" y="362.5" width="120" height="100" as="geometry" />
        </mxCell>
        <mxCell id="n7QWhcrF3B2wRNdfnVHo-48" value="核组3" style="rounded=0;whiteSpace=wrap;html=1;fillColor=#dae8fc;gradientColor=#7ea6e0;strokeColor=#6c8ebf;" parent="1" vertex="1">
          <mxGeometry x="185" y="362.5" width="120" height="100" as="geometry" />
        </mxCell>
        <mxCell id="n7QWhcrF3B2wRNdfnVHo-49" value="核组2" style="rounded=0;whiteSpace=wrap;html=1;fillColor=#f8cecc;gradientColor=#ea6b66;strokeColor=#b85450;" parent="1" vertex="1">
          <mxGeometry x="35" y="490" width="120" height="100" as="geometry" />
        </mxCell>
        <mxCell id="n7QWhcrF3B2wRNdfnVHo-50" value="核组4" style="rounded=0;whiteSpace=wrap;html=1;fillColor=#e6d0de;gradientColor=#d5739d;strokeColor=#996185;" parent="1" vertex="1">
          <mxGeometry x="185" y="490" width="120" height="100" as="geometry" />
        </mxCell>
        <mxCell id="n7QWhcrF3B2wRNdfnVHo-53" style="edgeStyle=orthogonalEdgeStyle;rounded=0;orthogonalLoop=1;jettySize=auto;html=1;exitX=0;exitY=0.5;exitDx=0;exitDy=0;entryX=1;entryY=0.5;entryDx=0;entryDy=0;" parent="1" source="n7QWhcrF3B2wRNdfnVHo-51" target="n7QWhcrF3B2wRNdfnVHo-46" edge="1">
          <mxGeometry relative="1" as="geometry" />
        </mxCell>
        <mxCell id="n7QWhcrF3B2wRNdfnVHo-51" value="加载程序" style="ellipse;whiteSpace=wrap;html=1;fillColor=#647687;fontColor=#ffffff;strokeColor=#314354;" parent="1" vertex="1">
          <mxGeometry x="370" y="420" width="110" height="80" as="geometry" />
        </mxCell>
        <mxCell id="n7QWhcrF3B2wRNdfnVHo-60" style="edgeStyle=orthogonalEdgeStyle;rounded=0;orthogonalLoop=1;jettySize=auto;html=1;exitX=0.5;exitY=1;exitDx=0;exitDy=0;strokeColor=#99FF99;strokeWidth=4;" parent="1" source="n7QWhcrF3B2wRNdfnVHo-56" target="n7QWhcrF3B2wRNdfnVHo-47" edge="1">
          <mxGeometry relative="1" as="geometry" />
        </mxCell>
        <mxCell id="n7QWhcrF3B2wRNdfnVHo-56" value="" style="rounded=0;whiteSpace=wrap;html=1;fillColor=none;strokeColor=#99FF99;strokeWidth=3;" parent="1" vertex="1">
          <mxGeometry x="24" y="15" width="91" height="205" as="geometry" />
        </mxCell>
        <mxCell id="n7QWhcrF3B2wRNdfnVHo-61" style="edgeStyle=orthogonalEdgeStyle;rounded=0;orthogonalLoop=1;jettySize=auto;html=1;exitX=0.5;exitY=1;exitDx=0;exitDy=0;entryX=0.5;entryY=0;entryDx=0;entryDy=0;strokeColor=#FF9999;strokeWidth=3;" parent="1" source="n7QWhcrF3B2wRNdfnVHo-57" target="n7QWhcrF3B2wRNdfnVHo-49" edge="1">
          <mxGeometry relative="1" as="geometry">
            <Array as="points">
              <mxPoint x="170" y="220" />
              <mxPoint x="170" y="480" />
              <mxPoint x="95" y="480" />
            </Array>
          </mxGeometry>
        </mxCell>
        <mxCell id="n7QWhcrF3B2wRNdfnVHo-57" value="" style="rounded=0;whiteSpace=wrap;html=1;fillColor=none;strokeColor=#FF9999;strokeWidth=3;" parent="1" vertex="1">
          <mxGeometry x="115" y="15" width="91" height="205" as="geometry" />
        </mxCell>
        <mxCell id="n7QWhcrF3B2wRNdfnVHo-62" style="edgeStyle=orthogonalEdgeStyle;rounded=0;orthogonalLoop=1;jettySize=auto;html=1;exitX=0.5;exitY=1;exitDx=0;exitDy=0;entryX=0.5;entryY=0;entryDx=0;entryDy=0;strokeColor=#99FFFF;strokeWidth=3;" parent="1" source="n7QWhcrF3B2wRNdfnVHo-58" target="n7QWhcrF3B2wRNdfnVHo-48" edge="1">
          <mxGeometry relative="1" as="geometry" />
        </mxCell>
        <mxCell id="n7QWhcrF3B2wRNdfnVHo-58" value="" style="rounded=0;whiteSpace=wrap;html=1;fillColor=none;strokeColor=#99FFFF;strokeWidth=3;" parent="1" vertex="1">
          <mxGeometry x="206" y="15" width="91" height="205" as="geometry" />
        </mxCell>
        <mxCell id="n7QWhcrF3B2wRNdfnVHo-63" style="edgeStyle=orthogonalEdgeStyle;rounded=0;orthogonalLoop=1;jettySize=auto;html=1;exitX=0.5;exitY=1;exitDx=0;exitDy=0;entryX=0.5;entryY=0;entryDx=0;entryDy=0;strokeColor=#CC99FF;strokeWidth=3;" parent="1" source="n7QWhcrF3B2wRNdfnVHo-59" target="n7QWhcrF3B2wRNdfnVHo-50" edge="1">
          <mxGeometry relative="1" as="geometry">
            <Array as="points">
              <mxPoint x="312" y="480" />
              <mxPoint x="245" y="480" />
            </Array>
          </mxGeometry>
        </mxCell>
        <mxCell id="n7QWhcrF3B2wRNdfnVHo-59" value="" style="rounded=0;whiteSpace=wrap;html=1;fillColor=none;strokeColor=#A680B8;strokeWidth=3;" parent="1" vertex="1">
          <mxGeometry x="297" y="15" width="29" height="205" as="geometry" />
        </mxCell>
        <mxCell id="eL6V0xW0Z7W9l1deCJd3-7" style="edgeStyle=orthogonalEdgeStyle;rounded=0;orthogonalLoop=1;jettySize=auto;html=1;exitX=0.5;exitY=0;exitDx=0;exitDy=0;entryX=0.5;entryY=1;entryDx=0;entryDy=0;" parent="1" source="eL6V0xW0Z7W9l1deCJd3-4" target="n7QWhcrF3B2wRNdfnVHo-26" edge="1">
          <mxGeometry relative="1" as="geometry" />
        </mxCell>
        <mxCell id="eL6V0xW0Z7W9l1deCJd3-4" value="编译器尝试解析数据和算子之后，提供当前的划分，这里的输入显示根据提供的信息显示当前的算子选择和数据划分的组别。（最好能显示所有算子，然后高亮当前选中的算子）" style="rounded=0;whiteSpace=wrap;html=1;" parent="1" vertex="1">
          <mxGeometry x="360" y="240" width="200" height="100" as="geometry" />
        </mxCell>
        <mxCell id="eL6V0xW0Z7W9l1deCJd3-8" value="编译器之后提供更多编译输出，可以在生成可执行文件的过程中输出当前编译的更多进程状态。" style="rounded=0;whiteSpace=wrap;html=1;" parent="1" vertex="1">
          <mxGeometry x="660" y="182.5" width="160" height="125" as="geometry" />
        </mxCell>
        <mxCell id="eL6V0xW0Z7W9l1deCJd3-9" value="此处也根据课题三信息显示当前晶圆状态，并根据编译器提供的划分信息，将上面的数据组表示和下面的核组表示相连" style="rounded=0;whiteSpace=wrap;html=1;" parent="1" vertex="1">
          <mxGeometry x="290" y="630" width="200" height="100" as="geometry" />
        </mxCell>
        <mxCell id="bcigPeDxtLIJx2mJaEiS-1" value="由用户和其他课题提供的文件" style="rounded=0;whiteSpace=wrap;html=1;" parent="1" vertex="1">
          <mxGeometry x="585" y="30" width="120" height="60" as="geometry" />
        </mxCell>
        <mxCell id="k0TNPrw3BuTJVG0LLQwn-26" value="" style="rounded=0;whiteSpace=wrap;html=1;rotation=0;fillColor=#bac8d3;strokeColor=#23445d;" parent="1" vertex="1">
          <mxGeometry x="-320" y="10" width="310" height="250" as="geometry" />
        </mxCell>
        <mxCell id="k0TNPrw3BuTJVG0LLQwn-27" value="算子图" style="rounded=0;whiteSpace=wrap;html=1;strokeColor=#CCFFCC;strokeWidth=4;" parent="1" vertex="1">
          <mxGeometry x="-310" y="20" width="290" height="190" as="geometry" />
        </mxCell>
        <mxCell id="k0TNPrw3BuTJVG0LLQwn-30" value="&lt;b&gt;显示当前计算图名称&lt;/b&gt;" style="text;html=1;align=center;verticalAlign=middle;whiteSpace=wrap;rounded=0;" parent="1" vertex="1">
          <mxGeometry x="-227.5" y="220" width="125" height="30" as="geometry" />
        </mxCell>
        <mxCell id="k0TNPrw3BuTJVG0LLQwn-32" style="edgeStyle=orthogonalEdgeStyle;rounded=0;orthogonalLoop=1;jettySize=auto;html=1;exitX=0.25;exitY=1;exitDx=0;exitDy=0;entryX=0.5;entryY=0;entryDx=0;entryDy=0;" parent="1" source="k0TNPrw3BuTJVG0LLQwn-31" target="k0TNPrw3BuTJVG0LLQwn-34" edge="1">
          <mxGeometry relative="1" as="geometry">
            <mxPoint x="-250" y="370" as="targetPoint" />
          </mxGeometry>
        </mxCell>
        <mxCell id="k0TNPrw3BuTJVG0LLQwn-33" value="" style="endArrow=none;dashed=1;html=1;rounded=0;entryX=0.5;entryY=0;entryDx=0;entryDy=0;exitX=0.5;exitY=1;exitDx=0;exitDy=0;strokeWidth=3;" parent="1" source="k0TNPrw3BuTJVG0LLQwn-31" target="k0TNPrw3BuTJVG0LLQwn-31" edge="1">
          <mxGeometry width="50" height="50" relative="1" as="geometry">
            <mxPoint x="130" y="350" as="sourcePoint" />
            <mxPoint x="180" y="300" as="targetPoint" />
          </mxGeometry>
        </mxCell>
        <mxCell id="k0TNPrw3BuTJVG0LLQwn-34" value="输入的表示分密码学和神经网络两种，映射的方式上基本一致" style="rounded=0;whiteSpace=wrap;html=1;" parent="1" vertex="1">
          <mxGeometry x="-330" y="360" width="250" height="150" as="geometry" />
        </mxCell>
        <mxCell id="gFD01sq41hae8kPbe2xm-1" value="" style="shape=image;verticalLabelPosition=bottom;labelBackgroundColor=default;verticalAlign=top;aspect=fixed;imageAspect=0;image=data:image/png,iVBORw0KGgoAAAANSUhEUgAAAzgAAAUbCAYAAADiZAUgAAAABmJLR0QA/wD/AP+gvaeTAAAgAElEQVR4nOzdeVxU9eL/8fcIiIi4gagFKFbmGlgGeFVwyco991AztTL9dcv2upU3u9Uty/R77+3bYl5LLbfKVNJSc0EtRVARxV0UNEMEERFBtvP7Y76MmlouzJxheD0fDx4Dc4bzecPHqXlzPueMxTAMQwAAAADgAqqYHQAAAAAAygsFBwAAAIDLoOAAAAAAcBnuZge4VoZhKCsrS5mZmcrLy9OpU6dkGIaKiop05swZSZKnp6eqV68uSfLx8ZG3t7d8fX3l5+cnDw8PM+PjCs6cOaPMzExlZWUpLy9PhYWFkqTs7GxJUpUqVVSrVi1JUrVq1Wxz6uvrK29vb9Ny49rl5eXp5MmTOnnypPLz823P2+LiYuXm5toeV7t2bVksFtvn1apVU506dVS3bl15eXmZkh0AADg/pys4paWlOnDggHbt2qWUlBQdOnTI9nHixAllZmbqRq6LULNmTdWvX1+BgYFq0qSJgoODFRwcrKZNm6pVq1by9PQsx58GZTIyMpSUlKSDBw/a5jMlJUXHjh1TVlaWzp07d9379vLykq+vr26++eaL5vSWW25RSEiI6tatW44/Cf5IVlaWdu3apcOHDystLU1HjhzRkSNHlJqaqqysLJ08edJWXm9EWdmpV6+egoKCFBQUpMDAQNvzunnz5qpdu3Y5/EQAAKCisZh9FbUDBw5o/fr1SkhIUGJiopKSkmx/0W3YsKHtBWuTJk3k7+8vPz8/+fv7y9fXVz4+PrYXMR4eHqpRo4YkqaCgQPn5+ZKsfy3Ozc21HR04ceKEjh8/rtTUVNuL7CNHjqi4uFgeHh5q3ry5QkND1aZNG3Xs2FGhoaFyc3Mz55dTQWVnZ2vDhg3atGmTEhMTlZiYqGPHjkmyFsyy+QwODlZAQID8/Pzk5+dnO8rm4+Mjd3dr9y77K35paalycnIkSYWFhcrNzbUdySu7TUtLs83poUOHlJeXJ0kKCgpSaGioQkND1a5dO7Vv314+Pj7m/HJcRElJiXbu3Km4uDglJSVp9+7d2rlzpzIyMiRZj6IGBAQoMDBQQUFBatSokfz8/FS3bl3bUZg6derIy8tLNWvWlCRZLJaLSknZ0VlJys3NVV5enrKzs21Hf7Kzs5WRkaG0tDSlpqbqyJEj+vXXX1VUVCRJuvnmm9WiRQu1aNFCd9xxh8LDw9W8eXNVqcLKXAAAXJnDC056erpiYmK0Zs0axcbG6tixY/Ly8lKbNm1sL0JDQ0PVsmVL2zIzeysuLtb+/fttL8a3bdumrVu3KisrSzVr1lTHjh0VFRWlXr16qXnz5g7JVJEUFBTop59+0sqVKxUbG6sdO3bIMAw1a9ZMbdq0UUhIiO3W39/fYbmOHTum7du3XzSv+/fvl7u7u+68805FRkbqvvvuU1RUFEsX/8TZs2e1du1axcbGKi4uTgkJCcrLy1ONGjXUunVrtWzZUi1atFDLli3VvHlzBQYGmpKztLRUaWlptsK1a9cuJScna+fOncrPz1fNmjUVFhamiIgIderUSR06dOCoLQAALsYhBefgwYP69ttvtWjRIsXFxalatWrq2LGjIiMjFRkZqbCwMFWtWtXeMa6JYRhKTk5WbGys1q1bp7Vr1yojI0NNmzbVAw88oH79+ikiIsLsmKY5ffq0YmJitGjRIv3444/Ky8tTaGiooqKiFBUVpQ4dOsjPz8/smJdIT0/XunXrbHOanJysOnXqqEePHnrggQfUs2dPzu/4Pzt37tSyZcu0YsUKbdiwQYWFhWrRooXCw8MVERGh8PBwtWzZskIc4SwqKlJSUpLi4uIUFxenjRs3av/+/apevbqioqJ03333qUePHrrtttvMjgoAAG6Q3QpOQUGBYmJiNG3aNK1atUp16tRRz5491bt3b3Xv3t22nKyiKC0t1bZt2xQTE6MFCxZo9+7datq0qaKjozVq1Cg1atTI7IgOsWXLFk2bNk1z5sxRfn6+IiIiNGjQIA0YMEABAQFmx7tmqampWr58uWJiYrR8+XJ5eXmpb9++GjFihLp27Wo7yb2ySE5O1tdff237N+7n56fOnTvrnnvuUY8ePSrkHF9Jenq61q9fr5iYGC1dulQnT55UixYtNGjQIA0dOlRNmzY1OyIAALgO5V5wUlNTNWXKFH3++ecqLCxUnz59NGrUKN17770V4i+9V2vbtm36/PPP9dVXXyknJ0d9+vTRiy++6JJHdfLz8/XFF19oypQpOnDggO6++26NHDlS0dHRqlOnjtnxyk1GRoa+/PJLzZgxQ8nJyWrdurWee+45DR061KWXsJ0+fVqzZ8/Wp59+qh07dujmm2/WwIEDNXjwYEVERFSKc1ZKSkq0bt06zZ8/XwsXLtSJEycUHh6uxx9/XA8++CBH9QAAqEiMcpKcnGw89NBDhoeHh9GoUSNjypQpRmZmZnnt3mkVFBQY8+bNM8LDww1JRlRUlPHjjz+aHatc5OTkGG+//bbh7+9vVKtWzRg3bpyxY8cOs2M5RFxcnDFixAjDw8PDCAwMNKZMmWKcPXvW7FjlKjk52Rg7dqzh4+NjVK9e3XjkkUeMdevWGSUlJWZHM1VRUZGxYsUKY+jQoYanp6dRp04d45lnnjEOHDhgdjQAAHAVbrjgHD9+3Hj88ccNd3d3o2XLlsbMmTONwsLC8shW4axZs8a4//77DUlG165djcTERLMjXZeioiLjk08+Mfz9/Y3atWsbf/vb34z09HSzY5kiNTXVGD9+vOHt7W0EBgYas2fPNkpLS82OdUO2b99uDBw40KhSpYrRrFkz43/+53+M7Oxss2M5pePHjxvvvPOOERwcbLi7uxsPP/ywsW/fPrNjAQCAP3DdBae4uNh4//33jZo1axo333yz8cUXX1T6v/yWWb9+vREWFma4ubkZjz32WIV68RgbG2u0bNnSqFq1qvH0008bWVlZZkdyCr/99pvx6KOPGm5ubsbdd99tbNmyxexI1+zAgQNG//79DYvFYoSGhhoLFy6s8GXNUYqLi43Zs2cbt99+u+Hm5maMGDHCOHr0qNmxAADAZVzX4vqDBw8qKipKr732mp599lnt27dPDz/8cKVYq381OnTooE2bNmnWrFmKiYnRHXfcoZ9++snsWH+ooKBAzz//vDp37qzg4GDt3LlTU6dO5U0y/0+DBg302WefaevWrapevboiIiL05ptvqri42Oxof6qgoEATJ05Uq1attHfvXi1cuFBbt25Vv379Kt1FFK6Xm5ubhg8fruTkZM2cOVMbNmxQ8+bNNWXKlArxbwAAgErlWhvR7NmzDW9vbyM0NNRISkqyR+lyKZmZmcagQYMMi8ViPPvss0ZxcbHZkS6xd+9eo2XLlkbNmjWNGTNmmB3H6ZWUlBhTp041vLy8jLCwMOPIkSNmR7qiX375xbjllluMGjVqGJMnT660y0fL29mzZ42///3vRrVq1YzWrVvz30IAAJzIVR9yMQxDr776qkaMGKGxY8cqLi5OrVu3tmf3cgm+vr5asGCBZs2apY8//li9e/fW6dOnzY5ls3r1arVr1041atRQUlKSRo0aZXYkp1elShU9/fTT2rp1q86cOaPw8HAlJCSYHesihmHo/fffV1RUlG6//Xbt3r1bzz33nEtfDc6RvLy89MYbb2jHjh2qXbu2wsPD9dlnn5kdCwAA6CovE11SUqLhw4dr4cKF+vTTTzVy5EgHRHM98fHx6tu3r3x9fbVq1Sr5+/ubmmfOnDkaOXKkBgwYoBkzZnAp3OuQk5OjBx98UOvWrdM333yj7t27mx1JZ8+eVXR0tH744Qf985//1HPPPcdSNDsqLi7WxIkT9c4772j48OGaPn06RRIAABP9acExDEOjR4/WggULtHTpUnXq1MlB0VzT0aNH1aVLF3l7e2vNmjWqXbu2KTkWL16sgQMH6umnn9Z7773HC+AbUFJSoscee0zz5s3Tjz/+qMjISNOynD59Wr169dLu3bu1ZMkStWvXzrQslc3y5cs1cOBAde7cWQsWLFC1atXMjgQAQKX0pwXn+eef13/+8x8tXrxY999/v6NyubTU1FR17NhRQUFBWr16tapWrerQ8detW6d7771Xo0aN0kcffUS5KQclJSWKjo7W8uXLtX79et1xxx0Oz5Cbm6suXbro2LFjWrlypVq0aOHwDJVdXFycevToodDQUC1btkyenp5mRwIAoNL5w4ITExOjvn37avbs2Ro2bJgjc7m8PXv2KCwsTGPGjNHkyZMdNm5WVpZCQkJ0991369tvv+XKd+WosLBQ9957rzIyMpSQkKDq1as7bOzS0lL1799fcXFx+vnnn9WkSROHjY2LJSUlKTIyUgMGDNB///tfs+MAAFDpXPHV7W+//aZHHnlEDz/8MOXGDpo1a6YPP/xQU6dO1cqVKx027pgxY2SxWPTf//6XclPOqlatqi+//FLHjx/Xs88+69Cx33jjDf3444/69ttvKTcmu+OOO/Tll1/qiy++0P/+7/+aHQcAgErnikdwxo0bpx9++EE7d+5UjRo1HJ3rusXExNiuZvTYY4+pd+/e17yPnJwc7d69Wzt27FBMTIyWLFlS3jFtBg4cqD179igpKcnuhWPNmjXq0qWLfvrpJ3Xt2tWuY5WX8poLR87p/PnzNXToUCUmJjrkSoPJyckKDQ3Vf/7zH40dO9bu45WXq52TivacLjNx4kS9//772rt3rwICAuw+HgAAsLpswTly5Ihuu+02ffjhh3r00UfNyHVd5s2bpzlz5mj27NmSpJdffll33nmnHnvssWvaz4QJEyRJb731liTrhRbsZf/+/WrRooW+/PJLDRkyxG7jSFKnTp1UtWpVrVixwq7jlKfymgtHzqlhGAoLC1Pjxo319ddf222cMvfff79tWVxFOip3NXNSEZ/TZQoLC9WqVSuFh4fb8gMAAPu7bMF5+eWXNW/ePO3fv7/CXO40LS1NjRo10saNGxURESFJ2r59u0JDQ5WYmKiQkJBr3mfZyff2fjE0bNgwHTx4UJs2bbLbGFu2bFHbtm21YcMGtW/f3m7j2Et5zYWj5nTRokXq37+/Dh06pEaNGtltnE2bNqldu3Zau3atoqKi7DaOPV1pTiryc7rMN998o8GDB2vfvn269dZbHTImAACV3WX/3Lt48WINGTLELuUmJydHn332mSwWiywWiyZMmKCMjAxJUkZGhmJiYtSnTx/l5ORo3Lhxtr+8StY3pezTp48sFos++OAD2/dJ0i+//CJJuummm2z3NWzYUJK0efPmcv85ytOwYcO0efNmHTt2zG5jLFmyRI0aNbJLubHXnFZkPXv2VK1atRQTE2PXcebNm6dmzZrZrdyYObcV+Tldpn///mrQoIEWLFhgdhQAACoP43cOHjxoSDJiY2N/v6lcjB071pBkHD9+3EhNTTUkGWPHjjUMwzB69+5tSDIkGRs3bjQSExNt25YsWWK73zAMY+7cubbHlu3jMj+OIcno3bv3dWUt27e9nT171qhevboxY8YMu43Rtm1b44knnrDLvu01pxcqr7lw1JwahmEMHjzY6N69u13HCAgIMF5//XW77d/Mua3Iz+kL/b//9/+MNm3aOHRMAAAqs0v+T7906VJDknHmzBm7DPjaa6/ZXgQZxqUvOMq+PnXq1MVBr/DCaPLkyVfc/kf3Xw1Hvhhq27at8eKLL9pt/zVq1LBbgbLXnP7ZY6+HI+d00qRJRnBwsN32n52dbUgyVqxYYbcxzJzbiv6cLvPVV18Znp6eRmlpqUPHBQCgsrpkidpvv/0mHx8feXt7X80BoGv25ptv6uOPP1ZaWpo++OCDKz6uVq1aF319patDPf/88+Wazyw33XST3Zao5ebm6syZM7blPeWNOb28hg0b6tixY3Y73+Po0aOSZNcrdDG3Ny4wMFDnzp1zmeWXAAA4u0sKTm5urnx8fOw66Geffaa//vWv13S517IXTPPmzZNkPdlYku1NMv9oXxXh0rk1a9bU6dOn7bLv3NxcSbLr5b7tMacVXc2aNXXu3DkVFhbaZf85OTm2cezJrLmt6M/pMmXlLzs72+QkAABUDu6/v8Pf318nTpxQaWmpXS45O2/ePI0ZM0apqakKCgq66u8LCQnRkiVLtG/fPlksFvXu3Vtz587Vgw8+KMn6YigmJkYZGRny9/eXZL0KkyTdeeed5f5zlLf09HS7vUFjvXr1VKVKFbv9Bdlec1rRHT9+XHXq1JGnp6dd9l92RO63337TzTffbJcxzJzbiv6cLlN2ZNZecwQAAC52ScFp2LChioqKlJGRoQYNGpT7gNHR0ZJ0TS+WJOub/UVGRqp379567rnnLtl+3333SZJSUlJsL4bKXliUbXNmv/76q90u3+zh4SFfX1/bkqbyZq85reiOHj1qt2WBkvUFs8Vi0eHDh9W2bVu7jGHm3Fb053SZw4cPq1atWnY/Mg4AAKwuOURz1113qWrVqlqzZo1dBixbdpKWlqZ9+/bZ7s/IyPjDIwx9+vRR7dq1bZerLfsYN26cMjIyFBQUpGnTpmnmzJnKyclRTk6OZs6cqWnTpl3zizPp/PKf339uD8eOHdOePXts7/VhD+Hh4Vq7dq1d9m2vOS1TXnPhyDmVrJdJbteund327+npqbCwMC1btsxuY5g5txX5OX2hpUuXVtj3KAIAoEK63JUHunbtagwdOtQuVzVITEw0JBmvvfaacfz4cdtVmsouQVv28fvLwCYmJl50WdoLPy68ylPZ5Wl79+5trFq16royXm6MK/yqysW0adMMb29vIz8/325jfPrpp0aNGjWMgoKCct+3Pee0vObC0XOamZlpuLm5GQsXLrTbGIZhGB988IFRp04d49y5c3bZvzPMbUV8TpfJzs42PD09jdmzZ9t9LAAAYGUxjEsv8fTpp5/qmWee0cGDB+26xOZa7Nu3T9WqVbvkL7f79u3T7bff7rB3Ji9vhmHorrvuUrNmzTRnzhy7jZOenq7GjRvr3//+t8aMGWO3ca6Fq86pJL399tuaPHmyjhw5YteLOxw7dky33HKL3n33XY0fP95u41wrV57ba/Haa6/po48+0uHDh+1+MQgAAGB12asIjBw5Ur6+vpo0aZKj81zWvHnz1LRp08suS6lfv77mzp1rQqrysWjRIiUmJurll1+26zgNGjTQI488orffflvnzp2z61hXw5Xn9PTp05oyZYqefvppu5YbyXp58WeeeUZvvPGGMjMz7TrW1XLlub0WR44c0dSpU/X6669TbgAAcCC3iRMnTvz9ne7u7vLy8tLbb7+t3r172+ViA9filVde0ZkzZ1SvXr2L3m9j3759WrZsmR5++GET012/M2fOaNCgQbrnnnv0xBNP2H28kJAQvfvuu7JYLKafE+CqcypJL7zwgpKSkjR37lxVq1bN7uOFhYXp448/1o4dOzRo0CBZLBa7j/lHXHlur1ZxcbEGDBggNzc3zZgxQ25ubmZHAgCg0rjidaAff/xx/eUvf9HQoUN19uxZR2a6xOzZs+Xj46N33nnHdrLyhAkTdPToUT322GNXvZ/fn/B8pQ9Heeqpp5Sdna2pU6c6ZLyAgAC9++67evPNN7Vx40aHjHklrjqny5cv14cffqgPP/xQtWvXdsiYPj4++vrrr7VkyRL985//dMiYf6S85vZqONv8l3nuuee0adMmffXVV/Lw8HD4+AAAVGaXPQenTFpamkJCQtSrVy/NnDnTLu+LU1l99tlnevzxx7V48eJregPFG2UYhnr27Kldu3bp559/5r05ytG+ffvUsWNH3XfffZo1a5bDx//www81fvx4TZ8+XaNGjXL4+LD64IMP9MILL2jevHkaPHiw2XEAAKh0/rCxBAUFaf78+fr666/11FNPOSqTy5s/f77GjRuniRMnOrTcSNa/eM+aNUve3t7q1q2b05y3UdGlpaWpW7duatKkiT766CNTMvz1r3/V3/72Nz3yyCP617/+ZUqGyu7vf/+7XnjhBU2dOpVyAwCASf7wCE6ZhQsXasiQIRo3bpymTp3KevIb8OWXX2r06NF68skn9cEHH5iW49ixY+rYsaN8fHy0dOlSjuTcgP3796tHjx7y9vbWmjVrVKdOHVPzTJ48WS+++KKeffZZvfPOOyyRcoD8/Hw98cQTmjVrlqZPn66RI0eaHQkAgErrqtac9e/fX3PnztX06dPVp08fnT592t65XI5hGJowYYJGjBihZ555RpMnTzY1z0033aRVq1apqKhIYWFhSkhIMDVPRbVmzRpFRETI19dXK1asML3cSNLzzz+v2bNn65NPPlFkZKRSU1PNjuTSdu/erbCwMC1evFiLFi2i3AAAYLKrPqlm4MCBWrt2rbZt26aIiAht2bLFnrlcyvHjx9WnTx+99957mj59uiZNmmT6la4kqXHjxvrll1/UunVrRUVF6ZNPPqk0709yo0pKSjRp0iTdd9996tatm9asWSN/f3+zY9kMGzZM8fHxysvLU2hoqD799FOVlpaaHculFBUVafLkybr77rvl4+Ojbdu2qVevXmbHAgCg0rumqwaEhYVp8+bNatCggdq1a6d//OMfKi4utlc2l/Dtt9+qVatWSk5O1urVqzV69GizI12kVq1a+v777/X000/rySefVPfu3fXrr7+aHcupHThwQJGRkXr99df19ttva+7cufLy8jI71iWaN2+uuLg4PfLII3ryySfVrl07/jBRTtauXas2bdpowoQJevHFFxUbG3vZ9/0BAACOd82XRQsICNCqVav04Ycf6r333lPr1q31/fff2yNbhbZv3z4NHjxYAwcOVPfu3bV9+3a1b9/e7FiX5e7urrfffls///yzUlNTdfvtt2vixIkqKCgwO5pTycvL06RJk9SmTRvl5uZq06ZNeuGFF5ziaNyVeHl5afLkydq5c6dq1aqlsLAw9e7dW9u2bTM7WoW0fft2DR48WF26dFGDBg20bds2/f3vf+c8JwAAnMh1XffZYrFozJgxSkxMVLNmzdS7d291795dSUlJ5Z2vwjl+/LieeuoptWrVSnv37tWqVas0a9Ys+fj4mB3tT4WFhWnLli164YUXNHnyZDVv3lxz586t9EubioqKNH36dN1222169913NXHiRG3ZskWhoaFmR7tqTZs21fLly7VgwQKlpqaqbdu2GjJkCEXnKv3888/q1auXQkNDlZaWpqVLl+qnn35Ss2bNzI4GAAB+zygHa9asMe68807DYrEYPXr0MGJjY8tjtxXK/v37jccff9yoVq2a0aBBA+Ozzz4ziouLzY513Y4ePWo8/PDDRpUqVYxbb73V+PTTT42CggKzYzlUbm6uMXXqVCMwMNDw8PAwnnjiCePEiRNmx7phJSUlxjfffGPccccdhiQjIiLCmDlzppGfn292NKeSm5trfPLJJ0ZISIghyQgPDzeWLVtmdiwAAPAnruoy0VdZlLRs2TK99957WrduncLCwvTYY49p8ODBqlmzZnkM4XSKi4v1ww8/aMaMGYqJiVHjxo313HPPaeTIkU55Tsb12L9/v95//33NmjVLderU0ejRozVy5EjddtttZkezm507d2rGjBmaOXOmCgsL9cgjj+jZZ591uXMsDMNQbGysPv74Y3333XeqWbOmBg8erCFDhqhjx46V8o19i4uLtWrVKs2fP1/ffvutCgsLbZfIDw8PNzseAAC4CuVWcC60ceNGffjhh1q4cKHc3Nw0YMAADRs2TJ06dVLVqlXLeziHMgxDW7du1YIFCzR79mwdP35cnTp10tixY9W/f3+XfY+g9PR0/e///q+++OIL/frrr+rQoYMefvhh9enTR/Xq1TM73g07duyYFi1apJkzZ2rz5s265ZZbNHr0aI0dO1Z169Y1O57dpaen6/PPP9e8efOUlJSkhg0batCgQerdu7c6dOigatWqmR3RbvLy8hQbG6vFixfr22+/VVZWlsLCwhQdHa0RI0ZUivkHAMCV2KXglDl16pTmzp2rL774Qps3b1atWrXUvXt3PfDAA7rnnnvk6+trr6HLVX5+vjZs2GB7AZSenq7GjRtrxIgRGjlypIKDg82O6DAlJSVasWKFPv/8c8XExKioqEjt27dX37591aNHjwpzToJhGNqxY4eWLl2qRYsWKT4+Xt7e3urfv79Gjx6tyMhIp754gD3t3r1bCxYs0Ndff63k5GRVr15dkZGRuvfee9W1a1e1bNmyQhf5oqIiJSYmatWqVVq5cqV+/vlnFRYWqk2bNho8eLAGDx5cqZ7TAAC4GrsWnAulpaVp8eLFWrx4sWJjY1VSUqJWrVopKipKUVFRCg8PV2BgoCOi/Kns7GzFx8dr/fr1Wrt2rTZv3qzCwkKFhoYqNzdXOTk5WrRokdNeFc1R8vLy9OOPP2rx4sVaunSpTp48qQYNGigqKkqRkZHq0KGDmjdv7hRXmCosLNSOHTu0YcMGxcbGav369crMzFT9+vXVp08f9e3bV127dnXpIxXXIy0tTbNmzdKUKVNUUlKi06dPy8fHR23btlW7du0UHh6ukJAQNWrUyOyol1VaWqrDhw8rMTFRGzdu1KZNm7R161adPXtW9evXV7du3XTvvfeqW7duatCggdlxAQBAOXBYwblQTk6O1q1bp9jYWMXGxmrbtm0qKSlR3bp11aZNG4WEhKhly5a65ZZbFBwcrICAALucD3DixAmlpKQoJSVFu3fv1vbt27V9+3bbO7/fdttttgLWqVMnBQQEKDc3VyNHjtSSJUv01ltv6aWXXir3XBVRcXGxEhISbPO6fv165ebmytPTUy1btlRoaKjuuOMO3XrrrWrSpImCg4PtUibOnj2rlJQUHTp0SPv27VNSUpISExO1e/duFRUVqU6dOurYsaM6d+6sqKgohYSEVMpzTa7W7NmzNW7cOLVo0UJz5sxRXl6eNm7cqLi4OG3atEl79+6VYXQlwGcAACAASURBVBjy8fFR8+bN1bJlSzVv3lxNmjRRUFCQAgMD7V4cSktLlZ6ertTUVB05ckQpKSnatWuXdu3apd27d+vs2bNyc3NTixYtFB4ernbt2ikiIkLNmzevtEfpAABwZaYUnN87ffq0EhMTlZiYqO3btysxMVG7du2yvQ9L1apV1bhxY9WvX1++vr6qV6+e6tWrp5o1a6pGjRry8PCQxWJR7dq1JVmPLBQWFsowDJ06dUpnz55VVlaWMjMzlZGRoRMnTujw4cM6c+aMJOv7wDRp0kQhISG2gtWmTRs1bNjwsnkNw9B7772nV155RdHR0Zo2bZqqV6/umF9WBVFSUqLk5OSL5jQpKUmZmZmSrJcab9iwoQIDA+Xn5ydfX1/brZeXl7y9vSVJPj4+cnd3V2FhofLy8iRJZ86cUX5+vjIzM23zmpmZqSNHjig9Pd2WoUGDBmrdurVtTkNDQ9WsWTMKzVUoKCjQSy+9pP/85z968skn9f7771/2/LlTp05px44d2r17t5KTk7Vr1y7t2bNHv/76q8r+0+Lp6amgoCDVq1dPdevWVZ06dWy31apVU61atWxzUvZ52dEiyVqec3NzlZ+fr5MnTyo7O1snT57UyZMndfz4cf36668qLCyUJLm5uSkgIEDNmjVTq1atbKWrZcuWFeJS7QAA4MY5RcG5kt9++812hOXQoUM6ceKEsrKydOLECWVmZur06dO2MlNaWqqcnBxJkre3t6pWraoqVaqoVq1a8vLysr14LitHQUFBtiMJQUFBcnd3v+Z8P/zwg4YNG6bGjRtr4cKFaty4cTn/BlzP6dOnbfOZkpKiY8eO2YpKWVk5d+6crXzm5uaquLhYHh4eqlGjhiRr6alWrZp8fX0vKkYBAQG2OW3SpImtJOHa7N27V4MHD1ZqaqqmT5+ugQMHXvM+CgsLdfToUR05ckSpqalKS0tTZmamsrOzbQUlOztbBQUFtjmWrIXJMAzbc1eSbe69vLwuKUj16tVTYGCgGjdurMDAQN10001OsSQSAACYx6kLTkVw4MAB9evXT+np6Zo3b566du1qdiSXEh8fr7CwMKWkpHDitwN89dVXGjt2rJo1a6b58+erSZMmZkcCAAC4JqzVuUG33nqrNm7cqM6dO+v+++/XpEmTzI4EXLOCggKNHz9ew4cP19ChQ/Xzzz9TbgAAQIV07euycIkaNWpo/vz5eu+99/Tqq69q+/btmj59OufloELYt2+fBg8erEOHDmnBggUaNGiQ2ZEAAACuG0dwyonFYtFLL72kn376SatWrdJf/vIXpaSkmB0L+EMLFy5UeHi43N3dtXXrVsoNAACo8Cg45axTp05KSEiQh4eH7r77bq1YscLsSMAlzp07p/Hjx2vAgAEaPHiwfvnlF91yyy1mxwIAALhhFBw7CAwM1Pr169WnTx/16NFDkyZNEtdygLM4fPiwIiMj9cUXX2jevHn69NNPL3sJaAAAgIqIgmMn1apV0+eff66PPvpIEyZM0AMPPGB7Xw/ALN99953atGmj4uJibdmyRUOGDDE7EgAAQLmi4NjZmDFj9NNPPykuLk7h4eHas2eP2ZFQCZUtSevfv7969+6tDRs26NZbbzU7FgAAQLmj4DhAZGSkEhISVLNmTYWHh2vRokVmR0IlkpqaqqioKH3++eeaO3euZs2aJS8vL7NjAQAA2AUFx0ECAgK0bt06DRw4UP3799fLL7+s0tJSs2PBxS1evFht2rRRYWGhtm7dqgcffNDsSAAAAHZFwXEgT09P/fe//9Unn3yiqVOnqm/fvjp16pTZseCCiouL9fLLL6tfv37q1asXS9IAAEClQcExwZgxY7R69WolJCQoPDxcu3btMjsSXEhaWpo6duyojz76SF999ZVmzZrFm84CAIBKg4Jjkvbt2yshIUF169ZVRESEFi5caHYkuIAlS5YoNDRUp0+f1saNGxUdHW12JAAAAIei4Jjo5ptv1tq1a/Xggw9q4MCBnJeD61a2JO2BBx5Qr169FB8fr5YtW5odCwAAwOHczQ5Q2Xl6emratGnq0KGDHn/8cSUlJemrr75SnTp1zI6GCuLIkSMaMmSIduzYodmzZ2vYsGFmRwIAADANR3CcxIgRI7RhwwYlJycrLCxMO3fuNDsSKoCYmBiFhobq1KlT2rhxI+UGAABUehQcJ3LXXXcpISFBgYGBateunb7++muzI8FJFRcXa+LEiXrggQfUs2dPJSQkqFWrVmbHAgAAMB0Fx8nUq1dPK1as0BNPPKEhQ4bo5ZdfVklJidmx4ESOHDmiTp066b333tOnn37KVdIAAAAuQMFxQu7u7nr33Xc1a9Ys/fvf/9Y999yjjIwMs2PBCXz//fdq06aNsrKytHnzZj366KNmRwIAAHAqFBwnNnz4cP388886fPiw2rZtq4SEBLMjwSRlS9L69u2rHj16sCQNAADgCig4Tq5NmzaKj49X06ZN1bFjR33xxRdmR4KDHT16VJ07d9akSZP08ccfa9asWfL29jY7FgAAgFOi4FQAfn5++vHHHzV+/HiNGjVKjz/+uIqKisyOBQdYtWqV2rZtqxMnTmjz5s0aM2aM2ZEAAACcGgWngig7L2fOnDn68ssvdc899+j48eNmx4KdlC1Ju/fee9WtWzclJCSodevWZscCAABwehScCiY6Olq//PKLjhw5orZt22rz5s1mR0I5+/XXX9WlSxdNmjRJU6ZM0ezZs1WjRg2zYwEAAFQIFJwKKCQkRPHx8WrRooUiIyM1Y8YMsyOhnKxevVpt27ZVRkaG4uLiNH78eLMjAQAAVCgUnArK19dXy5Yt09NPP61HH31Ujz/+uAoLC82OhetUUlKiiRMnqlu3bmrfvr3i4uJ0xx13mB0LAACgwqHgVGBubm569913tWjRIs2bN09dunTRb7/9ZnYsXKOMjAx1797dtiTtm2++Ua1atcyOBQAAUCFRcFxAnz59FBcXp6ysLLVt21abNm0yOxKu0po1axQaGqrU1FRt2rSJJWkAAAA3iILjIpo1a6a4uDiFhYWpU6dO+uyzz8yOhD9gGIYmTZqkbt26qV27doqLi1NISIjZsQAAACo8Co4LqVmzphYuXKg33nhDY8eO1YgRI5Sfn292LPxORkaG7r//fr3++uv64IMP9O2336p27dpmxwIAAHAJ7mYHQPmyWCx66aWX1LJlSw0fPly7du3SwoULFRQUZHY0SFq7dq2GDh2qqlWrat26dQoLCzM7EgAAgEvhCI6L6tWrlzZv3qz8/Hy1bdtWa9asMTtSpVa2JO2ee+5ReHi4EhMTKTcAAAB2QMFxYU2bNtWmTZvUsWNH3XvvvZo0aZLZkSqlEydOqHv37rYlad999x1L0gAAAOzEYhiGYXYI2JdhGHrvvff0yiuvKDo6WtOmTVP16tXNjnWJc+fOqXPnzsrNzbXdV1BQoLS0NAUHB8vDw8N2f/369bVy5UpZLBYzol612NhYDR06VB4eHpo/f77Cw8PNjgQAAODSOIJTCZSdl/P9999r2bJl6tChgw4fPnzZx65cuVJvvfWWYwP+H09PT9WrV0/JycnauXOndu7cqQMHDqiwsFB79+613ZecnKzGjRubXm5WrFhxxW2GYehf//qXunXrprvvvlvbtm2j3AAAADgABacS6d69uzZv3qyioiLdfffdWrVq1UXbU1JSNHDgQP3jH//Qnj17TMk4fPjwP32MYRgaNmyYA9Jc2Q8//KD7779fixcvvmRbZmamevTooeeff15vvvmmvvvuO9WpU8eElAAAAJUPS9QqoTNnzmj06NH67rvv9NZbb+mll15SXl6ewsLCtH//fknS3XffrQ0bNjj8KElBQYH8/PyUl5d3xcf4+fkpPT1dbm5uDkx23qlTp9SsWTNlZGSoRo0aSkpKUuPGjSVJ69at09ChQ+Xm5qb58+crIiLClIwAAACVFUdwKqEaNWpo/vz5euutt/Tqq69q6NChevjhh7Vv3z4VFRWpqKhImzZt0owZMxyerVq1aurXr99F59tcyMPDQyNGjDCt3EjS+PHjlZWVJcMwVFBQoH79+uncuXP617/+pXvuuUd33XWXEhMTKTcAAAAm4AhOJbd8+XINGzZMJ0+e1O//Kfj4+Gj//v2qX7++QzP98MMP6tGjxxW3x8fHq23btg5MdN6yZcvUs2fPi+5zd3dXly5dtHbtWk2aNEnjx483/fwgAACAyoqCU8mtXr1a3bp1U2lp6SXbPDw8NGDAAM2dO9ehmYqLi+Xv76/s7OxLtgUGBio1NdWUApGTk2Nbmvb735fFYtGUKVP09NNPOzwXAAAAzmOJWiWWlpamAQMGXHF7UVGR5s2bp++//96BqaxHRKKjoy9Zpubh4aFRo0aZdnTkqaeeUmZm5mXLoCRNmDBBKSkpDk4FAACAC3EEp5LKz89XeHi49uzZo6Kiois+rkqVKrrpppu0d+9eh753zoYNG9SxY8dL7k9OTlaLFi0clqPM0qVL1atXrz98jLu7u1q2bKm4uDh5eno6KBkAAAAuxBGcSurdd9/Vjh07/vRxpaWlSk9P18SJE+0f6gLt27fXTTfdZPvaYrGodevWppSbU6dOafTo0apS5Y+fLsXFxdq+fbuef/55ByUDAADA71FwKqk33nhDO3fu1CuvvKLAwEBJUtWqVS/72OLiYn3wwQfatm2bw/JZLBY99NBDtmVq7u7uGjFihMPGv9D48eOVnZ19xaVpkmw5GzRoIHd3d+Xn5zsqHgAAAC7AEjVIkrZs2aJZs2bpyy+/1MmTJ+Xu7q7i4mLbdnd3d7Vq1UoJCQkOu0Tz9u3bFRoaKslaeA4dOqRGjRo5ZOwyf7Q0rex3FBgYqH79+mnQoEFq3749V1ADAAAwEQUHFykuLtbKlSs1Z84cfffddzp79qzc3d1t5+n8+9//1pNPPumwPLfddpsOHDigiIgIbdy40WHjStarpt1+++06ceKESktLZbFYVKVKFZWUlKhp06aKjo7W4MGDTVk2BwAAgMuj4LiI7OxsrVy5slz3WVhYqK1bt2rDhg3atm2biouL5enpqalTp8rX17dcx7qShQsXav78+Xr00UfVrVs3h4xZ5sMPP9T69eslWY8g3XbbbWrXrp3CwsLk5+dXLmP07NlT3t7e5bIvAAAAUHBcRnx8vMLCwsyOgWuUkpKi4OBgs2MAAAC4DHezA6CczUmRGtr5BfOpDMm7luThoEshz/qHNOLvjhmrzPZY6bY2UvWa9tn/nnhpHIUUAACgvFFwcO1q+zt2vGGvOHY8SQqJcvyYAAAAuGFcJhrOz40eDgAAgKtDwQEAAADgMig4AAAAAFwGBQcAAACAy6DgAAAAAHAZFBwAAAAALoOCAwAAAMBlUHAAAAAAuAwKDgAAAACXQcEBAAAA4DIoOAAAAABcBgUHAAAAgMug4AAAAABwGRQcVAynMqTV86RX+5TP/mZMsH4AAADApbibHQC4Kp+/Li355Pq+Ny9H6lVbWmOUbyYAAAA4HQoOKoZnPr7+grN93aX3jX7zxvIAAADAKbFEDa4tL0da+pnZKQAAAOAgFJzKLi/Hem5LZ4v14/vP/nz7qQzrtt+fF/NLjPUxr/aRMtKkXZvOf1/ZR5kFH5y/LyPtz8e6nMvt9/f3zZ9szXXhtj86n+dGfl4AAACYjoJT2f3zIelwsvX8lDWGtH/rxSff//Mh6Wyuddt3x6WNMdL7j1qLwPuPSm9GW1/o79ok/aW3ND/V+vVX70gtIqQpq6z7eei1i8+BGfyc9b7piZJ/0J+PdTnfHb/0vvmpF3994VK0sp/xwtyX+31c788LAAAA01FwKrPV86wvzvs/ef6++x6WDm63fr5ttXV7h77Wr2v7S8Nesd4X94P09pLz39ciwnpbVlbKzpdp08VaZGa/dXFRKfv8lpCrG+tyavtfel/Z+H/kwtwXKo+fFwAAAKai4FRmq+ZYby8sCi0izr+QX/v1pdsbNb/4e69G1EDr7YVFZd+W8/eX51g3whkyAAAA4IZQcCqzyy3RutDljkp417q6773QLSHW5VwXloRta84fvSnPsW6EM2QAAADADaHgVGZ/6W29LVuSdqXtlzvRv8/Yaxur69Dz565kpEnNwuw31vVyhgwAAAC4IRScyqzd/72gX/LJ+XNiMtKkqeOsn3cdar09lnL+e8oe12nQtY11Zxfr7fKZ0s5fpJDIi7eX51jXyxkyAAAA4IZQcCqzDn2tRy2WfCL1qm295PFX70iDnrFuD+9u3f7VP88f1Yj7wXo0o02Xi490lBWBCy8kcOH22v7Wiw0s+UTK/PX80q8y1zLWhZ+XHVk5us96u2vT+W1lRe3CIzMLPrjyvsrz5wUAAIApKDiVWW1/6YXp1uIhWW8HPSMFNLV+7V3Lur1db6lf/fPvLTPmXettv/rn99Wr9sW3v98unb+oQFnhuNC1jHXh58P+Zt3fQ7dbl8C1iLB+PWGuNOoN62PKLhW98D/SvQ9deV/l/fMCAADA4SyGYRh//jA4u/j4eIWFhUlzUqSGwWbHwZ/ZEy+NC1NKSoqCg5kvAACA8sIRHAAAAAAug4IDAAAAwGVQcAAAAAC4DAoOAAAAAJdBwQEAAADgMig4AAAAAFwGBQcAAACAy6DgAAAAAHAZFBwAAAAALoOCAwAAAMBlUHAAAAAAuAwKDgAAAACXQcEBAAAA4DIoOAAAAABcBgUHAAAAgMug4AAAAABwGRQcAAAAAC7D3ewAKGdxy6Ta9cxOgT/z60GzEwAAALgkCo6r+ddfzU4AAAAAmMZiGIZhdgjgSuLj4xUWFqaUlBQFBwebHQcAAABOjnNwAAAAALgMCg4AAAAAl0HBAQAAAOAyKDgAAAAAXAYFBwAAAIDLoOAAAAAAcBkUHAAAAAAug4IDAAAAwGVQcAAAAAC4DAoOAAAAAJdBwQEAAADgMig4AAAAAFwGBQcAAACAy6DgAAAAAHAZFBwAAAAALoOCAwAAAMBlUHAAAAAAuAwKDgAAAACXQcEBAAAA4DIoOAAAAABcBgUHAAAAgMug4AAAAABwGRQcAAAAAC6DggMAAADAZVBwAAAAALgMCg4AAAAAl0HBAQAAAOAyKDgAAAAAXAYFBwAAAIDLoOAAAAAAcBkUHAAAAAAug4IDAAAAwGVYDMMwzA4BSNK5c+fUuXNn5ebm2u4rKChQWlqagoOD5eHhYbu/fv36WrlypSwWixlRAQAA4KTczQ4AlPH09FS9evW0adMm/b5379271/a5xWJReHg45QYAAACXYIkanMrw4cP/9DGGYWjYsGEOSAMAAICKhiVqcCoFBQXy8/NTXl7eFR/j5+en9PR0ubm5OTAZAAAAKgKO4MCpVKtWTf369bvofJsLeXh4aMSIEZQbAAAAXBYFB05n6NChKioquuy2oqIiRUdHOzgRAAAAKgqWqMHpFBcXy9/fX9nZ2ZdsCwwMVGpqKhcYAAAAwGVxBAdOx93dXdHR0ZcsU/Pw8NCoUaMoNwAAALgiCg6cUnR09CXL1IqKijRkyBCTEgEAAKAiYIkanJJhGAoICNCxY8ckWd/7plWrVkpKSjI5GQAAAJwZR3DglCwWix566CHbMjV3d3eNGDHC5FQAAABwdhzBgdPavn27QkNDJVkLz6FDh9SoUSOTUwEAAMCZcQQHTiskJES33nqrJCk8PJxyAwAAgD/lbnYAOJfs7GytXLnS7Bg2d911lw4cOKBWrVppwYIFZsex6dmzp7y9vc2OAQAAgN9hiRouEh8fr7CwMLNjOL2UlBQFBwebHQMAAAC/wxEcXN6cFKmhk7yAn/UPacTfzU5htSdeGkcBBAAAcFacgwPnN+wVsxMAAACggqDgwPm5caARAAAAV4eCAwAAAMBlUHAAAAAAuAwKDgAAAACXQcEBAAAA4DIoOAAAAABcBgUHAAAAgMug4AAAAABwGRQcAAAAAC6DggMAAADAZVBwAAAAALgMCg4AAAAAl0HBAQAAAOAyKDhwfqcypNXzpFf7mJ0EAAAATs7d7ADAn/r8dWnJJ2anAAAAQAXAERw4v2c+NjsBAAAAKggKDgAAAACXQcGB45zKkH6JsZ5Lk5cjTR0nzZhw8fYFH0idLdbHbFt95X11tpz/+KP7AAAAUKlQcOA47z9qLS6/xEipu6U+Y6WcTOu2UxnW7X43S2sMaeDT0rNdpYPbL7+v745fet/8VPtlBwAAQIVAwYHjvL3k/OeNmku3hJw/v2bramvx6fKg9es2Xay3sd9cfl+1/S+9zz+o/LICAACgQqLgwBzetS7+etUc6+3vl5nNfsuxuQAAAFChcZloOIdfYqy3awxzcwAAAKBC4wgOnMvRfWYnAAAAQAVGwYFzeG6a9XbFbOsV1qTzV1UDAAAArhIFB45zKuPK2zr0td7OfkvqVdt6Dk6/+lKnQRd/34Wf9xlrvS076rNr0/ltU8eVT2YAAABUKBQcOE6/+uc/f7XPxdtq+1sv8/zQa9av+4y1fu0fdPH3Xfj5sL9Jf+ktPXS79RyeFhHWryfMlUa9Yb+fAwAAAE7LYhgGZ3XDJj4+XmFhYdKcFKlhsNlxnM+eeGlcmFJSUhQczO8HAADA2XAEBwAAAIDLoOAAAAAAcBkUHAAAAAAug4IDAAAAwGVQcAAAAAC4DAoOAAAAAJdBwQEAAADgMig4AAAAAFwGBQcAAACAy6DgAAAAAHAZFBwAAAAALoOCAwAAAMBlUHAAAAAAuAwKDgAAAACXQcEBAAAA4DIoOAAAAABcBgUHAAAAgMtwNzsAnFTcMql2PbNTOJ9fD5qdAAAAAH+AgoPL+9dfzU4AAAAAXDOLYRiG2SGAK4mPj1dYWJhSUlIUHBxsdhwAAAA4Oc7BAQAAAOAyKDgAAAAAXAYFBwAAAIDLoOAAAAAAcBkUHAAAAAAug4IDAAAAwGVQcAAAAAC4DAoOAAAAAJdBwQEAAADgMig4AAAAAFwGBQcAAACAy6DgAAAAAHAZFBwAAAAALoOCAwAAAMBlUHAAAAAAuAwKDgAAAACXQcEBAAAA4DIoOAAAAABcBgUHAAAAgMug4AAAAABwGRQcAAAAAC6DggMAAADAZVBwAAAAALgMCg4AAAAAl0HBAQAAAOAyKDgAAAAAXAYFBwAAAIDLoOAAAAAAcBkUHAAAAAAug4IDAAAAwGVQcAAAAAC4DAoOAAAAAJdhMQzDMDsEIEnnzp1T586dlZuba7uvoKBAaWlpCg4OloeHh+3++vXra+XKlbJYLGZEBQAAgJNyNzsAUMbT01P16tXTpk2b9PvevXfvXtvnFotF4eHhlBsAAABcgiVqcCrDhw//08cYhqFhw4Y5IA0AAAAqGpaowakUFBTIz89PeXl5V3yMn5+f0tPT5ebm5sBkAAAAqAg4ggOnUq1aNfXr1++i820u5OHhoREjRlBuAAAAcFkUHDidoUOHqqio6LLbioqKFB0d7eBEAAAAqChYoganU1xcLH9/f2VnZ1+yLTAwUKmpqVxgAAAAAJfFERw4HXd3d0VHR1+yTM3Dw0OjRo2i3AAAAOCKKDhwStHR0ZcsUysqKtKQIUNMSgQAAICKgCVqcEqGYSggIEDHjh2TZH3vm1atWikpKcnkZAAAAHBmHMGBU7JYLHrooYdsy9Tc3d01YsQIk1MBAADA2XEEB05r+/btCg0NlWQtPIcOHVKjRo1MTgUAAABnxhEcOK2QkBDdeuutkqTw8HDKDQAAAP6Uu9kBcGOWLVumM2fOmB3Dbu666y4dOHBArVq10oIFC8yOYzd169bVPffcY3YM05w5c0aZmZnKyspSXl6eCgsLJcl2qfAqVaqoVq1akqxvBuvt7S1fX1/5+vrK29vbtNy4snPnzikrK8s2p2X/nbpwfn18fOTu7m6bXx8fH/n5+alu3bpmRgcAVHAsUavgggMDdfjoUbNj4AbdFRKihMREs2PYTUZGhpKSknTw4EEdOnRIhw4dUkpKio4dO6asrCydO3fuuvft5eUlX19f3XzzzWrSpImCg4MVHBysW265RSEhIbxYtpOzZ89q586d2rdv30VzeuTIEZ04cUK5ubnXvW83Nzf5+vrK399fwcHBtnlt0qSJWrZsqeDgYC4XDwC4IgpOBRd8000a+9tvesnsIHb0D0l/NzuEHb0oaXWrVkrYscPsKOUiOztbGzZs0KZNm5SYmKjExETb1fBq1qx50QvWgIAA+fn5yc/PT76+vvLz87P9VV+SateuLYvFotLSUuXk5EiSCgsLlZubq6ysLNtRn8zMTKWlpdleZB86dEh5eXmSpKCgIIWGhio0NFTt2rVT+/bt5ePjY84vp4IqKipSQkKCfv75Z23btk2JiYnau3evSkpKVLVqVQUFBdnmNCgoSPXr179oXn18fFS9enVJUvXq1eXp6SlJOn36tEpKSiRZ/93k5ubqxIkTOnHihLKyspSenm6bz5SUFGVkZEiSatWqpZCQEIWGhqpt27aKiopSUFCQOb8cAIDToeBUcJWh4BTLtddSVvSCU1BQoJ9++kkrV65UbGysduzYIcMw1KxZM7Vp00YhISG2W39/f4flOnbsmLZv324rWdu2bdP+/fvl7u6uO++8U5GRkbrvvvsUFRV1yZvKQtq6dauWLVum2NhYbdy4UXl5eapfv77uuusu25yGhoaqSZMmcnNzc0im3Nxc7dy50zanZR+FhYVq3LixoqKi1LVrV/Xo0UO+vr4OyQQAcD4UnAquMhQcV1cRC87p06cVExOjRYsW6ccff1ReXp5CQ0MVFRWlqKgodejQQX5+fmbHvER6errWrVundevWae3atUpOTladOnXUo0cPPfDAA+rZs6e8vLzMjmmK0tJSrVu3Tt99950WL16s1NRU3XTTTerSpYsiIyMVGRmp22+/3eyYl8jPz1dcXJxiY2MVGxurX375RcXFxYqMjFTf9+VvgQAAIABJREFUvn3Vv39/BQYGmh0TAOBAFJwKjoJT8VWkgrNlyxZNmzZNc+bMUX5+viIiIjRo0CANGDBAAQEBZse7ZqmpqVq+fLliYmK0fPlyeXn9f/buPC6qsv//+HsUXDM0EdRMRDO1VDAN8NY0MjIzMMxUXCjLvLG7sltN77v0p6WWlmbed6tYt6aJLV8XcClNTHLfAm0xMgxcUnJDNEG0+f0xrAoKysyZObyej8c8zsw5Z67zgTPlvDnXdZ3q6tWrlyIjI9WtW7cKMc7j4MGD+uSTTzR79mylpKSoadOmeuihh/Too4+qU6dOLvc7+PPPP7V27Vp9/vnniouL0+nTp9WxY0dFRkZq0KBB+V3lAADmRcBxcQQc1+fsAefcuXOaO3eu3nzzTe3bt0933XWXHn/8cUVERKhOnTpGl1du0tPTtWDBAn300Uf64Ycf1KZNG40aNUoDBgwwZRe2+Ph4vf7661qzZo28vLw0ePBgDRkyRK1atTK6tHJz/vx5rVixQh999JG+/PJL1apVS3//+981YsQI1a9f3+jyAAB2wn1wABTr9OnTevXVV9WkSRONHDlSISEh2rNnj7Zt26ann37aVOFGkry8vDRy5Eh9//332rp1q9q1a6ennnpKzZo108yZM3Xu3DmjS7xuVqtVS5YsUUBAgLp166bz589r6dKlOnDggF5//XVThRtJqlKlisLDwxUXF6e0tDSNHj1a//vf/+Tr66u///3vSklJMbpEAIAdEHAAFHHhwgV98MEHat68ud544w09+eST+u233/Tuu++qdevWRpfnEAEBAZo3b5727dun3r17a/z48WrRooUWLFggV73ovXnzZnXq1El9+vRRo0aNtHXrVsXHxys0NDR/1joza9CggV588UX99ttvmjlzptauXatWrVpp9OjROnXqlNHlAQDKEQEHQL6EhAT5+/vrueee04ABA/Trr7/q1Vdflbe3t9GlGaJx48Z66623tG/fPnXv3l2PP/64AgMDtWvXLqNLK7WjR48qIiJCnTp1UrVq1bR9+3YtXrxYAQEBRpdmiGrVqikqKkp79+7VzJkzNW/ePDVv3lyzZ8922fAKACiKgANAWVlZGj16tIKDg+Xr66vvv/9eM2fO5CaZuerXr6/o6Gjt2rVLNWrUUFBQkCZNmqQLFy4YXdoVLV68WG3atNHWrVu1ZMkSxcfH68477zS6LKfg5uamp59+Wvv27dNjjz2mp59+Wg8++GD+PZsAAK6LgANUcMnJyerQoYOio6M1Z84cxcXFqXnz5kaX5ZTatm2bPzj/tddeU6dOnXTw4EGjy7pMdna2nnjiCT3yyCPq1auXkpKS1KtXL6PLckoeHh6aPn26NmzYoJSUFLVu3VrLly83uiwAwHUg4AAVWHx8vDp27KgbbrhBu3fv1pAhQ4wuyelVqlRJzz//vHbt2qUzZ84oMDBQO3bsMLqsfOnp6br33nu1ZMkSxcbGKjo6WrVq1TK6LKcXFBSk7777TuHh4Xr44Yf15ptvGl0SAOAaEXCACmrhwoV64IEHdP/992vdunXy8fExuiSX0rJlS23atElt27ZV165dtWrVKqNL0v79+xUYGKijR49q06ZNCg0NNbokl1KjRg19+OGHmjZtmsaMGaNnnnmGcTkA4IIIOEAFtGzZMj322GMaMWKEFi5cqOrVqxtdkkvy8PDQ8uXL1a9fPz3yyCNKSEgwrJbff/9dISEhuummm7R161bTTfnsSKNGjdLnn3+u2bNna8yYMUaXAwAoI/PPDQqgiISEBPXr109Dhw7V66+/7nJ3qnc2lStXVnR0tM6cOaPQ0FB9++23atu2rUNryMzM1P333y93d3d9+eWXqlu3rkOPb0bh4eGaN2+eBg0apHr16hF0AMCFcAUHqECOHz+uAQMGqEePHnrnnXcIN+WkcuXKWrBggdq1a6f+/fvrzz//dOjxn3nmGaWnp2v16tWqV6+eQ49tZhEREZoxY4Zeeuklbdy40ehyAAClRMBBhZUuaZGkMCdtzx6GDRsmi8WiDz/8UJUq8Z9/eapSpYoWLFigo0ePauTIkQ47bkxMjObPn6+PPvpIt9xyi8OOW1GMGDFCPXr00KBBg3T69GmjywEAlALfcFBhTZAUISnukvVpkoZLsuQu46+zPWexbt06LV68WHPnznWZ+9ukpaVp+PDhslgsGj58uOLjS3s2isrIyNCWLVsUHR2tsDD7RdBGjRrp3XffVXR0tPbs2WO34+TJysrSCy+8oGHDhqlnz552P155SE9P1/jx42WxWGSxWLRo0aJrasdR5zTvDwKZmZmaPn263Y4DACg/FitTxLg034YNFfX77xprdCEuKq+DVt5/BBmSEiSF5j5fJVtoic1dV9b2SmOMpPjWrbXDzl+I77nnHlWpUkWrV6+263HKS0ZGhhISEhQaGqqMjAytWrVKERERio2NLfPsYOPHj5ckTZ48WZLsOjOW1WpVQECAmjRpos8//9xux5Gk//73vxozZoz27dunm2++2a7HKg/p6elKSUlRUFCQJGnRokWKiIjQ9OnTNWrUqDK15chzKkmvvvqqpk2bpv3797vMHwgAoKIi4Lg4As71uTSQxOnyIFOW0OKsAWfnzp3q0KGDNmzYoE6dOtntOOUpLi7usiCTN2boWv+3db3vL62lS5eqd+/e2r9/v12n327WrJlCQ0P11ltv2e0Y5WnLli354SaPq5zTzMxMNWnSRC+++GKZwxgAwLHoolaBXDpGJE4F3bDSctctKmZdngxJ0bnbLZLG57apQuvyHiWtK02NcYVqzDvecEnJxdSTV68ld9/0a9insJKuC0QVs65w22HF1OdMYmNj5ePjY5dwk5GRoejo6PwuR+PHj1d6uu23nJ6erri4OIWFhSkjI0PDhw/P/8u7ZLvRaFhYmCwWi2bMmJH/PkklXqWJiirubDiXnj17ysPDQ3Fx9uuwuGfPHqWkpGjQoEHl3ra9zuml4SYjI0OSNG7cuHL/GcpbrVq1FBYWptjYWKNLAQBcjRUurUmDBtapktVaikeo7cKCVZI1MXfd5tzXUbnPrZI1tdC6wu+Pyl1/tIR9Zhfabs1dhhY6VmkeKvTIq+dUoWP/fMnPM/uSY4Xm7l/affKOVVI9p3K3x5bw+4wq1FZMKdor7vGCZG3furVdPycdOnSw/uMf/7BL21FRUbbzfvSoNTU11fa5iIqyWq1Wa2hoaMH53LzZmpiYmL8tNjY2f73VarXGxMQUOf+XOnXqlO1cxMZec60ltW0Pffv2tfbo0cNu7U+bNs1av35968WLF8u9bUec09TUVOu4ceNs/13//PM11+rIc/rFF19Y3dzcrCdPnnTI8QAA14aA4+LKEnBK+kJf2nXjVDTQFLdP4RA0XQVhpyyP4tpNzF03Pff1WhUNU1YVhLWYMuxztUCyVpeHJqtsgefSwHWqFO0ZFXBuuOEG60cffWSXtseNG5f/BddqvfwLZ97rU6dOFXlfcV9MJVmnT59e7HHWrl1rDQ0NvaydsnDkl+Fp06ZZfX197db+kCFDrA8++KBd2rb3Oc0LTXmPks55aTjynO7fv98qybpt2zaHHA8AcG3oooZSmyTpPdm6rs0oYZ+Xc5dDZevu5VVOx/bLXY7OXeYN3S7cft592xeWYZ+reUvSi5I8Llm/Mnd5W6F1l+7jLDIzM3XmzBk1aNDALu1PmjRJ7733ntLS0jRjRkmfDMnDo+hvqKSuZqNHjy52/VtvvaUXX3zxsnacVYMGDXT48GFZrVa7tH/48GHVr1/fLm3b+5w2btxYVqtViYmJGjdunEaPHq3o6OjrL9zOGjRoIIvFot9//93oUgAAV0DAQZlES3pGJY9V8ZIUI9s4mhN2rOP9YtblfdWKK8M+V7JItp8zqJhtxbXtrDIzMyVJN9xwg92OER0drWeeeaZMs5vlfRnOmyY4KSlJkoqdinfRokUKDQ29bAyHM7vxxhuVnZ2t8+fP26X9M2fOqFatWnZpW7L/OZUkPz8/DR48WJLtHk3OrmrVqqpSpQr3wwEAJ+dmdAFwHYskDZOUKqlxCfukSzokabqkjpKOqvyu4kgFg/1DZQsp6cW0X5Z9SpIk6QfZrlq5unr16qlSpUpFBnuXp0WLFmnYsGFKTU1V48YlfTIu5+fnp9jYWCUnJ8tisSg0NFQxMTHq379/kf2SkpL0ww8/aNIk1zobR48eVZ06dVS1alW7tO/l5aWjR4/apW17n9PCbrvtthK3OZtTp04pOztb3t7eRpcCALgCruCg1CJyl1f6ujNf0igVdFGbUE7Hzpuh7MHc5YDcZUqhfTJyl4+WYZ/ipEv6WkXDTZJsM7nlmV1ovbNzd3dX3bp1dfDgQbu0HxFh+2SU5YuwZJsGukuXLho1apSsVqtiY2Mv+yKcnp6ur7/+uki4SUpK0vDhwy9tzukcPHjQbt0CJVt3KVc8p5fKm0ktJibm2op1oLzfd8OGDQ2uBABwJQScCqTw3+8zilmXfoV1UkG3tDQVnRI5Pbe98bIFG8nWFWy+bF25xuva5N3fPCO3rdBCNfTIff5qoRpXyXZl5t5S7lPSzz5UtrE+hae49ldBuJKk7rnL8SqYTju+0HZn+/odGBiob775xi5t53VhSktLU3JywScjPT39ileNwsLCVLt27fypiPMew4cPz3/v0KFDNXr06CLb/f399eCDD5bYbknyvkhf+txe4uPj1bFjR7u1HxgYqO3bt+d3QSxP9jqnYWFhmjFjhtLSbP/VZGRkaPr06Ro3btxVg1BxHH1O165dKw8PD5e66gQAFZKxcxzgepVlFjVd8ijLusIzmY3LnZksb1a11BL2L6md0taZqIKprWcXM5PZURVMTa3cmdHKsk9x9UUVsz7v8fMlbacW2j9KBdNQx6hss8c5Yha1Dz74wHrDDTdYs7Kyyr3txMRE2+di3Djr0aNH82fgunSmrNDQ0MveV3jK4cKPqKio/KmKiz0XZZxWuKR27OXYsWPWypUrWxcvXmy3Y6Snp1srV65sXbJkSbm3ba9zmjeNdN5j+vTp+VNKl5Wjz6nVarWGhIRY+/fvb9djAACun8VqtdMUP3AI34YNFfX77xprdCHlKO+moBXlgzlGUnzr1tqxZ4/djnHkyBE1adJE//nPf5xmMHdycrKqVat2WTeo5ORktWjRwm6zjznClClTNH36dB04cMCukzuEhIRIktasWWO3Y5SFmc/p3r171bp1a3322Wfq3bu30eUAAK6ALmpABVC/fn09+eSTmjJlirKzs40uR4sWLdJtt91W7BgPb29vlxiPUZLTp0/rzTff1PPPP2/XcCNJEyZM0Ndff62EhAS7Hqc0zHxOJemVV15Ry5Yt9fDDDxtdCgDgKgg4cColjf/B9fv3v/+t9PR0TZs2zehStHDhQkVHR+ePxciTnJyszz777JrGYziLcePGyWq1asSIEXY/VufOnRUcHKyRI0fabTrq0jLzOU1ISNCnn36qiRMnqlIl/tkEAGfH/6nhMJZSPApPvspErOWrUaNGmjp1qiZNmqTNmzcbWsv8+fNVq1Ytvfbaa/kD0cePH6+DBw/qqaeeKnU7lw5mL+nhKF999ZXefvttvf3226pdu7ZDjhkdHa3k5GSNH3+t03mUD7Oe01OnTikyMlJhYWHq06ePw44LALh2jMFxcWYcg1PROGIMTh6r1aqePXvqxx9/1MaNG3XzzTfb/ZgVRXJysu6++251795dH3/8sUOP/eGHH2rYsGH6/PPPGR9SjnJychQeHq7ExEQlJSWpbt26RpcEACgFruAAFYjFYtHHH3+smjVrKiQkRMeOHTO6JFNIS0tTSEiImjZtqnfffdfhx3/yySc1fPhwRUREaPXq1Q4/vhldvHhRkZGRSkhI0OLFiwk3AOBCCDhABePp6ak1a9YoOztb9913nw4dOmR0SS7tl19+Ubdu3VSnTh2tXLnS7hMLlOQ///mP+vfvr969e2vFihWG1GAW2dnZeuyxx7Rs2TItW7ZMAQEBRpcEACgDAg5QATVs2FBr165VTk6OAgICtGPHDqNLcknr1q1TUFCQ6tatq9WrV6tOnTqG1VKpUiV9+OGH6t+/v3r16qWZM2caVosr++OPP9StWzctX75csbGxCg4ONrokAEAZEXCACqpJkybatGmT2rRpo65du+r999936fuUONLFixc1bdo0de/eXSEhIVq3bp28vLyMLktubm6aM2eOpk6dqtGjR2vQoEE6deqU0WW5jPXr1+uuu+7S77//rs2bN+u+++4zuiQAwDUg4AAVmIeHh5YvX67nn39ezz77rHr06EGXtavYt2+funTpogkTJmjKlCmKiYlR9erVjS6riNGjR2v58uWKj49XmzZtnOZGoM4qKytLo0aN0r333it/f39t3bpVrVq1MrosAMA1IuAAFZybm5umTJmijRs3KjU1VS1atNDEiROVlZVldGlO5ezZs5o2bZratWunzMxMbdmyRS+88IJDpywuix49eujHH39UcHCw7r//foWGhiolJcXospxOXFycWrdurTlz5ui9997T0qVL5enpaXRZAIDrQMABIEkKCAjQzp079cILL2j69Olq1aqVYmJi9NdffxldmqFycnI0Z84cNW/eXFOnTtXEiRO1c+dO+fv7G13aVdWuXVsff/yxli5dqp9//ll33HGH/v3vf+vEiRNGl2a4LVu2qEuXLurVq5eCgoL0ww8/aNiwYUaXBQAoBwQcAPlq1KihCRMm6Oeff1bXrl01aNAgtWjRQrNnz1Z2drbR5TnUmTNn9NZbb6lZs2Z6+umn1bt3b/3yyy8aNWqU3N3djS6vTHr16qUffvhBr732mmbPni0fHx+NHDlSBw8eNLo0h7JarVq1apWCg4PVsWNH/fXXX9qyZYsWLFigRo0aGV0eAKCcEHAAXObmm2/W3LlztXfvXgUHB+u5555TkyZN9NJLL+mXX34xujy7+v777zVy5Ej5+Pho/Pjx6t27t/bt26e3337bpbsuubu76/nnn9dvv/2ml19+WZ9//rmaNWumAQMG6Ouvvzb1lboTJ07ov//9r/z8/NSzZ09Vq1ZN8fHx2rBhA1NAA4AJWaxMm+TSfBs2VNTvv2us0YXgmo2RFN+6tXbs2WN0KSU6cuSI3nnnHc2dO1eHDh1S586d9dhjjyksLEz16tUzurzrdvjwYS1dulTz5s3Ttm3b1KxZMz3xxBOKiorSTTfdZHR5dnH+/HnFxMRo9uzZ2rRpk3x8fPT444+rT58+at26tdHlXbdz587p66+/1oIFC7Rs2TJVqVJFffv21bPPPis/Pz+jywMA2BEBx8URcFyfKwScPBcvXtTq1av1v//9T3FxccrJyVGnTp3Uq1cvPfjgg2rZsqXRJZaK1WrVnj17tGLFCi1dulTbt29XzZo11bt3bz3xxBPq0qWL004eYA979+7VRx99pE8++USHDx9W48aN9eijjyo0NFQdO3ZUlSpVjC6xVI4cOaKvvvpKy5Yt0+rVq3Xu3Dl16tRJTzzxhPr06WPYTVgBAI5FwHFxBBzX50oBp7CzZ8/qyy+/1LJly7RixQqdOHFC9evXV9euXdWlSxd17txZrVq1corxKufPn9eePXu0YcMGrV+/Xt9++62OHTsmb29vhYWFqVevXurWrZuqVatmdKmGWrVqlfr3769GjRrJarXqp59+UvXq1dWxY8f883rnnXfqxhtvNLpUSdL+/fu1efNmrV+/XgkJCdq7d6+qVaume++9V7169VJYWJjq169vdJkAAAcj4Lg4Ao7rc9WAU9iFCxe0Y8cOJSQk5AeIzMxMVa1aVXfccYf8/f3Vtm1b3XrrrWratKl8fX3tEib+/PNPpaSkaP/+/UpOTtbu3buVmJion376STk5OapTp47uvvtuBQcHq2vXrvLz81OlSgxFtFqtev311/XSSy+pb9++mjNnjmrUqKGUlBStX79e33zzjdavX6/U1FRZLBb5+vrK399f/v7+atGihZo2baqmTZvapTvfhQsXdPDgQaWkpOjXX3/V999/r8TERCUlJSkjI0Pu7u6666671LVrV3Xt2lWdO3dWzZo1y70OAIDrIOC4ON+GDfW3339XL6MLwTX7RNIhFw84l7p48aJ++OGH/C+iiYmJ2r17t44dOyZJslgsatCggW655RZ5enqqbt26+cvq1avnf0GtVauW3NzcdP78eZ09e1aSbXazc+fO6dixYzp+/LiOHTumY8eO6cCBAzpy5Eh+DfXr11ebNm3Url07+fn5yd/fXy1btiTQXOLMmTMaMmSIli5dqsmTJ2vs2JL/XHLgwAF99913Rc5ramqqLl68KMl241gfHx95eXmpXr16+ee1evXqql27tiSpatWqqlGjhiTp5MmTkpR/fk+dOqU//vgj/5weOXJEaWlpysnJkSTVrFlTt99+e5Fz6ufnR6ABABRBwHFxvj4++i0tzegycJ3at2unHbt2GV2G3Z0+fTr/CktKSooOHz6cH1Tywkp2drbOnDkjScrMzNSFCxfk7u6eP36iVq1aqlatmurWrVskGDVq1Cj/6lDTpk350lsK+/btU3h4uI4cOaJFixapW7duZW7j/PnzSk1NzT+nBw4cUHp6ev75PH78uLKysnTq1ClZrVZlZWXp3Llzkmz36bFYLKpWrZqqV68uDw8PeXl55Z/XevXq5V8d8vX1lbe3d3n/CgAAJkTAAa7gjz/+ULdu3ZSWlqYPPvhA/fr1M7qkCmX79u0KCAhQSkqKfH19jS7HVFauXKmBAwfK19dXS5YskY+Pj9ElAQBQLuirAVxBvXr1tG3bNj322GOKiIhQZGRkflcpwBVZrVZNmzZNoaGheuihh7Rx40bCDQDAVAg4wFVUq1ZNs2bN0pIlS7Ry5Up16NBBiYmJRpcFlFlmZqYeeeQRjRs3Tq+++qrmz5+v6tWrG10WAADlioADlFKvXr2UmJgoLy8vBQUFadasWaKHJ1xFcnKygoKCtGHDBq1Zs+aKkwkAAODKCDhAGTRq1Ejx8fF6+eWX9cILL+jhhx/W8ePHjS4LuKK4uDgFBASodu3aSkxM1D333GN0SQAA2A0BByijypUra+zYsUpISNCePXt0xx13aPXq1UaXBVwmb7zNww8/rH79+mndunVq2LCh0WUBAGBXBBzgGgUFBem7777TPffcowceeEAjRozIv18HYLTTp08rPDxcEyZM0AcffKAPPvhAVapUMbosAADsjoADXAcPDw8tWrRIc+fO1Zw5c3T33XcrJSXF6LJQwe3du1eBgYHasWOHvvnmGw0dOtTokgAAcBgCDlAOIiMjtX37dp07d0533nmnFi1aZHRJqKA+/fRTdejQQZ6entqxY4eCgoKMLgkAAIci4ADl5Pbbb9fWrVuL3DPnzz//NLosVBAXL17Uv/71L0VERGjgwIGKj49X/fr1jS4LAACHI+AA5SjvnjmLFy/WihUr1KFDB+3evdvosmByx48fV48ePTRr1izNmTNHH3zwgdzd3Y0uCwAAQxBwADsIDw/Xd999p7p16yowMFCzZs0yuiSYVGJiou666y799NNPSkhI0BNPPGF0SQAAGIqAA9hJ48aNtW7dOo0dO1ajRo1SeHi4Tpw4YXRZMJGYmBh16tRJt9xyi3bs2KG77rrL6JIAADAcAQewIzc3N02cOFFr1qzR9u3b5e/vr2+//dbosuDiLly4oH/9618aMGCABg0apK+//lre3t5GlwUAgFMg4AAOEBwcrMTERPn5+Sk4OFgTJ07UxYsXjS4LLujYsWN64IEHNGvWLM2dO5fxNgAAXIKAAziIp6enYmNjNWPGDE2dOlX33XefDh06ZHRZcCG7du1Shw4d9Msvv2jDhg167LHHjC4JAACnQ8ABHMhisWjEiBHauXOnjh07Jn9/f8XFxRldFlzAggUL1LlzZ7Vq1Urfffed2rdvb3RJAAA4JQIOYIA77rhD27Zt04ABAxQWFsY9c1CivPE2kZGReu6557R8+XLddNNNRpcFAIDTIuAABqlevbpmzZqlzz//XHFxcQoICNCePXuMLgtO5I8//lBISIjeeecdffbZZ5o6daoqV65sdFkAADg1Ag5gsD59+igxMVEeHh7cMwf5Nm3aJD8/Px08eFCbN29Wnz59jC4JAACXQMABnICPj4/Wr1+vMWPGaOTIkerTp49OnjxpdFkwyOzZsxUcHKx27dpp+/btat26tdElAQDgMgg4gJPIu2fO6tWrtWnTJrVr104bN240uiw4UHZ2tp566ilFRUXpn//8p+Li4lS7dm2jywIAwKUQcAAn061bNyUlJemOO+7QPffco4kTJ+qvv/4yuizY2aFDh3TPPffo008/1f/93/9p6tSpqlSJ/0UDAFBW/OsJOKF69epp+fLlmj59ul577TWFhITo8OHDRpcFO9mwYYM6dOigEydOaMuWLQoPDze6JAAAXBYBB3BSeffM2bRpkw4cOCB/f3+tWLHC6LJQzmbPnq17771XHTp00LZt23T77bcbXRIAAC6NgAM4ufbt22vnzp3q3r27QkNDNWLECJ0/f97osnCdsrKy9OSTTyoqKkojR47UsmXL5OHhYXRZAAC4PAIO4AJq1aql+fPna+7cufroo4/0t7/9Tb/88ovRZeEaHTx4UF26dNEXX3yhJUuWMN4GAIByxL+ogAuJjIzU7t275e7urvbt22v27NlGl4QySkhIUIcOHZSZmamtW7eqV69eRpcEAICpEHAAF+Pr66uEhASNHDlSw4cPV9++fXXq1Cmjy0IpzJ49W/fdd5/uuece7dixQy1btjS6JAAATIeAA7ggd3d3TZw4UV9++aW+/fZbtWvXTps3bza6LJQgKytLjz/+uJ5++mlNmjRJMTExqlmzptFlAQBgSgQcwIWFhIQoKSlJLVu2VJcuXbgbeeFMAAAgAElEQVRnjhNKS0tT586dtXz5cq1atUpjx46VxWIxuiwAAEyLgAO4OC8vL61cuTL/njndu3fX77//bnRZkPTll1+qXbt2unjxorZv366QkBCjSwIAwPQIOIAJ5N0zZ8OGDdq/f7/8/f21atUqo8uqsKxWq6ZNm6aHHnpI3bt318aNG+Xr62t0WQAAVAgWq9VqNboIAOXn9OnTGj58uGJiYvTss8/qjTfeUJUqVYwu66qys7MVHByszMzM/HVZWVlKS0uTr6+v3N3d89d7e3trzZo1TtnV68yZMxoyZIiWLl2qyZMna+zYsUaXBABAheJmdAEAyteNN96oTz75RN27d9fTTz+tzZs3a+HChbr11luL3f/s2bPau3ev2rdv7+BKi6patarq1aunLVu26NK/u/z888/5zy0WiwIDAw0LNyNHjlR4eLjuvvvuy7bt27dP4eHhOnLkiL788kt169bNgAoBAKjY6KIGmFRkZKR27NihnJwctW/fXp988kmx+/3jH/9QeHh4kSsnRhk0aNBV97FarRo4cKADqrnctm3b9NZbb6lPnz46cuRIkW0rV67UXXfdJXd3d23fvp1wAwCAQQg4gIm1bNlSmzdv1uOPP67BgwcrMjJSZ86cyd8eExOjefPm6fDhwxoxYoSBldqEhoaqRo0aV9zH09NTXbp0cVBFBS5cuKAhQ4aocuXKOnnypB5++GHl5OTkj7cJDQ3VQw89pI0bN6pJkyYOrw8AANgwBgeoIJYtW6Ynn3xSnp6eiomJkYeHh9q2bas///wzv0vYF198oUceecTQOgcPHqxPP/1UOTk5l21zd3fXs88+qxkzZji8rmnTpunFF1/Mn4bbzc1Njz/+uI4fP664uDjG2wAA4CQIOEAFcvDgQQ0cOFDbtm1T06ZNlZycrAsXLkiSKlWqJA8PD/3000/y9vY2rMZVq1bpwQcfLHH79u3b1aFDBwdWJKWmpqply5bKysq6bFu9evW0ZMkSderUyaE1AQCA4tFFDahAGjVqpPj4eN177736+eef88ONJP311186c+aMhg4damCFtpuX1qlTp9htt9xyiyGTIURFRZV4A9VTp065xCx1AABUFAQcoIL59ttvtWrVKl28ePGybTk5OVqxYoXmzZtnQGU2bm5uioiIKDIttGTrnjZkyBCHz572ySef6KuvvtL58+eL3f7XX38pLCxM6enpDq0LAAAUjy5qQAXyxx9/6I477tCJEyeKDTh5atSooR9//FE+Pj4OrK7Ahg0bip2G+YcfftDtt9/usDpOnDih5s2b6+TJk5dNXV2Yu7u7AgMDtW7dOrm5Mfs+AABG4goOUEHkTa98/PjxK4YbyXYlZ9CgQSV2y7K3Tp06qWHDhvmvLRaL2rRp49BwI0mjRo1SZmbmFcNNng0bNujdd991QFUAAOBKCDhABfHLL7/o3LlzkmwTClzpSkNOTo42bdqkWbNmOaq8IiwWiwYPHpzfTc3NzU2RkZEOrSEhIUHz5s0rdjY3Sfm11a9fX8OHD9fOnTv13HPPObJEAABQDLqoARXMiRMntHbtWsXGxmrp0qU6c+aM3N3dS5yWeefOnWrTpo3D60xKSpK/v78kW+DZv3+/w7rMZWdnq3Xr1tq/f3+Rq11VqlTR+fPn5eHhoX79+mnw4MHq1KmTw8cFAQCAkhFwgAosJydH69evV1xcnJYsWaIDBw6oSpUqunDhgv766y+5ubmpVatW2rlz52WD/h2hefPm2rdvn4KCgrR582aHHXfixIl65ZVXZLVa5ebmposXL6pmzZrq27evBg4cqK5du6py5coOqwcAAJQeAQdwcrt379bevXsdcqwDBw5o586d2rZtm1JSUvLHnoSHh6t///4OqaGwxYsX69NPP9XQoUMVEhLikGMeOnRIL7zwgi5evCh3d3fddddd6ty5s/z8/AyZQMDPz08tWrRw+HEBAHBVBBzAyY0ZM0ZvvPGG0WXAIFOnTtXYsWONLgMAAJfBfKaAC6jSsr3Ov7fDuALOZ0m/75d8Wjn+2B+/IkX+P8ccK+uslJMt1brJMce7iioDfY0uAQAAl0PAAXB1VaoZE24kaeCLjjtWtZq2BwAAcFlMEw3AuVXm7zAAAKD0CDgAAAAATIOAAwAAAMA0CDgAAAAATIOAAwAAAMA0CDgAAAAATIOAAwAAAMA0CDgAAAAATIOAAwAAAMA0CDgAAAAATIOAAwAAAMA0CDgAAAAATIOAAwAAAMA0CDgAjHUqXYpfJL0UVj7tfTTe9gAAABWSm9EFAKjg/jdBin3/2t57NkN6qLa0zlq+NV2PsxlS6k9Syh5pc5w0JdboigAAqFAIOACM9c/3rj3gJCVcvu6JSddXz/X6dLptOX+ysXUAAFBBEXAAuKazGdKKaKOruFxewCLgAABgCMbgAGZ1NsM2tiXYYnssj7769lPptm2XjovZFGfb56UwKT1N+nFLwfvyHnk+m1GwLj3t6scqTnHtXrru0+m2ugpvu9J4nuv5eQEAgMsg4ABm9epg6bcfbONT1lmlX3YVHXz/6mDpz0zbtiVHbeNF3hhqCwJvDJUmRdi+6P+4RfpbqPRpqu31J69JtwdJb661tTN4XNExMH1H2dbNSZS8Gl/9WMVZcvTydZ+mFn1duCta3s9YuO7ifh/X+vMCAACXQcABzCh+ke3Lee9nC9Z1f0z6Ncn2/Lt42/bOvWyva3tJA1+0rdu6qujA+NuDbMu8sJI3XqbdvbYgM39y0aCS97yZX+mOVZzaXpevyzv+lZQ0oL88fl4AAOASCDiAGa1daFsWDgq3BxV8kf/m88u3+7Qq+t7S6NrHtiwcVJJ3Fqwvz2NdD2eoAQAAOAQBBzCj4rpoFVbcVYmaHqV7b2HN/GzduQqHhO/WFVy9Kc9jXQ9nqAEAADgEAQcwo7+F2pZ5XdJK2l7cQP+wqLIdq9uAgrEr6WlSywD7HetaOUMNAADAIQg4gBl1zP1CH/t+wZiY9DRp5nDb824DbMvDKQXvydvvnkfLdqw777Utv5onfb9J8utSdHt5HutaOUMNAADAIQg4gBl17mW7ahH7vvRQbduUx5+8Jj36T9v2wB627Z+8WnBVY+sq29WMdvcWvdKRFwQKTyRQeHttL9tkA7HvS8cOFXT9ylOWYxV+nndl5WCybfnjloJteUGt8JWZz2aU3FZ5/rylUdykCwAAwCEIOIAZ1faSXphjCx6SbfnoP6VGt9le1/Swbe8YKoV7F9xbZthU2zLcu6Cth2oXXV66XSqYVCAvcBRWlmMVfj7w37b2BrewdYG7Pcj2enyMNORl2z55U0Uv/q90/+CS2yrvn/dKgi1F35sXMAEAgENYrFar9eq7ATDKmDFjNCsuXuff22F0KXCwKgN99cpzURo7dqzRpQAA4DK4ggMAAADANAg4AAAAAEzDzegCAMAllHYczTp6/QIAYCQCDgCUBsEFAACXQBc1AAAAAKZBwAEAAABgGgQcAAAAAKZBwAEAAABgGgQcAAAAAKZBwAEAAABgGgQcAAAAAKZBwAEAAABgGgQcAAAAAKZBwAEAAABgGgQcAAAAAKZBwAEAAABgGgQcAAAAAKbhZnQBAK7ur8yT0jefGV0GHOyvc2eNLgEAAJdDwAFcwIVDKdLL/YwuAw52wegCAABwQRar1Wo1uggAKM727dsVEBCglJQU+fr6Gl0OAABwAYzBAQAAAGAaBBwAAAAApkHAAQAAAGAaBBwAAAAApkHAAQAAAGAaBBwAAAAApkHAAQAAAGAaBBwAAAAApkHAAQAAAGAaBBwAAAAApkHAAQAAAGAaBBwAAAAApkHAAQAAAGAaBBwAAAAApkHAAQAAAGAaBBwAAAAApkHAAQAAAGAaBBwAAAAApkHAAQAAAGAaBBwAAAAApkHAAQAAAGAaBBwAAAAApkHAAQAAAGAaBBwAAAAApkHAAQAAAGAaBBwAAAAApkHAAQAAAGAaBBwAAAAApkHAAQAAAGAaBBwAAAAApkHAAQAAAGAaBBwAAAAApmGxWq1Wo4sAgOzsbAUHByszMzN/XVZWltLS0uTr6yt3d/f89d7e3lqzZo0sFosRpQIAACfmZnQBACBJVatWVb169bRlyxZd+neXn3/+Of+5xWJRYGAg4QYAABSLLmoAnMagQYOuuo/VatXAgQMdUA0AAHBFdFED4DSysrLk6emps2fPlriPp6enjhw5osqVKzuwMgAA4Cq4ggPAaVSrVk3h4eFFxtsU5u7ursjISMINAAAoEQEHgFMZMGCAcnJyit2Wk5OjiIgIB1cEAABcCV3UADiVCxcuyMvLSydPnrxs2y233KLU1FQmGAAAACXiCg4Ap+Lm5qaIiIjLuqm5u7tryJAhhBsAAHBFBBwATiciIuKybmo5OTnq16+fQRUBAABXQRc1AE7HarWqUaNGOnz4sCTbvW9at26t3bt3G1wZAABwdlzBAeB0LBaLBg8enN9Nzc3NTZGRkQZXBQAAXAFXcAA4paSkJPn7+0uyBZ79+/fLx8fH4KoAAICz4woOAKfk5+enW2+9VZIUGBhIuAEAAKXiZnQBAJzHyZMntWbNGqPLyNe+fXvt27dPrVu31meffWZ0Ofl69uypmjVrGl0GAAAoBl3UAOTbvn27AgICjC7D6aWkpMjX19foMgAAQDG4ggPgcgtTpAZO8gX+41ekyP9ndBU2e7dLwwmAAAA4M8bgAHBuA180ugIAAOBCCDgAnFtlLjQDAIDSI+AAAAAAMA0CDgAAAADTIOAAAAAAMA0CDgAAAADTIOAAAAAAMA0CDgAAAADTIOAAAAAAMA0CDgAAAADTIOAAAAAAMA0CDgAAAADTIOAAAAAAMA0CDgAAAADTIOAAMM6pdCl+kfRSmNGVAAAAk3AzugAAFdj/Jkix79uv/bMZUupPUsoeaXOcNCXWfscCAABOgYADwDj/fM++AefT6bbl/Mn2OwYAAHAqBBwA5vXEJNuSgAMAQIXBGBwA1+9UurQpzjaW5myGNHO49NH4ots/myEFW2z7fBdfclvBloLHldYBAAAUg4AD4Pq9MdQWXDbF2ca8hEVJGcds206l27Z73iyts0p9npdGdpN+TSq+rSVHL1/3aar9agcAAKZCwAFw/QoP3vdpJTXzs42vkaRd8bbgc29/2+t299qW678ovq3aXpev82pcfrUCAABTI+AAKF81PYq+XrvQtry0mxnjYgAAgB0wyQAA+9oUZ1uusxpbBwAAqBC4ggPAMQ4mG10BAACoAAg4AOxr1GzbcvV82wxrUsGsagAAAOWMgAPg+p1KL3lb51625fzJ0kO1bWNwwr2lex4t+r7Cz8OibMu8qz4/binYNnN42WrLC1WXPgcAAKZEwAFw/cK9C56/FFZ0W20v2zTPg8fZXodF2V57NS76vsLPB/5b+luoNLiFbQzP7UG21+NjpCEvl76uYIstVOXJC1gAAMC0LFarlZG/ACRJ27dvV0BAgLQwRWrga3Q5zmfvdml4gFJSUuTry+8HAABnxBUcAAAAAKZBwAEAAABgGtwHB4DrKe04Gu69AwBAhUPAAeB6CC4AAKAEdFEDAAAAYBoEHAAAAACmQcABAAAAYBoEHAAAAACmQcABAAAAYBoEHAAAAACmQcABAAAAYBoEHAAAAACmQcABAAAAYBoEHAAAAACmQcABAAAAYBoEHAAAAACmQcABAAAAYBpuRhcAwAltXSnVrmd0Fc7n0K9GVwAAAK6CgAPgcrOeMboCAACAa2KxWq1Wo4sAgOJs375dAQEBSklJka+vr9HlAAAAF8AYHAAAAACmQcABAAAAYBoEHAAAAACmQcABAAAAYBoEHAAAAACmQcABAAAAYBoEHAAAAACmQcABAAAAYBoEHAAAAACmQcABAAAAYBoEHAAAAACmQcABAAAAYBoEHAAAAACmQcABAAAAYBoEHAAAAACmQcABAAAAYBoEHAAAAACmQcABAAAAYBoEHAAAAACmQcABAAAAYBoEHAAAAACmQcABAAAAYBoEHAAAAACmQcABAAAAYBoEHAAAAACmQcABAAAAYBoEHAAAAACmQcABAAAAYBoEHAAAAACmQcABAAAAYBoEHAAAAACmQcABAAAAYBoWq9VqNboIAMjOzlZwcLAyMzPz12VlZSktLU2+vr5yd3fPX+/t7a01a9bIYrEYUSoAAHBibkYXAACSVLVqVdWrV09btmzRpX93+fnnn/OfWywWBQYGEm4AAECx6KIGwGkMGjToqvtYrVYNHDjQAdUAAABXRBc1AE4jKytLnp6eOnv2bIn7eHp66siRI6pcubIDKwMAAK6CKzgAnEa1atUUHh5eZLxNYe7u7oqMjCTcAACAEhFwADiVAQMGKCcnp9htOTk5ioiIcHBFAADAldBFDYBTuXDhgry8vHTy5MnLtt1yyy1KTU1lggEAAFAiruAAcCpubm6KiIi4rJuau7u7hgwZQrgBAABXRMAB4HQiIiIu66aWk5Ojfv36GVQRAABwFXRRA+B0rFarGjVqpMOHD0uy3fumdevW2r17t8GVAQAAZ8cVHABOx2KxaPDgwfnd1Nzc3BQZGWlwVQAAwBVwBQeAU0pKSpK/v78kW+DZv3+/fHx8DK4KAAA4O67gAHBKfn5+uvXWWyVJgYGBhBsAAFAqbkYXAKB4u3fv1t69e40uw1Dt27fXvn371Lp1a3322WdGl2MoPz8/tWjRwugyDHHmzBkdO3ZMx48f19mzZ3X+/HlJyp9KvFKlSvLw8JBku1lszZo1VbduXdWtW1c1a9Y0rG4AgDHoogY4qTFjxuiNN94wugw4ialTp2rs2LFGl2EX6enp2r17t3799Vft379f+/fvV0pKig4fPqzjx48rOzv7mtuuXr266tatq5tvvllNmzaVr6+vfH191axZM/n5+emmm24qx58EAOAMuIIDOLH2VapoR+5fqyuqVyT9P6OLMJhvlSpGl1BuTp48qQ0bNmjLli1KTExUYmJi/mx5N954o3x9fdW0aVN16dJFjRo1kqenpzw9PVW3bl15enqqVq1acnOz/dNVu3ZtWSwW/fXXX8rIyJAknT9/XpmZmTp+/Hj+VZ9jx44pLS1N+/fvV2xsrPbv36+zZ89Kkho3bix/f3/5+/urY8eO6tSpk2rVqmXMLwcAUC4IOACc2otGF4DrkpWVpa+//lpr1qzR+vXrtWfPHlmtVrVs2VLt2rXTiBEj1K5dO/n5+cnLy+uajlGpUiXVqVMn/7W3t3f++K2SHD58WElJSfkhKyYmRq+88orc3Nx05513qkuXLurevbu6du162U1nAQDOjYADwKnxPynXc/r0acXFxWnp0qX68ssvdfbsWfn7+ys4OFgTJ05U586d5enpaWiNDRs2VMOGDdWjR4/8dUeOHFFCQoISEhK0atUqTZ8+XXXq1NGDDz6ohx9+WD179lT16tUNrBoAUBp8dwAAlIudO3dq9uzZWrhwoc6dO6egoCBNnjxZjzzyiBo1amR0eVdVv3599e3bV3379pUkpaam6quvvlJcXJwGDBig6tWrq1evXoqMjFS3bt1ksVgMrhgAUBymiQYAXLNz587pvffeU/PmzdWhQwd99913mjZtmv744w9t2LBBI0aMcIlwUxwfHx8NGzZMcXFxOnjwoCZMmKBdu3YpJCREfn5+mjdvnnJycowuEwBwCQIOAKDMTp8+rVdffVVNmjTRyJEjFRISoj179mjbtm16+umni4yJMQMvLy+NHDlS33//vbZu3ap27drpqaeeUrNmzTRz5kydO3fO6BIBALkIOACAUrtw4YI++OADNW/eXG+88YaefPJJ/fbbb3r33XfVunVro8tziICAAM2bN0/79u1T7969NX78eLVo0UILFiwQd14AAOMRcAAApZKQkCB/f38999xzGjBggH799Ve9+uqr8vb2Nro0QzRu3FhvvfWW9u3bp+7du+vxxx9XYGCgdu3aZXRpAFChEXAAAFeUlZWl0aNHKzg4WL6+vvr+++81c+ZMbpKZq379+oqOjtauXbtUo0YNBQUFadKkSbpw4YLRpQFAhUTAAQCUKDk5WR06dFB0dLTmzJmjuLg4NW/e3OiynFLbtm0VHx+v119/Xa+99po6deqkgwcPGl0WAFQ4BBwAQLHi4+PVsWNH3XDDDdq9e7eGDBlidElOr1KlSnr++ee1a9cunTlzRoGBgdqxY4fRZQFAhULAAQBcZuHChXrggQd0//33a926dfLx8TG6JJfSsmVLbdq0SW3btlXXrl21atUqo0sCgAqDgAMAKGLZsmV67LHHNGLECC1cuFDVq1c3uiSX5OHhoeXLl6tfv3565JFHlJCQYHRJAFAhuBldAADAeSQkJKhfv34aOnSoXn/9dVksFqNLcmmVK1dWdHS0zpw5o9DQUH377bdq27at0WUBgKlxBQcAIEk6fvy4BgwYoB49euidd94h3JSTypUra8GCBWrXrp369++vP//80+iSAMDUCDgATCld0iJJYU7anjMaNmyYLBaLPvzwQ1WqxD8P5alKlSpasGCBjh49qpEjRxpdDgCYGv+CATClCZIiJMVdsj5N0nBJltxl/HW2dyUZkrZIipbzB6N169Zp8eLFmjt3rsve3yY6OvqarjplZGRoy5Ytio6OVliY/c5Uo0aN9O677yo6Olp79uyx23EAoKIj4AAwpfeKWZchKSl32ylJXSV1U+lCS3HtXc10SSskDSvlMYz08ssvKyQkRN26dTO6lGuSlJSkYcOGXdN7p0+frhUrVmjYsGGKi7Pvmerbt6/uvPNOvfLKK3Y9DgBUZEwyAKDCSJAUmvvcQ1J/2a7KhEmy2uF4k3KXk+3QdnnauXOn1q9frw0bNhhdyjXJyMjQF198cc3vnzTJdqYmT7b/mbJYLHrppZfUu3dvpaamMv02ANgBV3AAk7h0jEicCrphpeWuW1TMujwZsnWlsuQ+xue2qULr8h4lrStNjXGFasw73nBJycXUk1evJXff9GvYp7DQEtZHFbOucNthxdRnJrGxsfLx8VGnTp3Kve2MjIz8rmMWi0Xjx49XerrtLKWnpysuLk5hYWHKyMjQ8OHDNX78+Pz3xsfHKywsTBaLRTNmzMh/36XmzJmjZ599ttxrt5eePXvKw8PD7leLAKCiIuAAJjFUBWNEkmT7Mr9Z0vuSXpNtLEh/SamF1hX2L9m6Uh3N3WeybONOJNvVjdm5z48WWoZKSlTpr354yxYW4nLreUq2rmKS1EJFQ8RgSZm5bR/Nfc9Q2YJHWfa5krz9Hixm22BJ63Pri5W0q5RtuqKVK1fqoYceskvb//rXvzRs2DAdPXpUqampmjx5siZMsH2yhg4dqrCwMMXFxemnn35SVFSUjh07JkmKi4tTt27d9OKLL8pqtermm2+Wt7d3flDKEx8fr06dOsnLy8su9duDu7u77r//fq1cudLoUgDAlAg4gEnEFnrul7sMyl2+X+h540LrCvOU7UqGVwn7PJW73Vu2qyTzJc0pdKzSKByE8urxUMEVlLy/Z8fnPu+V+9pL0ou561aVYZ+r2SlbSOtyyfq43Mc/c+uTpB6lbNMV7d27V+3bt7dL256enoqKipKXl5caN7Z9st5/3/bJio0t+NS2atVKfn5+eu8922invMH+QUG2T0r//v0l2cbLWK22T1J6erp+/fXX/H1cSfv27bV3716jywAAUyLgAJBkGy/ynmxd12aUsM/LucuhsgWD8vqbeV5IGp27/Dx3Wbj9VrnLhWXY52reki0UeVyyPu/v6rcVWnfpPmaRmZmpM2fOqEGDBnZpf9KkSXrvvfeUlpamGTNK+mRJHh5Ff8NRUcV1HJRGjx6d/3zZsmV66qmnyqdQB2vQoIEOHz6cH9YAAOWHgAMgX7SkZ1TyWBUvSTGyXd04Ycc6Lr26JBUEjLgy7HMli2T7OYv7239xbZtVZmamJOmGG26w2zGio6P1zDPPKDS0pE/W5fICzqJFiyTZZkmTbFdwJFsXtu7du5dzpY5z4403Kjs7W+fPnze6FAAwHWZRAyDJ9oV/mGzjbxqXsE+6pEOyTX/cUbZxL+U58iHvb/ahsoWU9GLaL8s+JUmS9IMKZjmryOrVq6dKlSqVOID/ei1atEjDhg1Tampqfhe10vDz81NsbKySk5NlsVgUGhqqmJiY/K5qV7pfjcVicforI0ePHlWdOnVUtWpVo0sBANPhCg4ASbYJCqSSw41kG3czSgVd1CZcYd+yyJtcIG+w/4DcZUqhffImBHi0DPsUJ13S1yoabpJkm8ktz+xC683O3d1ddevW1cGDB+3SfkSE7ZNVlnAj2a7QdOnSRaNGjZLValVsbGx+uJEkq9V62aPwNmd38OBBu3ULBICKjoADmEThv79nFLMu/QrrpIJuaWkqOptZem5742ULNpKtK9h82bpyjde1WVSo1vm5x8+roUfu81cL1bhKtisz95Zyn5J+9qGyjfUpPMW1v4rOpJbX8Wm8CqbTji+0vXAYupqMEp47k8DAQH3zzTd2aTuvW1paWpqSkws+Wenp6Ve8ahQWFqbatWvnz5qW9xg+fLhdrjZlZGQU+9xe4uPj1bFjR7sfBwAqIgIOYBLehZ7XLmad9xXWSQVXNKJz3z9OtrCQlft6cqF2Cx9jskp/H5zCWsk2ZXRt2a4azS+0zUO2GdpCc2vMa39qGfYp7uecoJLH57Qo9LyxbF31bpbkI1ugaZ17rBgVTLZwNRZd/ju7lt+VvYWGhmrNmjXKzs4u97bzbqIZHR2t2rVra9y4cYqKilJWVpa8vQvO0qVdzhITE4sds/P+++/nTzNdXiwWi2rXLjhTecHKXo4fP64tW7aoZ8+edjsGAFRkFqsrXMsHKqAxY8YoftYs7TDZIOS8r438j6f0fKtUUdQrr2js2LF2af/IkSNq0qSJ/vOf/2jYsGF2OUZZJScnq1q1alqeC0oAACAASURBVJd1bUtOTlaLFi1cohtaSaZMmaLp06frwIEDdp3cAQAqKq7gAEAFV79+fT355JOaMmWKXa7ilNWiRYt02223FTtux9vbWzExMQZUVT5Onz6tN998U88//zzhBgDshIADwGFKGv8D4/373/9Wenq6pk2bZnQpWrhwoaKjo5WWllZkfXJysj777LMikw24mnHjxslqtWrEiBFGlwIApkXAAVAuLKV4lDT+x9WU5md1xrE2V9KoUSNNnTpVkyZN0ubNmw2tZf78+apVq5Zee+21/MkFxo8fr4MHD5bpxp6XTlBQ0sNRvvrqK7399tt6++23i4z5AQCUL8bgAE7KrGNwUHb2HoOTx2q1qmfPnvrxxx+1ceNG3XzzzXY9XkWSnJysu+++W927d9fHH39sdDkAYGpcwQEASLJd8fj4449Vs2ZNhYSE6NixY0aXZAppaWkKCQlR06ZN9e677xpdDgCYHgEHAJDP09Mzf8ro++67T4cOHTK6JJf2yy+/qFu3bqpTp45WrlzJxAIA4AAEHABAEQ0bNtTatWuVk5OjgIAA7dixw+iSXNK6desUFBSkunXravXq1apTp47RJQFAhUDAAQBcpkmTJtq0aZPatGmjrl276v3333fpe8840sWLFzVt2jR1795dISEhWrdunby8vIwuCwAqDAIOAKBYHh4eWr58uZ5//nk9++yz6tGjB13WrmLfvn3q0qWLJkyYoClTpigmJkbVq1c3uiwAqFAIOACAErm5uWnKlCnauHGjUlNT1aJFC02cOFFZWVlGl+ZUzp49q2nTpqldu3bKzMzUli1b9MILLzh0GmoAgA0BB/+fvbuPq/F+/Af+OtVJSYrSDakVIuJEPlZuCm1oVO6GSNhIzTZzN2Z82Wy/3Xwy29iY2j7D5ibbqNzNiGLktjI3iUqxk+6sG5Huzu+Ps04ilDrnOuf0ej4ePU6uc851vTrH5ry63u/3RUT0TP369cO5c+ewaNEihIaGwsnJCdu2bUNVVZXQ0QRVXl6O8PBwdOnSBZ9++ilWrlyJc+fOwcXFRehoRETNFgsOERHVS8uWLbFixQpcvXoVnp6eCAgIQNeuXbFx40Y8ePBA6HgqdffuXXz55Zfo1KkT3njjDYwdOxbXrl3DggULIBaLhY5HRNSsseAQEVGDdOjQAT/++COSk5MxZMgQvP3223jhhRfw/vvv49q1a0LHU6qLFy9i/vz5sLOzw/LlyzF27Fhcv34d69atg7m5udDxiIgILDhERPScunTpgo0bN+LGjRuYOXMmNm/ejK5du8LDwwPff/89cnNzhY7YJKRSKb799lu8+OKL6NmzJ6KiorBgwQJkZGTgyy+/hK2trdARiYjoISw4RETUKFZWVli1ahVu3LiBvXv3wsrKCm+++Sasra3h6emJL774AsnJyULHrDeZTIYLFy7gk08+wYsvvggbGxssXrwY3bp1w9GjR3Ht2jUsXboUbdu2FToqERHVQU/oAEREpB10dXXh7e0Nb29vlJSU4MCBA4iMjMTHH3+MBQsWwMrKCp6envDw8MDAgQPh5OSkFvNVysrK8Ndff+H48eOIjY3FsWPHkJeXB0tLS/j6+uL//u//4OXlBQMDA6GjEhFRPbDgEBFRkzMyMsK4ceMwbtw4VFRU4OzZs4iLi0NsbCyWLFmC4uJitGjRAj169ICLiwt69eqFzp07w8HBAfb29kopE/fu3UNaWhrS09ORkpKCCxcuIDExEVeuXEF5eTnatGmDQYMG4f3334enpyckEgl0dDjQgYhI07DgEKmxf6qqECF0CBJciYYvxaynpwc3Nze4ubnh3XffRWVlJS5duoTExEQkJSUhMTERUVFRyMvLAwCIRCJYW1ujY8eOMDc3h5mZmeLW0NAQRkZGAABjY2Po6emhrKwMJSUlAOSrm92/fx95eXnIz89HXl4e8vLycPPmTdy+fVuRycrKCj179sSIESOwePFiuLi4oFu3biw0RERagAWHSI2lVVRgotAhSHgVFUInaFK6urro1asXevXqVWt7UVGR4gxLWloapFKpoqikpKQgLy8PDx48QGFhIQD5GZmKigqIxWK0atUKgLz0GBgYwMzMDGZmZrC0tET37t1hY2OjODvk4OCgKElERKR9RDKZTCZ0CCKi+urXrx/69++PL7/8UugoJJCQkBBcvXoVMTExQkchIiI1xHPxRKRRXFxckJiYKHQMEpBUKoW1tbXQMYiISE2x4BCRRpFIJEhKSgJPPjdfUqkU7du3FzoGERGpKRYcItIoEokEBQUFyMzMFDoKCSQrK4tncIiI6IlYcIhIo0gkEohEIg5Ta6aqqqqQnZ3NgkNERE/EgkNEGsXY2BgODg5ISkoSOgoJICcnBxUVFRyiRkRET8SCQ0Qax8XFhQWnmZJKpQDAgkNERE/EgkNEGkcikXCIWjOVlZUFAByiRkRET8SCQ0QaRyKRID09XXHBR2o+pFIpjI2NFRf2JCIiehQLDhFpHBcXF8hkMly4cEHoKKRiWVlZHJ5GRERPxYJDRBrH1tYWZmZmnIfTDLHgEBHRs7DgEJFG6tmzJwtOMySVSjn/hoiInooFh4g0kouLCxcaaIZ4BoeIiJ6FBYeINJJEIsHFixdRUVEhdBRSIZ7BISKiZ2HBISKNJJFIUFpaipSUFKGjkIpUVVUhOzubBYeIiJ6KBYeINFKPHj2gr6/PYWrNSE5ODioqKjhEjYiInooFh4g0kr6+Prp168aFBpoRXuSTiIjqgwWHiDQWFxpoXqRSKQDwDA4RET0VCw4RaSyJRMKC04xIpVIYGxujVatWQkchIiI1xoJDRBpLIpEgJycHt2/fFjoKqQCXiCYiovpgwSEijeXi4gIAPIvTTGRlZXH+DRERPRMLDhFpLDMzM9jY2HChgWZCKpXyDA4RET0TCw4RaTSJRMKC00xwiBoREdUHCw4RaTSupNZ8SKVSDlEjIqJnYsEhIo0mkUiQkpKCe/fuCR2FlKiqqgrZ2dksOERE9EwsOESk0SQSCSorK3Hp0iWho5AS5eTkoKKigkPUiIjomVhwiEijde7cGa1ateIwNS2XlZUFADyDQ0REz8SCQ0QaTUdHBz179uRCA1pOKpUCAM/gEBHRM7HgEJHG40ID2k8qlcLY2BitWrUSOgoREak5Fhwi0ngSiQQXLlxAVVWV0FFISbhENBER1RcLDhFpPIlEguLiYqSnpwsdhZQkKyuL82+IiKheWHCISOP17NkTOjo6HKamxaRSKc/gEBFRvbDgEJHGMzIyQpcuXRQLDZSUlCA+Ph7fffcdYmJiBE5HDZWYmIhLly7hzp07im0cokZERPWlJ3QAIqLG+Pvvv5GUlARjY2NERERgy5YtyMjIgEwmAwBs3bpV4ITUUOHh4fjmm28AAPr6+mjXrh2Ki4tRUVGBuXPnwtraGu3bt0f79u3Rp08ftG3bVuDERESkTkSy6k8BREQa4tSpU3jvvfdw/vx5FBYWApB/EK6oqHhsoYFz586hT58+QsSk57Rjxw5MmjTpse0ikQhisRgikQjl5eUQi8VIT0/n3BwiIqqFZ3CISONIJBKkpKSgqKhIsa2srOyxx4lEIjg6OqoyGjUBDw+POrfLZDLF+ywWixEYGMhyQ0REj+EcHCLSOAYGBvjiiy/wrBPQFhYWvG6KBrK2toatre1TH1NZWYlFixapKBEREWkSFhwi0kgTJkxA//79oaf35BPR3bt3V2EiakovvfQSxGJxnfeJxWKMGTMGXbp0UXEqIiLSBCw4RKSx1q1bh8rKyjrv09fXh7Ozs4oTUVMZNGjQE9/b8vJyvPfeeypOREREmoIFh4g0Vu/evTF9+vQ6f9Mvk8nQtWtXAVJRU/Dw8HhswQgA0NPTw+DBg+Hq6ipAKiIi0gQsOESk0T755JM6C055eTkLjgZzcHCApaXlY9srKirw/vvvC5CIiIg0BQsOEWk0S0tLLFu2DLq6uo/d161bNwESUVMZMmRIrTlWOjo66NGjB7y8vARMRURE6o4Fh4g03oIFC2BjY1Or5BgYGKBDhw4CpqLG8vDwqLVSnkwmw4oVKyASiQRMRURE6o4Fh4g0nr6+PlavXl1rUnrnzp35QVjDeXh4KN5TkUgEGxsbjB07VuBURESk7lhwiEgrjBs3DgMGDICenh50dHTQs2dPoSNRI3Xv3h2mpqYA5MPTnjQUkYiI6GEsOESkNdauXYvKykrIZDLOv9ECIpEInp6eAABTU1MEBgYKnIiIiDTBk6+QR0T0nPbt24e7d+8KcuzBgwfjyJEjuHPnDiIiIgTJUB8SiUSwVd6EfH8aysTEBAAwbNgwREVFCZymbiNHjoSRkZHQMVROJpMhPz8feXl5KCkpQUFBAWQyGcrLyxV/v1q0aIGWLVsCAIyNjWFkZAQzMzOYm5s/8UKuRESNJZI9PIOTiKgJdHzBHrcybggdQ619+umnWLx4sSDH5vvTtNLS0mBvby90jCZXVVWF69ev4/Lly0hLS0N6erriKzc3F3l5eWjMR4jWrVvD0tISHTt2hIODA+zt7WFvbw9HR0c4OzujRYsWTfjTEFFzwjM4RNTkKmUAgj4F/IX5AI8docDoN4AWLYU5/jPoTxH2w7Dg709DVFUC2z4DpiwVOsnjks8AIf2ETtFkrl+/jmPHjuHs2bNITEzEhQsXFGdirK2tFSXE1dUVFhYWMDc3h4WFBczMzGBsbKyYLyUWi9GqVSsAQGlpKe7fvw8AKCkpQXFxMfLy8pCfn4/c3FxkZ2cjIyMD6enpOHz4MG7evImKigqIxWI4OTnBxcUFvXv3xqBBg+Di4sI5WERULyw4RKR9Xp0H6PCDkFbQ0QUmvSt0Cq10+/ZtREdH48iRI4iNjYVUKoWhoSF69+4NFxcXTJ8+HS4uLujRo4dimFlDGRgYwMDAAADQpk2bZz6+oqIC165dQ2JiIhITE5GQkIC9e/ciPz8frVu3xqBBg+Dp6YlRo0bBycnpuTIRkfZjwSEi7cNyo110+U9VU0lNTcWvv/6K3bt349SpUzAwMMCgQYMwZ84ceHh4oF+/ftDX1xcsn56eHpycnODk5AR/f38A8rk+ly5dQmxsLOLi4hAaGop3330Xjo6OGD16NMaMGQM3NzfBMhOR+uG/GkRERFqstLQU0dHR2LhxIw4fPow2bdpg5MiRmDdvHry9vRXDydSVSCSCs7MznJ2dMWfOHFRVVSEhIQHR0dGIiIjA559/DkdHR/j7+2PGjBmws7MTOjIRCYzLRBMREWmhjIwMzJ07FxYWFpg6dSratGmDvXv3IicnB5s3b8arr76q9uWmLjo6OnB1dcXKlStx+fJlnD9/HsOHD8fatWvRqVMnjB07FvHx8ULHJCIBseAQERFpkcuXLyMwMBBdunRBZGQkPvjgA/z999+IiIiAt7e31k3U7927N77++mtIpVL8/PPPkEqlcHd3x+DBg/H7778LHY+IBMCCQ0REpAVycnIQHBwMiUSC8+fPIzw8HNeuXcO8efNgZmYmdDyla9GiBSZOnIj4+HgcOXIEhoaGGDFiBF566SUkJSUJHY+IVIgFh4iISINVVlYiNDQUXbp0wZ49exAeHo4LFy4gMDCw2V5Mc/Dgwdi/fz+OHTuG4uJiuLq6IigoCAUFBUJHIyIVYMEhIiLSUKmpqfD09MSyZcswf/58pKSkYNq0adDR4T/vADBw4EDEx8dj8+bNiI6ORq9evXDo0CGhYxGRkvH/gERERBrop59+gkQiQUlJCc6cOYMVK1Y89/VqtJlIJMLkyZNx8eJFuLm5YdiwYViwYAEqKyuFjkZESsKCQ0REpEFkMhnef/99BAYGIjg4GKdOnULPnj2FjqX2zMzMEBERgc2bN2P9+vXw8fFBUVGR0LGISAlYcIiIiDREZWUlJk+ejNDQUPzwww8IDQ0V9MKcmiggIACxsbFITEzEgAEDkJOTI3QkImpiLDhEREQaQCaTYebMmYiKisLvv/+O6dOnCx1JY/3nP//B6dOn8eDBAwwfPpyLDxBpGRYcIiIiDbBo0SJs3boVv/76KwYPHix0HI1nY2ODP/74A/n5+Rg1ahTKysqEjkRETYQFh4iISM1FR0fjiy++wA8//IARI0YIHUdr2NnZ4eDBg7hw4QKWLl0qdBwiaiIsOESkHX5YLv8i0jJZWVl4/fXXMW3aNEyZMkXoOFqnW7duWLduHdasWYM//vhD6DhE1ARYcIiISHuVFAJDREKnaJQPP/wQLVu2xNq1a4WO0iBJSUkQiUSKr5CQkAbvo7CwEPHx8QgLC4Ovr68SUsoFBgZizJgxmDdvHqqqqpR2HCJSDT2hAxARNYnXVgmdgNRRUpzQCRrl5s2b+N///od169ahVatWQsdpkNOnT9f68yuvvNLgfYSGhgIAPvrooybJ9DSffPIJunfvjp07d2LixIlKPx4RKQ/P4BARkXYqKQT2hgmdolG++eYbWFlZYdq0aUJHaTArKyvIZDLFl4+PT4P3sWrVKqxapZpfXnTp0gUTJkzAmjVrVHI8IlIeFhwiUl+X4+XDix7+qhaxumbb1bNAzHbg/TqGsBTk1Dz2fV8gIQbIyay9z4jVj2+rPtbDx8nJVM3PrU4KcoAT0TWv7Z4w+WuxJgS4lfL4Yx99rR/dR0mh/Lk/LJdvf/h9OxFds+/q1zpm++PbgLr/Tjy6bUeofJ8P3/esrGomMjISEydOhFgsbvJ9FxYWIiwsTDGEbPny5YprwuTk5CA6Ohq+vr4oLCxESEgIli+vmeMWExMDX19fiEQirF69+rFryWRmZsLX1xfLly9HfHx8k2dXlilTpuD06dOQSqVCRyGiRmDBISL11d0N+OKw/Pupy4Ajspr7JiyQbwtPBDZ/CKzyr/kwW60gB/jvTMC8g/y5498B5nsBxf8AOzJq78vCVv6Y/v/+lnlXds191X+2sFXOz6nOxljKC8CJaHnhHDUL2PPvNUOmdq0pOU96rVOT5Nur95FxBfANBgrz5Nur37fUJPlr/81JIGoD8PMn8uMNnSR/r6q3Vat+fx728HsK1B62eERW8/fnaVnVSFpaGpKTkzFy5Eil7H/JkiUICgpCdnY2MjIy8NFHH2HFihUAgJkzZ8LX1xfR0dG4cuUKgoODkZeXB0C+opuXlxeWLl0KmUyGDh06wNLSUlGUAPn8G0A+tMzd3R2+vr4acUHNIUOGwNDQEL///rvQUYioEVhwiEi99R4qLzJbPpL/9r9a9fedJMDHUXU/93yM/MPz0Ek1+wKA2F/kZWXBRvmf6/pgK02T395KAUJCAVOLxv8smujhUtndTX5rZCIvKUBNqXzaa/3w+2PnJH/P5q2vvb2TpPYxojbUfF9dLKM21Dy+rvejvgX0aVnVSHJyMgDA1dVVKfs3NzdHcHAwLCwsYGsrf+02bJC/xlFRNe+Nk5MTJBIJ1q9fDwCKyf5ubvL3Z9Ik+esYGhoKmUz+98XHxwcFBQVITEzEsmXLEB0djcjISKX8HE3J0NAQ3bt3V7z2RKSZWHCISP15jpffntpfsy3lXM32Jzm8VX776NClLf9OWHbxlN+eOyS/vZUi/60+AMTvld9mXgWcBzQuvzaqLiTrF8pvn/VaVzMyUU2+p6lvVoFlZWXB2NgYRkZGStn/qlWrsH79emRmZmL16tVPfJyJSe33LDg4uM7HLVy48LHnSSQSrFq1Chs3bkR0dHSdz1M37du35xA1Ig3HgkNE6q+TRD58qfqDKQAkHKn5kP0k1WcXqocnPfwFADaO8jMR6xfKzwilnJf/2Te45ozRqX1Aewfl/Fza5FmvtTrRkKzFxcUwNjZW6jHCwsLw5ptvNmgBgOqCs337dgA1w9GqVzyry4QJEzSm4LRu3RpFRUVCxyCiRmDBISLN4DW5Zh5ITibQrV/9n/voZPiHvfjv0rUp5+QFqpOkZlv1GaPmOjytPnwf+W3+015rdaPmWS0sLJCbm6u067Js374dQUFBWLduHRwdHev9PIlEgqioKPz999+KxQm2bduGBQsWPPE5JiYmTzzzo25u374NKysroWMQUSOw4BCRZujz7zyJ3zcBF08AEo9nP6d6js3BLTVzdqpXz6pWvZ/5XoC7T+1tq/wBiWfjs2uj6nJQXQbr81qrCw3Jam1tjfLycqVNzvf39wcAxfyb+oqOjoaHhwcWLFgAmUyGqKgoxTycJyksLMSrr7763FlV6e+//4a1tbXQMYioEVhwiEgzmFrIFxuI2gDk/V17LkdBTt3fD/ST3275CBhlKp9rMcYSGPzQBy0jE/kiAgDg1K9m29Rl8u8d+zT9z6KpYuRDklBSKC8H/X1qVp172mtd8IQP6A9vf7hoPHr/k97f6rNH1WXr8kPLEa8Jkd9W53u4wNTn74UacHV1hb6+Po4cOaKU/VcPS8vMzERKSs3ZrJycnKeWKl9fX5iamipWTav+CgkJQU5ODrZv346YmJpltzMzMxEXF4ehQ4c+V87CwsI6v1cGqVSK5ORkxQIKRKSZWHCISHNULyrQ/5H5AmMs6/7e1EK+dHB1WfENlv/50dW2XF+S7/PhOT1u/y7Na1P/oTtaz85JvtzzKFP5a7h0S819T3utH35PHr5W0cPbR5k+vq36+ye9v1Pek79vU7vKhy92d5P/efk2YMYH8sdULxX921pg2NRnZ1UjrVu3xqBBg7Bnzx6l7L/6ApphYWEwNTXFsmXLEBwcjNLSUlha1rzO1aumVUtMTKxzzs6GDRuwYsUKGBkZwcvLSzF87Z9//nmui3wCgEgkgqmpqeLP1cVKWfbu3YuWLVti8ODBSjsGESmfSFa9piMRURNpb2ePrBHBgP9ioaOoJf0p9vjw7WAsXizM69Pg96d6lTE1m4QvuOQzQEg/pKWlwd7eXimH+O677zBv3jykpqaqzbCplJQUGBgYPDa0LSUlBV27doWmfqyQyWRwdXVFt27dsHXr1mc/gYjUFs/gEBERqanp06fDzMwMn332mdBRAMgXJnB0dKxz3o6lpSW2bdsmQKqmsXv3biQmJmLJkiVCRyGiRmLBISKiJ3vS/BdSiRYtWmDp0qXYsGGDYjlmIW3duhVhYWHIzMystT0lJQURERHPXGxAXd29exeLFy/GhAkT0KtXL6HjEFEjseAQEdGTPWn+C6nM7Nmz0b9/f0yePBn37t0TNMuWLVtgbGyMTz75RLG4wPLly3Hr1i3MmjWr3vt5dIGCJ32pyttvv41//vkHa9asUdkxiUh59IQOQEREaozzbgSno6ODH3/8ERKJBLNnz8amTZugoyPM7ydNTEwwadIkTJo0CevXr3/u/ajTPJ2wsDD8+OOPiIyMVJt5TkTUODyDQ0REpOZsbW2xY8cO7Ny5E2+//bbQcbTGjh07EBISgpUrVz73Sm9EpH54BoeIiEgDDBs2DFu3bsXEiROho6ODNWvWQFdXV+hYGuunn37Ca6+9hrlz5+L//u//hI5DRE2IZ3CIiIg0xNixY7Ft2zaEh4fD19cXRUVFQkfSODKZDMuXL0dgYCDmzZuH0NBQoSMRURNjwSEiItIg48ePx9GjR5GQkAA3NzecO3dO6EgaIzs7G76+vvj8888RHh6Ozz77TKWLGRCRarDgEBERaZh+/frh9OnTsLKygru7Oz788ENUVFQIHUut/frrr3B2dsalS5cQExOD1157TehIRKQkLDhEREQayMbGBocPH8a6devw+eefo2fPntizZ4/QsdROSkoKJkyYgPHjx8Pb2xtJSUkYMGCA0LGISIlYcIiIiDSUSCRCUFAQEhMT0a1bN/j4+MDb2xsXLlwQOprgsrOz8fbbb8PZ2RlXr17F4cOHsXnzZhgbGwsdjYiUjAWHiIhIw3Xu3Bm7du3CkSNHkJOTAxcXF4wcORJxcXFCR1O569evIzg4GC+88AJ27tyJb7/9FufPn8fQoUOFjkZEKsKCQ0REpCUGDx6Ms2fPIjo6Gnfv3oWnpydefPFFhIeHa/WKaxUVFYiOjsaYMWPQrVs3HDp0CF988QXS0tIwc+ZMLqdN1Myw4BAREWkRkUiEkSNHIjY2FidOnEDnzp3x1ltvoX379pg2bRoOHjyIsrIyoWM2mkwmw7lz57B48WLY2tpi9OjRKCoqwrZt23D16lWEhITA0NBQ6JhEJABe6JOIiEhLubu7w93dHQUFBdi2bRt+/PFHDB8+HCYmJvD29sbo0aPx0ksvwczMTOio9XL//n0cP34ckZGRiIqKws2bN/HCCy9g1qxZmD59Ouzt7YWOSERqgAWHiIhIy5mamiIkJAQhISG4du0aJk+ejISEBPzyyy+orKyEs7MzPD09FUPaOnbsKHRkAMA///yDM2fO4NixYzh69ChOnz6NsrIyuLi44LXXXoOfnx969+4tdEwiUjMsOERERM2EVCrFlClTkJaWhl9++QV9+vRBXFwcYmNjERsbi/Xr16OyshJt27ZF7969IZFI0KNHD3Tq1An29vawsbGBjk7Tj27Pzc1FWloa0tLScOXKFSQlJSEpKQkZGRkAgC5dusDT0xOzZ8/G4MGDYWNj0+QZiEh7sOAQkXKkXgCORgidQi1V3S8ROgLfn6bwd6rQCRokISEBfn5+MDQ0xIkTJ9C1a1cAgI+PD3x8fAAARUVFSExMRGJiIpKSknD06FF8++23KC0tBQDo6+vjhRdegKWlJczMzNCuXTu0a9cOrVu3RqtWrSAWiyESiWBqagoAKCkpQVlZGWQyGQoKCnDv3j3k5+cjLy8POTk5yM3NxY0bN3D37l0AgJ6eHhwcHCCRSDB79mxIJBL07t0b1tbWArxiRKSpRDKZTCZ0CCLSLnYv2CMz44bQMdTap59+isWLFwtybL4/TSstLU3t537s3LkT06dPx6BBg7B9+3ZFAamvrKwsxRmW9PR05ObmIj8/H7m5ucjLy0NRUZGizFRVVaGwvOgS/gAAIABJREFUsBAAYGRkBH19fejo6MDExASGhoYwNzevVY5sbW3h4OAAe3t72NraQk+Pv3slosZhwSEiakL79+/H2LFj8fLLL2Pr1q1o1aqV0JE00uLFixETE4MzZ84IHUWjyWQyfP7553jvvfcwa9YsfPPNNywQRKT1uEw0EVET8vb2xpEjR3D69GkMGDAAmZmZQkeiZqq0tBQBAQFYtmwZ1q5di++++47lhoiaBRYcIqIm5ubmhpMnT6KiogJubm44d+6c0JGomZFKpfDw8MCBAwdw8OBBzJkzR+hIREQqw4JDRKQE9vb2iI+Ph4uLCzw9PREZGSl0JGomEhIS4ObmhsLCQpw4cQJDhgwROhIRkUqx4BARKYmxsTGioqIwbdo0jBs3Dp999pnQkUjL7dy5EwMHDkT37t1x6tQpxUppRETNCQsOEZES6enp4ZtvvsHq1auxdOlSBAUFoby8XOhYpGVkMhk+++wzTJw4EQEBAdizZ0+DV0ojItIWnG1IRKQCc+fOha2tLQICAnDjxg3s3LkTJiYmQsciLVBaWorXX38dERERWLt2LefbEFGzxzM4REQqMmbMGPz555+4cuUKBg4cqLhKO9Hz4mICRESPY8EhIlIhFxcXxMfHQywWw83Njdd5oefGxQSIiOrGgkNEpGIdOnRAXFwc+vbtCw8PD2zbtk3oSKRhuJgAEdGTseAQEQmgVatW2L17N2bNmoUpU6Zg5cqVQkciDcDFBIiIno2LDBARCURXVxdff/01nJ2dMWfOHNy8eRMbNmyAWCwWOhqpIS4mQERUPyw4REQCCwoKgq2tLSZOnIiMjAz88ssv/K081SKVSjF69Gikpqbi4MGDnG9DRPQUHKJGRKQGRowYgWPHjuHatWv4z3/+g5SUFKEjkZrgYgJERA3DgkNEpCZ69eqFkydPwsTEBP3790dcXJzQkUhgXEyAiKjhWHCIiNRI+/btERsbi4EDB2LYsGH46aefhI5EAuBiAkREz48Fh4hIzRgZGWHXrl1YsmQJAgMDsXLlSshkMqFjkYqUlpYiICAAy5Ytw9q1a/Hdd99BT49TZomI6ov/xyQiUkMikQgrV66EjY0N3njjDSQnJ+PHH3+EgYGB0NFIibiYABFR4/EMDhGRGps5cyb27t2LAwcOwMvLC7m5uUJHIiXhYgJERE2DBYeISM29/PLLOH78OKRSKdzd3ZGcnCx0JGpiXEyAiKjpsOAQEWkAZ2dnnDlzBlZWVhgwYACOHj0qdCRqAlxMgIio6bHgEBFpCHNzcxw6dAjDhw/H8OHDsWnTJqEjUSNwMQEiIuXg/0mJiDSIgYEBfv75Zzg6OmL69Ok4f/481qxZAx0d/r5Kk3AxASIi5WHBISLSMNUrrNna2iI4OBhSqRSbN2+GoaGh0NGoHhISEuDn5wdDQ0OcOHGC822IiJoYf+VHRKShXnvtNezfvx+HDh3C0KFDkZ2dLXQkegYuJkBEpHwsOEREGszLywtnzpzBnTt34O7ujsuXLwsdierAxQSIiFSHBYeISMN17twZJ06cQMeOHeHm5oZ9+/YJHYkewsUEiIhUiwWHiEgLmJmZ4eDBg/Dz84Ofnx++/fZboSMR5IsJeHh44MCBAzh48CDmzJkjdCQiIq3HXyEREWmJFi1aYPPmzejUqRPefPNNXL16lSusCYiLCRARCYP/6hERaZHqFda2bduGjRs3Yvz48bh3757QsZodLiZARCQcFhwiIi00ceJEHD58GMePH8eAAQNw69YtoSM1C1xMgIhIeCw4RERaqn///jh58iRKS0vh5uaGhIQEoSNpNS4mQESkHlhwiIi0WKdOnXDixAk4OjrCw8MDe/bsETqSVuJiAkRE6kMkk8lkQocgIiLlKisrQ1BQEH766SesWbMGb7311hMfW15eDrFYrLJshw4dwqJFi1BRUaHYlpeXh3v37sHW1laxTUdHB/7+/liyZInKstXHw4sJREVFcb4NEZHAWHCIiJqRr776CvPnz8fMmTPxzTffPDaE6vz585g3bx6OHDmistXXioqK0K5dO5SVlT3zsQcOHMDw4cNVkKpGcHAwPvjgA1haWj52386dOzF9+nQMGjQI27dv53wbIiI1wCFqRETNyNy5c7Fjxw5s2bIFo0aNQlFRkeK+mzdvwtvbG3FxcdiyZYvKMrVu3Ro+Pj7PPGvUpk0beHl5qSiV3M6dO/Hdd9/B19cXDx48UGznYgJEROqLBYeIqJkZP348YmJikJiYiIEDByIzMxPFxcUYMWIE/vnnH4hEIixcuBDFxcUqyzRlypRaQ9Qepa+vj4CAAJVO2i8pKcHbb78NkUiE8+fPY+bMmQC4mAARkbrjEDUiomYqPT0dI0eORFFRETp37ow///xTUTLEYjHmzZuHzz77TCVZHjx4AHNzc9y9e/eJjzlx4gTc3d1VkgcA3nvvPYSGhipeEx0dHSxZsgR//PEHUlNT8csvv2DIkCEqy0NERPXDgkNE1IwVFBRg0KBBuHz5Mqqqqmrdp6enh0uXLsHR0VElWWbMmIGtW7fWORenffv2uHXrFkQikUqyXLt2DT169EB5eXmt7SKRCN27d0dUVBQcHBxUkoWIiBqGQ9SIiJqxiIgIXLx48bFyA8g/zL/zzjsqyzJ58uQ6y42+vj6mT5+usnID4KnLPKempj71TBMREQmLZ3CIiJqp/fv3Y9SoUXWWm4ft27cP3t7eSs9TVVUFS0tL5OXlPXbfX3/9BWdnZ6VnAIBff/0V48ePf+L9urq6sLS0xPnz5+tcWY2IiITFMzhERM1QUlISxo0bh2f9jktHRwdz5syp1xLOjaWjo4PJkydDX1+/1vYuXbqorNzcu3cPb7311lOXyK6srERubi58fHxqraxGRETqgQWHiKgZOnHiBFq3bg2ZTPbUFcCqqqqQmZmJtWvXqiSXv79/rTIlFosxY8YMlRwbAD7++GPk5uY+86yWTCbDuXPnsGnTJhUlIyKi+uIQNSKiZqqqqgoxMTHYsGEDIiMjAcjPTtT1z4KhoSFSU1NhbW2t9Fx2dnbIzMwEIJ8HlJqaCnt7e6Uf9/r16+jevftjCwtUE4vFKC8vR6dOnRAQEIAZM2bAzs5O6bmIiKhheAaHiKiZ0tHRwUsvvYRffvkFOTk5+Oabb+Dk5AQAj110s6KiAkuXLlVJrqlTp0IsFkMkEqFv374qKTcA8Oabbz62TVdXFyKRCK1atcKMGTNw7NgxXLt2DStXrmS5ISJSUzyDQ0REtZw4cQLh4eHYvn07ysrKIJPJUFVVBZFIhNOnT6Nv375KPf6lS5fg7OwMkUiEr776Cm+99ZZSjwcAu3btwtixYwHIzxrp6uqiqqoKL7/8Ml5//XX4+vqiRYsWSs9BRESNx4JDRNRM7du376nLHd+/fx8nT57EoUOHkJqaCgDo1KkTPv74Y6Uv2Tx//nxIpVJ89913MDExUeqxHjx4gHfeeQd37twBAFhbW8PLywsDBw5EmzZtnvi8kSNHwsjISKnZ1NWDBw+Qn5+P/Px8lJSUKP4elZSUKOZQGRsbQ09PDzo6OjAxMYGxsTHMzc3Rtm1bIaMTUTPAgkNE1Ex1fMEetzJuCB1DY6Wlpals+Jyq3bt3DxcvXkRKSgrS09ORnp6OtLQ03Lx5E7m5uSguLn7ufevq6sLMzAwWFhawt7eHg4OD4rZHjx6wt7dX6TWPiEj7sOAQETVT7e3skTUiGPBfXP8nVZQBV88CPforLxgA5GQCiUeBYYHKPU5lBXD6AND3ZUBczyFoyWeAkH5aU3DKy8tx9uxZ/Pnnn0hISEBiYiKuXr2KyspK6Ovrw9bWVlFCbG1tYWlpCXNzc5ibm8PMzAzGxsZo2bIlAKBly5aKoXxFRUWorKwEAPzzzz8oLi5Gbm4ucnNzkZ+fj9u3byMtLU1RnnJycgAAJiYmkEgkcHFxQd++feHp6QlbW1thXhwi0khPXhuUiIjoUXr6yi83AGBhC3hNVv5xdPUA91HKP46aOX/+PPbt24fY2FicPHkSJSUlsLS0hKurK/z8/NC7d2+4uLjAwcEBurq6z3WM1q1bK75/2lC/asXFxbh48SISExORmJiI+Ph4bNiwAWVlZXjhhRfg6ekJLy8vvPLKKzAzM3uuTETUPLDgEBGRetLlP1FNpaqqCnFxcdi1axciIyORkZGB9u3bY+jQoVizZg08PDzQtWtXQTMaGxvD3d0d7u7uim3379/HqVOnEBsbi9jYWMyaNQsVFRXw8PCAn58fxo4di44dOwqYmojUEf/1ICIi0lK3bt3Czz//jI0bNyItLQ0ODg7w8/PDq6++igEDBqj9XBdDQ0MMHjwYgwcPBiCfG3T48GHs3LkTK1euxPz58+Hu7o7AwEAEBAQohsoRUfPG6+AQERFpmZiYGIwYMQJ2dnb48ssvMW7cOFy+fBmpqan46quvMHDgQLUvN3Vp2bIlfHx8sHnzZmRnZ+OXX35BmzZtMGfOHNjY2OC9997D7du3hY5JRAJjwSEiItICMpkMu3btQr9+/eDl5YWysjLs3r0bN2/exOeff664iKu20NfXx5gxYxAdHY3MzEwsXLgQ//vf/2Bvb4/Zs2cjLS1N6IhEJBAWHCIiIg138uRJDBgwAOPHj4eNjQ1OnTqFmJgY+Pj4QE9P+0ejW1tbY+nSpbhx4wbWrFmDw4cPw8nJCQsXLkRBQYHQ8YhIxVhwiIiINFR2djb8/f0xYMAAGBgY4MyZM/jtt9/Qr18/oaMJwsDAAMHBwUhOTsaaNWuwadMmdOnSBRs3bgSvikHUfLDgEBERaaDffvsNPXv2xKlTp7Br1y7ExMSgT58+QsdSC3p6enjjjTdw/fp1TJs2DW+88QZeeeUVSKVSoaMRkQqw4BAREWmQBw8e4LXXXsO4cePg5+eHpKQk+Pn5CR1LLZmYmCA0NBTHjx9HWloanJ2dsWfPHqFjEZGSseAQERFpiJycHAwdOhS7du1CVFQUwsLCYGxsLHQstefm5oaEhASMGTMGo0ePxhdffCF0JCJSIu2feUhERKQF0tPTMXToUOjq6uLEiRNatyqasrVs2RLff/89unfvjnfffRdpaWlYu3atRi6XTURPx4JDRESk5rKysvDyyy+jbdu2OHjwIMzMzISOpLEWLFgABwcHTJw4EYaGhvjvf/8rdCQiamIsOERERGqsuLgYw4YNg1gsxoEDB1humsCYMWOwadMmBAQEoF27dnj33XeFjkRETYgFh4iISI29+eabyMnJwdmzZ9GuXTuh42gNf39/ZGdnY9GiRRgwYAAGDBggdCQiaiJcZICIiJSnIAeI2Q6879u4xzRT27Ztw5YtW/DDDz+gY8eOQsfROnPnzoW3tzcCAgJQVFQkdBwiaiIsOEREpDz/WwGs8gdORDfuMc1QaWkpFi1ahKCgIIwcOVLoOA2WlJSEsLAw+Pr6Nngif2FhIeLj4xXPVxaRSITvv/8excXFCA0NVdpxiEi1WHCIiEh55q1vmsc0Q2FhYcjPz8fy5cuFjtJgq1evxvLly2FlZYV169ZBJpM16PmhoaHYu3cvgoKCEB2t3OLbrl07zJ8/H1999RXu3Lmj1GMRkWqw4BAREamhL7/8ErNnz0aHDh2EjtIgISEhKCgowJYtW+Dj4wNbW9sG72PVqlVYtWqVEtLV7a233oKenh7+97//qeyYRKQ8LDhERFQ/JYXAnjBgiEj+9cNy+fyZRx8Ts11+//u+wK2UuvfzpMc8Oh/nRLT8cWtCgJxM+bbq5z68rbHPVTN//fUX0tLSEBAQ0OT7LiwsRFhYGEQiEUQiEZYvX46cHPn7mJOTg+joaPj6+qKwsBAhISG1ziDFxMQohpytXr1a8bxq1Y9dtWoVTExMmjy7shgbG8PX1xdRUVFCRyGiJsBV1IiIqH42LgGiNgC7soGyUmCiHVCYV3uI2f+bCph3APYUAEYm8kLxqKc95r8za+bipCYB/X2Ab04Cc9zl24ZPA4ZOApz7y48P1By/Mc9VM/v374eVlRX69OnT5PtesmQJNmzYgOzsbJSWlsLOzg55eXlYv349Zs6cqRgSduXKFQQHB2PDhg0AoCg+J0+eRFRUFLZv3w5LS0vFfhMTE/HRRx8hKioKYWFhCAoKgo+PD9555x0MHTq0yX+OpjZq1ChMmjQJBQUFMDU1FToOETUCz+AQEVH9mJgDvsGAqQVg8e+wo6gNNfefiJZ/vTpPXlwA4EXv2vt41mM+fug36J0k8tvubjXHqv6+ruM35rlqJjk5GX369IGOTtP/M21ubo7g4GBYWFgoho9Vl5iHz2A4OTlBIpFg/Xp5Caye7O/mJn8dJ02aBEA+X0Ymk+HQoUMAAFtbW8yaNQsFBQXo0KEDvLy8EB8f3+Q/R1NzdXVFRUUFrl27JnQUImokFhwiIqqf11bJz3jkZAIRqx+//9Q++a2NY802I5OGP4YglUphZWWllH2vWrUK69evR2ZmJlavruN9/NejQ8yCg4PrfNzChQtr3UokEsXzq5+zadOmRudWNmtra4hEImRlZQkdhYgaiQWHiIjqb08Y8NWb8uFfj6rPGRE1PmuiTu7evQtjY2Ol7T8sLAxvvvkmfHzqeB+foLqsbN8uH1KYlJQEAE9dXrm67FSfIVJnLVq0gL6+Pq+HQ6QFOAeHiIjqJ2Y7sDoI2JFRM8yLlMLCwgLZ2dlK2ff27dsRFBSEjIyMBq1wJpFIEBUVhZSUFIhEIvj4+GDbtm2KoWrV83UKCwsfO/vTkCIllIKCAjx48KDWvCIi0kw8g0NERPWzyl9++6Rys2Cj/DY16cn7qM9jCNbW1rh165ZS9u3vL38fG7p8c3R0NDw8PLBgwQLIZDJERUUpyg0AvPrqqwCAGzduKLYVFhYCACZPntzI1MpX/Xq3b99e4CRE1FgsOEREVD/Vw9JyMh9f2hkA+g2X3/6wvGYJ5oSYmsetCXn2Y/5vXM33JYW19//w98/a1tDnqpkXX3wRZ86cQXFxcZPvu/psSmZmJlJSat7HnJycx5Z9fpivry9MTU0Vy0tXf4WEhCAnJwdDhw7FsmXLai07HRERAR8fn1pFqL6qy9Gj3yvL4cOHYWJiAkdHx2c/mIjUGgsOERHVz2v/XnhxTxjQyhSYuky+qlpZqXy7ha18+Jp5B/kyzGtCAHtneTFavg2Y8cGzH3Pst5rjjfp3qd4xDw0Zqv7+Wdsa+lw14+3tjYqKChw+fLjJ9119Ac2wsDCYmppi2bJlCA4ORmlpaa3hWdWrplVLTEysc6jZhg0bsGLFCsW+fXx8YGlpCZFIBADYsmVLgzOKRKJaSzVXFytl2rt3L7y9vSEWi5V6HCJSPpFMJpMJHYKIiFSvvZ09skYEA/6LhY6iWZLPACH9kJaWBnt7e6Ud5uWXXwYA/PHHH0o7RkOkpKTAwMDgsaFtKSkp6Nq1KzT540RycjKcnZ0RERGBsWPHCh2HiBqJZ3CIiIjU0IoVK3Do0CHExcUJHQXbt2+Ho6NjnfN2LC0tsW3bNgFSNZ0PP/wQ3bp1w+jRo4WOQkRNgKuoERERqaGBAwdiyJAhmD9/Pk6cOAF9fX3BsmzduhXFxcUYPnx4rZKTkpKC2NhYzJo1S7BsjRUXF4cdO3Zgx44dSrmwKhGpHv9LJiIiUlNhYWFISUnB8uXLBc2xZcsWGBsb45NPPlEsLrB8+XLcunWrQeXm0QUKnvSlKgUFBQgMDISvry/Gjx+vsuMSkXLxDA4REZGa6tSpE9asWYOgoCC8+OKLgs0PMTExwaRJkzBp0iSsX7/+ufejTvN0ysvLERAQgIqKCoSHhwsdh4iaEM/gEBERqbHXX38dISEh8Pf3x8GDB4WOoxUqKysRGBiIuLg4/PbbbzAzMxM6EhE1IRYcIiIiNff1119j0qRJGDt2LPbu3St0HI324MEDTJs2DZGRkYiMjES/fv2EjkRETYwFh4iISM3p6Ojg+++/x6RJk+Dn54c1a9YIHUkj5ebmwsvLC3v27EFUVBSGDBkidCQiUgLOwSEiItIAenp6CA8PR7du3bBw4UKcO3cO69atq3VBTHqy2NhYTJs2Dbq6ujh58iScnJyEjkRESsIzOERERBpk4cKF2LNnD2JiYtCzZ0+1uRCouiotLcWCBQswdOhQuLi44NSpUyw3RFqOBYeIiEjDeHt74/LlyxgyZAiGDRsGHx8fpKWlCR1L7URHR8PZ2Rnh4eFYv349du/eDXNzc6FjEZGSseAQERFpIFNTU2zevBm7d+/G1atX0aNHD7z33nu4c+eO0NEEFx8fDw8PD/j5+cHNzQ2XLl1CUFCQ0LGISEVYcIiIiDSYn58fLl26hE8++QQbN26EnZ0d5s+fj1u3bgkdTaVkMhn279+PIUOGwN3dHVVVVYiPj8dPP/0EGxsboeMRkQqx4BAREWk4sViMd955Bzdu3MAHH3yAnTt3olOnTpg8eTIOHTqEqqoqoSMqzZ07d7B27VpIJBKMHDkSBgYGiImJwfHjx7kENFEzxYJDRESkJYyNjTF//nykpqZi48aNyMjIwMsvvwwHBwesXLkSFy9eFDpik7h//z6io6MxceJEtG/fHu+//z769euHhIQExVkcImq+WHCIiIi0jL6+PqZNm4Y///wTV65cwYQJExAWFoaePXuic+fOWLhwIWJjY1FWViZ01Hq7ffs2Nm3ahLFjx6Jdu3YYPXo0srKysGHDBkilUoSHh0MikQgdk4jUgEgmk8mEDkFERKrX3s4eWSOCAf/FQkfRLMlngJB+SEtLg729vdBp6q2qqgqnT59GZGQkIiMjceXKFRgaGsLd3R2enp7w8PBAnz590Lp1a6GjAgDS09Nx8uRJxMbGIi4uDsnJyTAwMMDQoUPh5+cHX19fWFlZCR2TiNQQCw4RUTPFgvOcNLTgPCotLQ2xsbE4evQoYmNjkZGRAZFIBHt7e7i4uMDFxQVdu3aFg4MDHBwc0LZt2ybPUFFRgVu3biEtLQ2pqam4ePEiEhMTkZSUhMLCQojFYvznP/+Bp6cnPD09MXDgQBgZGTV5DiLSLiw4RETNVHs7e2R16Q8M9BM6imb5OxUIX6rxBedRN2/eREJCgqJgJCYmIiMjA5WVlQAAExMT2NnZwcLCAu3atYOZmRnMzc1haGgIU1NTAECLFi3QsmVLAMA///wDACgrK0NJSQkKCgqQm5uLvLw85OXl4fbt28jMzER5eTkAwMjICN27d0fv3r0hkUjg4uICiUTCQkNEDcaCQ0TUTNm9YI/MjBtCx9BY2lZw6lJWVoaMjAykp6cjLS0NN2/eRE5ODvLz85GXl4f8/HyUlpaioKAAMpkMpaWluH//PgD5dXpEIhEMDAxgaGgIExMTWFhYKIpRu3btFGeH7O3tYWlpKfBPS0TaggWHiIjUzuLFixETE4MzZ84IHYUayMHBAbNnz8bixRz6SETC4CpqRERERESkNVhwiIiIiIhIa7DgEBERERGR1mDBISIiIiIircGCQ0REREREWoMFh4iIiIiItAYLDhERERERaQ0WHCIiIiIi0hosOEREREREpDVYcIiIiIiISGuw4BARERERkdZgwSEiIiIiIq3BgkNERERERFqDBYeIiIiIiLQGCw4REREREWkNFhwiIiIiItIaLDhERERERKQ1WHCIiIiIiEhrsOAQEREREZHWYMEhIiIiIiKtwYJDRERERERagwWHiIiIiIi0BgsOERERERFpDRYcIiIiIiLSGiw4RERERESkNVhwiIiIiIhIa7DgEBERERGR1mDBISIiIiIircGCQ0REREREWoMFh4iIiIiItAYLDhERERERaQ0WHCIiIiIi0hoimUwmEzoEERE1X4cOHcKiRYtQUVGh2JaXl4d79+7B1tZWsU1HRwf+/v5YsmSJEDGpDkuWLMG+ffvw8EeJ9PR0mJiYoG3btoptenp6CAsLQ9++fYWISUTNDAsOEREJqqioCO3atUNZWdkzH3vgwAEMHz5cBamoPrZu3YopU6Y883EmJibIzc2FWCxWQSoiau44RI2IiATVunVr+Pj4PPPDb5s2beDl5aWiVFQfo0ePhoGBwVMfIxaLMXnyZJYbIlIZFhwiIhLclClTag1Re5S+vj4CAgKgp6enwlT0LC1btoSfn99Ty0t5eTn8/f1VmIqImjsWHCIiEtwrr7wCIyOjJ95fVlbGD8lqasqUKSgvL3/i/VZWVhgwYIAKExFRc8eCQ0REgmvRogXGjx8PfX39Ou9v37493NzcVJyK6mPEiBFo3bp1nffp6+sjMDAQOjr8uEFEqsP/4xARkVqYPHlynQsN6OvrY/r06RCJRAKkomcRi8WYNGlSneWUZ96ISAhcRY2IiNRCVVUVLC0tkZeX99h9f/31F5ydnQVIRfVx9OhRDBky5LHtDg4OSE1NFSARETVnPINDRERqQUdHB5MnT37sTECXLl1YbtSch4cHLC0ta20Ti8WYPn26MIGIqFljwSEiIrXh7+9fa5iaWCzGjBkzBExE9aGjo4OAgIBa5bS8vByTJk0SMBURNVccokZERGrFzs4OmZmZAACRSITU1FTY29sLnIqe5dy5c+jbty8A+fsmkUiQkJAgcCoiao54BoeIiNTK1KlTIRaLIRKJ0LdvX5YbDeHq6goHBwcAgK6uLqZNmyZwIiJqrlhwiIhIrfj7+yuuqzJ16lSB01BDTJ06FSKRCJWVlZgwYYLQcYiomeIloYmICBcuXEBycrLQMRQ6dOgAqVQKAwMDRERECB0HANC2bVu89NJLStv/vn37cPfuXaXtXxXatm0LmUwGJycnHD9+XOg4jSaRSNC1a1ehYwhCJpMhPz8feXl5KCkpQUFBAWQyGcrLyxV/T1u0aIGWLVsCAIyNjWFkZAQzMzOYm5tDLBYLGZ+aOc7BISIivPvuu/jvf/8rdAy1JunjisRzZ5W2/44v2ONWxg2bX1pMAAAgAElEQVSl7Z8a7tNPP8XixYuFjqEUVVVVuH79Oi5fvoy0tDSkp6crvnJzc5GXl4fGfERs3bo1LC0t0bFjRzg4OMDe3h729vZwdHSEs7MzWrRo0YQ/DVFtPINDREQAAP1urihbr7wP8A2SkwkkHgWGBQqdRO67d1F5NUaph6iUAQj6FPDX8A/Uv60FXp4CGLcVOkmj6E/Rrrlf169fx7Fjx3D27FkkJibiwoULijMx1tbWihLi6uoKCwsLmJubw8LCAmZmZjA2NoapqSkA+cqGrVq1AgCUlpbi/v37AICSkhIUFxcjLy8P+fn5yM3NRXZ2NjIyMpCeno7Dhw/j5s2bqKiogFgshpOTE1xcXNC7d28MGjQILi4u0NXVFebFIa3DgkNEROrHwhbwmix0CnoefiGALj9eCO327duIjo7GkSNHEBsbC6lUCkNDQ/Tu3RsuLi6YPn06XFxc0KNHD8Uws4YyMDCAgYEBAKBNmzbPfHxFRQWuXbuGxMREJCYmIiEhAXv37kV+fj5at26NQYMGwdPTE6NGjYKTk9NzZSICWHCIiEhd8UOyZuL7JpjU1FT8+uuv2L17N06dOgUDAwMMGjQIc+bMgYeHB/r16/fYhXRVSU9PD05OTnBycoK/vz8A+VyfS5cuITY2FnFxcQgNDcW7774LR0dHjB49GmPGjIGbm5tgmUkz8f9CRERERBqqtLQU0dHR2LhxIw4fPow2bdpg5MiRmDdvHry9vRXDydSVSCSCs7MznJ2dMWfOHFRVVSEhIQHR0dGIiIjA559/DkdHR/j7+2PGjBmws7MTOjJpAC4TTURERKRhMjIyMHfuXFhYWGDq1Klo06YN9u7di5ycHGzevBmvvvqq2pebuujo6MDV1RUrV67E5cuXcf78eQwfPhxr165Fp06dMHbsWMTHxwsdk9QcCw4RERGRhrh8+TICAwPRpUsXREZG4oMPPsDff/+NiIgIeHt7a91E/d69e+Prr7+GVCrFzz//DKlUCnd3dwwePBi///670PFITbHgEBEREam5nJwcBAcHQyKR4Pz58wgPD8e1a9cwb948mJmZCR1P6Vq0aIGJEyciPj4eR44cgaGhIUaMGIGXXnoJSUlJQscjNcOCQ0RERKSmKisrERoaii5dumDPnj0IDw/HhQsXEBgY2Gwvpjl48GDs378fx44dQ3FxMVxdXREUFISCggKho5GaYMEhIiIiUkOpqanw9PTEsmXLMH/+fKSkpGDatGnQ0eHHNwAYOHAg4uPjsXnzZkRHR6NXr144dOiQ0LFIDfC/ECIiIiI189NPP0EikaCkpARnzpzBihUrnvt6NdpMJBJh8uTJuPj/2bv7uJrv/g/gr5NCorJaiUQMteHUz1BDoQ2Nci83Q0hql4mx5aIuTVxmy5oNZZlZXBWuXaOTuZmiNMtdTm2G3Jbb7q4pWtHN+f1xrtONQjfnnO85eT0fj/Po9D3f8/2+Op9s33efm+/vv8PBwQEjRozA0qVLUV5eLnQ0EhALHCIiIiINIZPJsHLlSsyaNQs+Pj44deoU+vTpI3QsjWdiYoI9e/YgMjISYWFhcHNzQ2FhodCxSCAscIiIiIg0QHl5OaZPn46QkBBs374dISEhgt6YUxu99957SExMhFQqxaBBg5CTkyN0JBIACxwiIiIigclkMnh5eSE2NhaHDx+Gp6en0JG0Vv/+/XH69Gk8fvwYI0eO5OIDLyEWOEREREQC++ijjxAVFYUffvgBQ4cOFTqO1rO0tMTPP/+M/Px8jBkzBk+ePBE6EqkRCxwiIiIiAUkkEnzxxRfYvn07Ro0aJXScZqNLly44cuQI0tPTsWLFCqHjkBqxwCEiIvV7kAMkxAAr3YVOQiSoe/fuYd68eZg9ezZmzJghdJxmx8bGBps2bUJoaCh+/vlnoeOQmrDAISIi9ftuFRA8DTgpUc3xc7KAUF9gmEj+9XyCas5DjVNUIG8bVRz3jxQgLkJriufVq1ejTZs2+Prrr4WOUi8FBQUQiUR1PmJiYhp8rJSUFERERMDdXXXtNWvWLIwfPx5LlixBRUWFys5DmoMFDhERqd+SMNUdu6gAuJomP0fcA0DsDHzoorpiihouLUk1x90dAqQcADZ4a0V737p1C9999x0CAgLQtm1boePUy8WLF5/52vDhwxt0rJCQEBw4cADe3t6QSFTbXuvWrcPly5exd+9elZ6HNAMLHCIial7SkoC33OTPDYyA4VPlz7XkL/rNXlEBcCBCNceeGyx/aInNmzejQ4cOmD17ttBR6u3mzZvIzMyETCarfGRnZyMgIABmZmYNOlZwcDCCg9XTXj169MCUKVMQGhqqlvORsFjgEBFR4z3Ikf+lfKW7/MI11BfYHljz9T0b5MORVro/f6jYMFHV43nbXkRR3DzN3af+x9B01T93QD4kSzEc73ZG7X3raoNntd3T86NOSqqOnZMl35YQU3sbUL823B1S1bvy9L4N+X1pBvbv3w8PDw/o6ekp/dgFBQWIiIioHD4WGBhYeU+YnJwcSCQSuLu7o6CgAL6+vggMrPp3m5CQAHd3d4hEImzYsKHGvWSGDx8OKyurGudKSEjApEmTlP4zKNuMGTNw+vRp3L17V+gopGIscIiIqPE+95JfiJ6UAJkX5UVEQZ78tQc58tdNOwHHZMCkxfKhYtfS6j7Wj9m1t+3ObHrGogL514HvNv1YmmK8edXn/kcKMGa+fDgeAMzsVVXkPK8NntV2n3tVzY+6liYvGDf/CsSGA/9aJz/f8KnytlFsU6hPG1bvYTkmkz9elLUZun79Oi5duoTRo0er5PjLly+Ht7c3srOzkZmZiTVr1mDVqlUAAC8vL7i7u0MikeDixYvw8fFBXp78361EIoGLiwtWrFgBmUyGTp06wdzcvLJQqquXJjExEWKxWCU/hzINGzYM+vr6OHz4sNBRSMVY4BARUeOtja163sUW6C6uml+TmiC/SFYMEbP/3/j8xH/XfSzjOoa3mFnV3tZQGefkF+lip6YfS1MoigIAeN1B/tXAqKqXStFD8rw2eFbbVd/eXVzzHLHhVc8VbRMbXrV/U9qwob8vWu7SpUsAgH79+qnk+KampvDx8YGZmVllj0t4uLytYmOr2tjW1hZisRhhYfJ/t4rJ/g4O8naeOlXeHiEhIZDJqv3e/U9aWhqcnZ1V8jMom76+Pl5//fXKz56aLxY4RESkHAZGNb+Pj5J/fXqI0s416s317y+BGStq52uOFAVJ2DL51/q2gSZ8Npry+6Im9+7dQ7t27WBgYKCS4wcHByMsLAxZWVnYsGHDM/czMqrZ9j4+dQ/lXLZsWZ3b//3vfzd4cQEhdezYkUPUXgIscIiISDUUvQiKYUjVH+qSEAM4ulX1OrxsNKEN6kubsirBw4cP0a5dO5WeIyIiAgsXLoSb2zPmpdVBUeAolnxOS5MPEQwJCam1r2JuTkMXFxCSoaEhCgsLhY5BKqYrdAAiImrmbmcAlj3Vf95racDNC1q1qpbSPL2gglBt0BjalLUJzMzMkJubi4qKCujoKP/vzTExMfD29kZmZmatRQGeRywWIzY2FhkZGRCJRHBzc0N0dHTlULXqtGVxgeru37+Pbt26CR2DVIw9OEREpBpLv5F/PbKzaqK/YpUsVXuQA5w7WrO4uZYmX/WrOVMsLqBYUEHINmgobcqqBBYWFigtLa2xQpkyTZs2DQAaVNwA8kUGnJycsHTpUshkMsTGxtZZ3ADas7hAdXfu3IGFhYXQMUjFWOAQEVHjPXjOxdngsfKvO9cAY4zlcyrGmwNDJ9d8X/Xnip4HxYX6HylVr9W3OFGsxhW2rOZ8Di+75rWSmkLC/+4eX1QgLw7ecqtaKru+bVBd9e3VC42nX29KGyryVS9gnpe1IRSZn36uYfr164eWLVvi2LFjKjm+YlhaVlYWMjKqlg7Pycl5blHl7u4OY2PjylXTFA9fX98a71PW4gIFBQV1PleFu3fv4tKlS5ULKFDzxQKHiIgab7x51fOnb6RpbCZfInhmgPx7dx/592ZWNd9X/fmMv8svfmf2ks/JeN1B/n1gNDDnk/pl+m7Vs+9ib9WrfsfQJl1s5Z/9GGP5Z7tiZ9Vr9W2D6m1XffsY49rbFM+b0oaKnrX/fA2MmPnirPU1TFSVWZG/IfdQUiNDQ0MMGTIEcXFxKjm+4gaaERERMDY2RkBAAHx8fFBSUgJz86r2UqyapiCVSuucsxMeHl65zDSgnMUFRCIRjI2r2ktRWKnKgQMH0KZNGwwdOlRl5yDNIJLVteYfERG9VD7++GNslCTgSdhZoaNopq0fo/flBPyWqrrPp2MXa9wb5QNM86/fGxQX7s10Er7QWs6wxupFPvD3r2d7NMLWrVuxZMkSXLt2TWOGTWVkZKB169a1hrZlZGSgV69edS4VrQ1kMhn69esHGxsbREVFCR2HVIw9OEREREQC8PT0hImJCdavXy90FADyhQl69uxZ57wdc3NzREdHC5BKOfbt2wepVIrly5cLHYXUgAUOERGRtnnW/BfSKq1atcKKFSsQHh5euRyzkKKiohAREYGsrKwa2zMyMrBnz55nLjag6R49egR/f39MmTIFffv2FToOqQGXiSYiIu1R3/kUzX3Y1tPzX5r7z9uM233BggXYu3cvpk+fjjNnzqBNmzaCZdm5cycOHjyIdevWITw8HAAQEBCAYcOGYf78+fU+Tn3n0ahruNuiRYvw559/IjQ0VC3nI+GxwCEiIu2hhRewKvGyfQ7N+OfV0dHBjh07IBaLsWDBAnz//fcquS9OfRgZGWHq1KmYOnUqwsLCGn0cTZqnExERgR07dmD//v0aM8+JVI9D1IiIiIgEZGVlhd27d2Pv3r1YtGiR0HGajd27d8PX1xdBQUF1rgxHzRd7cIiIiIgENmLECERFRcHDwwM6OjoIDQ1FixYthI6ltXbt2oW5c+fCz88P//jHP4SOQ2rGHhwiIiIiDTBhwgRER0dj27ZtcHd3R2FhodCRtI5MJkNgYCBmzZqFJUuWICQkROhIJAAWOEREREQaYtKkSTh+/DjOnz8PBwcHnDt3TuhIWiM7Oxvu7u747LPPsG3bNqxfv16lNw4lzcUCh4iIiEiDDBgwAKdPn0aHDh3g6OiI1atXo6ysTOhYGu2HH35A7969ceHCBSQkJGDu3LlCRyIBscAhIiIi0jCWlpaIj4/Hpk2b8Nlnn6FPnz6Ii4sTOpbGycjIwJQpUzBp0iS4uroiLS0NgwYNEjoWCYwFDhEREZEGEolE8Pb2hlQqhY2NDdzc3ODq6or09HShowkuOzsbixYtQu/evXH58mXEx8cjMjIS7dq1EzoaaQAWOEREREQa7LXXXsOPP/6IY8eOIScnB3Z2dhg9ejSSkpKEjqZ2V69ehY+PD7p27Yq9e/diy5YtSE1NxfDhw4WORhqEBQ4RERGRFhg6dCjOnj0LiUSCR48ewdnZGQMHDsS2bdua9YprZWVlkEgkGD9+PGxsbHD06FF88cUXuH79Ory8vLicNtXCAoeIiIhIS4hEIowePRqJiYk4efIkXnvtNXzwwQfo2LEjZs+ejSNHjuDJkydCx2wymUyGc+fOwd/fH1ZWVhg3bhwKCwsRHR2Ny5cvw9fXF/r6+kLHJA3FG30SERERaSFHR0c4OjriwYMHiI6Oxo4dOzBy5EgYGRnB1dUV48aNw9tvvw0TExOho9ZLcXExkpOTsX//fsTGxuLWrVvo2rUr5s+fD09PT1hbWwsdkbQECxwiIiIiLWZsbIzp06fjyJEj0NXVxcKFC5GSkoL33nsP5eXl6N27N5ydnSuHtHXu3FnoyACAP//8E2fOnMGJEydw/PhxnD59Gk+ePIGdnR3mzp2LsWPHwt7eXuiYpIVY4BARERFpMalUismTJ6OwsBCHDh2Ci4sLAKCgoABJSUlITExEYmIiwsLCUF5ejldeeQX29vYQi8V444030L17d1hbW8PS0hI6OsqfvZCbm4vr16/j+vXruHjxItLS0pCWlobMzEwAQI8ePeDs7IwFCxZg6NChsLS0VHoGermwwCEiIgBAxcM/geN7hI6hmbIuq+c819LZBhqiorhI6Aj1EhkZCV9fX7z55ptISkqChYVF5WtGRkZwc3ODm5sbAKCwsBBSqRRSqRRpaWk4fvw4tmzZgpKSEgBAy5Yt0bVrV5ibm8PExASvvvoqXn31VRgaGqJt27bQ09ODSCSCsbExAKCoqAhPnjyBTCbDgwcP8NdffyE/Px95eXnIyclBbm4ubt68iUePHgEAdHV10a1bN4jFYixYsABisRj29vY1MhMpAwscIiICAJTduQ584iF0DI2l93/9VHt8EYD4KPmDBFcmdIAXKCkpgb+/P77++mt88MEHCAkJgZ6e3nPfY2hoCCcnJzg5OdXYfu/evcoelhs3biA3Nxf5+fm4ceMGzpw5g8LCwspipqKiAgUFBQAAAwMDtGzZEjo6OjAyMoK+vj5MTU1hYmKCnj17YtCgQbCyskK3bt1gbW0NKysr6Ory0pNUTySTyWRChyAiIhLS3/72N2zduhVffPEFFi1aJHQcrdatWzcsWLAA/v7+QkdptjIzMzF58mRcvnwZ27dvx8SJE4WORKRRWEYTEdFLb/PmzejZsyeWLFmC33//HZs3b37hX8OJhBAXF4dZs2aha9euSE1NRffu3YWORKRxeB8cIiIiAH5+fpBIJIiJicG7776LBw8eCB2JqFJ5eTmCgoIwduxYjBkzBsnJySxuiJ6BBQ4REdH/vPvuu0hOTkZGRgYGDBiAy5fVtLgA0XPk5uZi1KhRWL9+PbZu3YrIyEi0adNG6FhEGosFDhERUTV9+/ZFSkoKjI2N8dZbb+H48eNCR6KX2IkTJyAWi5GZmYlTp07By8tL6EhEGo8FDhER0VMsLCyQlJSEkSNHYuTIkdixY4fQkeglI5PJsHHjRri4uKB///44ffo0+vbtK3QsIq3ARQaIiIjq0Lp1a/zrX/9Cz549MXfuXJw/fx6hoaEquREiUXWFhYWYN28e9u3bhzVr1uDjjz+GSCQSOhaR1mCBQ0RE9AwikQhBQUGwsbHBnDlzcPv2bezcuZPzH0hlpFIpJk+ejMLCQhw6dAguLi5CRyLSOvwzFBER0QtMnToV8fHxSE5OxltvvYWsrCyhI1EzFBkZiUGDBqFjx46QSqUsbogaiQUOERFRPbz11lv49ddfUVpaCkdHR5w9e1boSNRMlJSUwM/PD56envDy8sLRo0dhYWEhdCwircUCh4iIqJ66deuGlJQU2NvbY+jQofjxxx+FjkRaLjMzE05OTtixYwf27t2LjRs38iazRE3EAoeIiKgB2rVrh/3792Pu3LmYOHEigoKChI5EWiouLg729vYoKytDamoqJk6cKHQkomaBBQ4REVEDtWjRAl999RXCw8Oxdu1aTJs2DSUlJULHIi1RXl6OoKAgjB07FmPGjEFycjK6d+8udCyiZoMFDhERUSN5e3vjwIEDOHjwIFxcXJCTkyN0JNJwubm5GDVqFNavX4+tW7ciMjKSq/IRKRkLHCIioiYYMWIEkpOTce/ePTg6OuLixYtCRyINdeLECYjFYmRmZuLUqVPw8vISOhJRs8QCh4iIqIl69+6NM2fOwNLSEgMHDsSBAweEjkQaRCaTYePGjXBxcUH//v1x+vRp9O3bV+hYRM0WCxwiIiIlMDExwZEjRzB+/HiMHTsWmzZtEjoSaYDCwkJMmTIFy5YtQ3BwMPbt2wdjY2OhYxE1a7pCByAiImouWrVqhR07duD111+Hn58ffvvtN2zevBm6uvzf7ctIKpVi8uTJKCwsxKFDh3jjTiI1YQ8OERGREolEIvj7+2P37t3YtWsXxowZg4KCAqFjkZpFRkZi0KBB6NixI6RSKYsbIjVigUNERKQCkyZNwi+//IILFy5g8ODBuHnzptCRSA1KSkrg5+cHT09PeHl54ejRo7CwsBA6FtFLhQUOERGRitjZ2SElJQWtWrVC//79kZSUJHQkUqGsrCw4OTlhx44d2Lt3LzZu3Ag9PT2hYxG9dFjgEBERqVCnTp1w/PhxDBo0CCNGjMDOnTuFjkQqEBcXBzs7O5SVlSE1NRUTJ04UOhLRS4sFDhERkYq1bdsWP/74I5YvX47Zs2dj+fLlqKioEDoWKUF5eTmCgoIwduxYjBkzBsnJyejevbvQsYhealzWhYiISA1EIhGCgoLQuXNnvP/++7h27Rq+//573sVei+Xm5mL69OlITk7G1q1beeNOIg3BHhwiIiI1mjdvHuLj45GYmIjhw4fj/v37QkeiRjhx4gTEYjEyMzNx6tQpFjdEGoQFDhERkZoNHjwYJ0+eREFBAd58802kpqYKHYnqSSaTYePGjXBxcUH//v1x+vRp9O3bV+hYRFQNCxwiIiIBvPbaazh58iR69eoFZ2dn7N+/X+hI9AKFhYWYMmUKli1bhuDgYOzbtw/GxsZCxyKip7DAISIiEkj79u1x+PBhzJo1CxMnTsT69euFjkTPIJVK0a9fPyQlJeHQoUPw9/eHSCQSOhYR1YEFDhERkYB0dXWxefNmbNiwAStXrsT8+fNRWloqdCyqJjIyEoMGDULHjh0hlUrh4uIidCQieg4WOERERBrAz88PcXFx2LNnD4YPH468vDyhI730SkpK4OfnB09PT3h5eeHo0aOwsLAQOhYRvQALHCIiIg0xatQoJCcn49atW3B0dMSlS5eEjvTSysrKgrOzM3bs2IG9e/di48aN0NPTEzoWEdUDCxwiIiIN0qdPH/z666945ZVXMGjQIBw7dkzoSC+duLg42NnZobS0FKmpqZg4caLQkYioAVjgEBERaRgLCwskJibC1dUVI0aMQFhYmNCRXgrl5eUICgrC2LFjMWbMGCQnJ6N79+5CxyKiBhLJZDKZ0CGIiIioNplMhk8++QSrV6/GBx98gNDQUOjo1P23yfLycrRo0UKt+ZYvX46ffvoJ1S8lbty4ASMjI7zyyiuV23R1dREREYE333xTrfkaIjc3F9OnT0dycjK+/vpr3riTSIuxwCEiItJwu3fvxpw5czB06FDExMTA0NCwxuvFxcVwc3PDzp071ToJPioqCjNmzHjhfkZGRsjNzRVsDst///tfhISE4J///Gedr584cQIeHh4wMDDADz/8wBt3Emk5DlEjIiLScB4eHkhISEBqaiqGDBmCrKysytcqKirg4eGB+Ph4LF++XK25xo0bh9atWz93Hz09PUyfPl3QCfqLFy/GunXrsH379hrbZTIZNm7cCBcXF/Tv3x9nzpxhcUPUDLDAISIi0gIODg44e/YsdHR04ODggDNnzgAA/v73v+PAgQMAgJ07dyIlJUVtmdq0aYOxY8c+t3gpLS3FtGnT1JbpaYcOHcLOnTsBAL6+vpBKpQCAwsJCTJkyBcuWLcOKFSuwb98+GBsbC5aTiJSHQ9SIiIi0SGFhITw8PJCUlARvb298+eWXla/p6urC1tYWUqn0mXN1lE0ikcDd3f2Zr3fo0AF37txRW57qioqKYGNjg3v37qG8vBy6urowMzNDVFQUvLy8UFhYiKioKN64k6iZYQ8OERGRFjE0NERcXBzGjRuHTZs21XitrKwMFy5cqDUUS5VGjRpVa06QQsuWLTFr1ixBihsAWLZsGbKzs1FeXg5A/vnk5ubCx8cHnTt3Rnp6OosbomaIBQ4REZGWycrKqrV6mUJFRQWWLVuG/Px8tWTR09PD1KlT0bJly1qvPXnyRLDhaYmJidi6dStKS0trbC8tLUVGRgZGjBgBc3NzQbIRkWqxwCEiItIihYWFGDVqFIqKiip7Jp72119/ISgoSG2Zpk2bhidPntTa3q1bN9jZ2akth0JxcTE8PT2f2XNUUVGBlStX4ujRo2pORkTqwAKHiIhIS5SWlmLs2LG4fv16rZ6Jp/fbsmUL0tPT1ZLLycmpVm+Inp4ePD091XL+pwUGBuL27dvPLAABQCQSwcPDA3fv3lVjMiJSBxY4REREWuLMmTPIzMxEWVnZC5dd1tHRwfvvv1/nMDZl09HRwXvvvVdjmFppaSmmTp2q8nM/7fTp0wgNDUVZWdlz9ysvL8d///tfTJ8+/YX7EpF2YYFDRESkJd566y1cv34dZ8+ehaenJ9q0aYMWLVqgRYsWtfYtKyvDyZMnsXv3brVkqz5MTSQSwc7ODj169FDLuRWePHmC2bNnP3dRA11dXQDy4XMBAQH46quvKrcRUfPAZaKJiIi0VHFxMeLi4rBlyxYkJiZCV1e3xtA1kUiEV199FdeuXUPbtm1Vnqd79+64fv06dHV18fnnn2Px4sUqP2d1q1atwtq1a2sNTdPV1UVZWRk6d+6M8ePHY/LkyRg8eLBasxGR+rDAISIiagauXLmC7777Dt9++y1ycnKgp6eH0tJS6Ojo4OOPP8a6detUniEoKAirV68GANy+fRsdO3ZU+TkV0tPT0a9fv8rhZoqipmfPnpgxYwYmTZqE119/XW15iEg4LHCIiIg0yE8//YRHjx41+v0VFRVIT09HQkICzp49i/LycrRo0QIbNmyAhYWFEpPWdv/+ffj5+cHW1latq7iVl5djxYoVuHnzJgCgU6dOGDx4MBwcHBpVZInFYvTq1UvJKbXDo0ePkJeXh/z8fBQVFVUOO/zzzz8ByOdbGRkZAQBat24NAwMDmJiYwMTEBAYGBoLlJqqOBQ4REZEG6dzVGrczbwod46X26aefwt/fX+gYKpGTk4P09HRcu3YNN27cwI0bN3D9+nXcvXsX+fn5ePz4caOPra+vDxMTE3Tq1AndunWDtbU1rK2t0b17d4jFYrzyyitK/EmIno2z6oiIiDRIuQyA96fANCVfYF85D3TsBhgYKfe4T/vP18A7M4B2aryYzb8LmChnOFzLGdZKOY4m+PPPP5GcnIyUlBRIpeyjZv8AACAASURBVFJIpdLKZbENDQ1hbW2Nbt26wcnJCZaWljA1NYWpqSlMTExgamqKdu3aVS7AYGxsDJFIhIqKChQUFACQL+rw8OFD5OfnV/b65OXlISsrCzdu3EBsbCxu3LiBoqIiAICVlRXs7OxgZ2cHR0dHDBo0CO3atRPmw6FmjQUOERHRy6CHvXrOM9YXaKHmywslFTfarqSkBEePHsXPP/+MxMRE/Pbbb5DJZLCxsYG9vT38/Pxgb28PsVgMMzOzRp1DR0cH7du3r/ze3Nwcr7322nPfc/fuXaSlpVUWWdHR0Vi9ejV0dXXxf//3f3BycsLIkSPh7Oz8wuXPieqDBQ4REREpj7qLm5dcYWEhJBIJ9u3bh0OHDqGoqAh2dnYYNmwYgoKCMHjwYJiamgqasWPHjujYsSNcXV0rt92/fx9JSUlISkrCwYMHERISgvbt2+Pdd9/FuHHjMHr0aOjr6wuYmrQZ/ytEREREpGXOnTuHb775BlFRUSguLoaDgwPWrFmDiRMnwtLSUuh4L9ShQwdMmTIFU6ZMAQBkZmbi8OHDkEgkmD59OvT19TF27FjMmjULLi4uEIlEAicmbcIbfRIRERFpgeLiYoSFhaFHjx548803cf78eaxfvx65ublITk6Gn5+fVhQ3denSpQu8vb0hkUhw+/ZtrFq1CqmpqXjnnXcgFovx/fff17jHE9HzsMAhIiIi0mCFhYX45z//ia5du+LDDz/EO++8g99++w2nT5/G+++/X2NOTHNgZmaGDz/8EL///jtOnToFe3t7zJ8/H927d0doaCiKi4uFjkgajgUOERERkQYqKyvD1q1b0aNHD3z++eeYN28ebt68iS1btqB3795Cx1OLAQMG4Pvvv8fVq1cxYcIEBAYGolevXti1axd4pxN6FhY4RERERBomKSkJdnZ2WLRoEaZPn45r167hn//8J8zNzYWOJggrKyt8+eWXuHr1KkaOHAlPT08MHDgQqampQkcjDcQCh4iIiEhDlJSUYNmyZRg2bBisra3x+++/IzQ0lDfJ/J8OHTogIiICqampaNOmDRwcHBAcHIyysjKho5EGYYFDREREpAEyMjLw5ptvIiIiAtu2bYNEIkGPHj2EjqWR+vbti4SEBHz22WdYt24dBg0ahNu3bwsdizQECxwiIiIigSUkJMDR0RFt27ZFeno65syZI3Qkjaejo4PFixcjNTUVjx49wsCBA3H27FmhY5EGYIFDREREJKCoqCiMGjUKI0aMwLFjx9ClSxehI2kVGxsbnDx5En379oWzszMOHjwodCQSGAscIiIiIoHs378fs2fPhp+fH6KioqCvry90JK1kZGSEuLg4eHh4YOLEiUhKShI6EglIV+gARERERC+jpKQkeHh4wMvLC5999hlEIpHQkbRaixYtEBERgUePHsHNzQ0nTpxA3759hY5FAmAPDhEREZGa5efnY/r06XB1dcXmzZtZ3ChJixYtsGvXLtjb22Pq1Kn466+/hI5EAmCBQ0RE9LJ5kAMkxAAr3Zu2DzWat7c3RCIRvv32W+jo8HJMmVq2bIldu3YhOzsbH374odBxSAD8F0VERPSy+W4VEDwNOClp2j6aoqgA+CMFiIvQioLs2LFj+M9//oMdO3Zo1f1tJBIJ3N3dIRKJ4O7ujpiYmAYfo6CgACkpKYiIiIC7u+raytLSElu2bEFERAR+++03lZ2HNJNIJpPJhA5BREREch27WOPeKB9gmr9qTzTsf0Oijj3nMqA++2iC7YHyrzvXyL82IW/LGdZYvcgH/v6q+/yHDh2Kli1b4siRIyo7h7Jt2LABy5Ytg1QqhVgsRlpaGuzs7BASEoKlS5fW+ziBgfK2WrNG3laqvAyVyWQYMGAAunbtir1796rsPKR52INDRERE2m1usPyhBc6dO4fExESsWrVK6CgNsmzZMgCAWCyu8TUxMbFBxwkODkZwsHraSiQSYeXKlfjhhx+QmZmplnOSZmCBQ0REpM2KCuRDs4aJ5I/tgfL5M0/vkxAjf32lO3A7o+7jPGufp+fjnJTI9wv1BXKy5NsU762+ranvbYZiY2PRpUsXDBo0SOnHLigoQEREBEQiEUQiEQIDA5GTI/9dyMnJqRxiVlBQAF9f38reFEB+o1HF8LMNGzZUvk8hJCQEAJCSkgIAyMqSt5O6ipXGGj16NIyMjCCRaMFQS1IaLhNNRESkzb5ZDsSGAz9mA09KAI8uQEEesCSsap9/zgRMOwFxDwADI3lB8bTn7fO5V9VcnGtpwFtuwOZfgb85yreNnA0Mnwr0fkt+fqDq/E15bzP0008/YcyYMSo59vLlyxEeHo7s7GyUlJSgS5cuyMvLQ1hYGLy8vCov8i9evAgfHx+Eh4cDqJpb8+uvvyI2NhYxMTEwNzevPK5MJsPSpUvx4MEDODo64tdff8XNmzeRnZ0NMzMzlfwsyqKnp4cRI0bgp59+wsKFC4WOQ2rCHhwiIiJtZmQKuPsAxmaAmZV8W2x41esnJfLH5CXywgUABrrWPMaL9lkbW/W8u3xoEl53qDqX4nld52/Ke5uhS5cuoV+/fio5tqmpKXx8fGBmZgYrK/nnqShiYmOr2sHW1hZisRhhYfJCUjHZ38FB3hZTp04FIO+1qT5HJjg4GD4+PnB0dMSFCxfQqlUrlfwcytavXz9cunRJ6BikRixwiIiItNncYHmPR04WsGdD7ddP/ST/atmzapuiiGnIPtRkDx8+xKNHj2BhYaGS4wcHByMsLAxZWVnYsKGO34X/MTKq2bY+Pj517qeYd6OwYcMGODs748GDBwCAmTNnoqCgoImpVc/CwgJ3795V6YIGpFlY4BAREWm7uAhg40L58K+n1adHpJn3mmiKhw8fAgDatm2rsnNERERg4cKFcHOr43fhGRQFjmLZ57S0NABV824Ury1btgyurq4wMjLCzJkzIZFIsGfPHiWmVw1DQ0M8fvwYT548EToKqQnn4BAREWmzhBhggzewO7NqmBdppFdffRU6Ojq1JvArS0xMDLy9vZGZmVk5RK0+xGIxYmNjkZGRAZFIBDc3N0RHR1cOVQOAadOmAajq/VHM0fH29sb8+fOV+FMoX3Z2Ntq3b681Q+qo6diDQ0REpM2C5Reezyxuln4j/3ot7dnHqM8+1GR6enowMTHB7du3VXJ8RRHSkOIGkC8y4OTkhKVLl0ImkyE2NrZGcQOgVo+QotBpSE+RUG7fvq2yYYGkmVjgEBERaTPFsLScrNpLOwPAgJHyr9sDq5ZgPp9QtV+o74v3+cfEqudFBTWPX/35i7Y19L0NUVRQ93MNM3DgQBw/flwlx1YUG1lZWcjIqPpdyMnJeW6vkbu7O4yNjSuXl1Y8fH19K9+3ePFiAFXD2BTLRSu2N0T1eTvqmMOTkJAAR0dHlZ+HNAcLHCIiIm2muMFlXATQ1hiYGSBfVe1JiXy7mZV8+JppJ/kyzKG+gHVveWEUGA3M+eTF+5z4T9X5xhjLv46vWka48vmLtjX0vfU1TFR1bMV5hokadgw1cXNzw88//4zHjx8r/diKe9JERETA2NgYAQEB8PHxQUlJSY1lnxWrpilIpdI6e2LCw8Mrb0g6fPhwxMfHIzExESKRCN9//z3i4+MxfPjwBmUUiUQwNq5qK0VhpSr5+flISUnB6NGjVXYO0jwiGZeUICIi0hgdu1jj3igfYJq/0FFeSi1nWGP1Ih/4+6vm879//z66du2Kr776Ct7e3io5R0NlZGSgdevWtYa2ZWRkoFevXlq9+tjatWsREhKCW7duqXRxB9Is7MEhIiIiUpMOHTpg3rx5WLt2rUp6cRoqJiYGPXv2rHPejrm5OaKjowVIpRyFhYX44osvsHjxYhY3LxkWOERERERq9Pe//x05OTlYv3690FEQFRWFiIgIZGVl1diekZGBPXv21FpsQJsEBARAJpPBz89P6CikZixwiIiISDMNE9XvoWUsLS3x6aefIjg4GL/++qugWXbu3Il27dph3bp1lYsLBAYG4vbt2w1a/vnpBQqe9VCXw4cPY9OmTdi0aVONOT/0cuAcHCIiIg3COTjCUvUcHAWZTIbRo0fjjz/+wC+//IJOnTqp9Hwvk4yMDAwZMgQjR45EZGSk0HFIAOzBISIiIlIzkUiEyMhIGBgY4J133kFeXp7QkZqFrKwsvPPOO+jWrRu2bNkidBwSCAscIiIiIgGYmppWLhn99ttv486dO0JH0mpXrlyBi4sL2rdvj59++okLC7zEWOAQERERCaRjx46Ij49HaWkpBgwYgLNnzwodSSsdO3YMDg4OMDExwZEjR9C+fXuhI5GAWOAQERERCahr1644efIk+vTpA2dnZ4SHh2v1vWfUqby8HOvXr8fIkSPxzjvv4NixYzAzMxM6FgmMBQ4RERGRwIyMjBAXF4fFixfjgw8+gKurK4esvcDVq1fh5OSEVatWYe3atYiOjoa+vr7QsUgDsMAhIiIi0gC6urpYu3YtfvnlF2RmZqJXr14ICgpCSUmJ0NE0SlFREdavXw97e3s8fPgQKSkp+Oijj9S6DDVpNhY4RERERBpkwIABOHfuHD766COEhITA1tYW0dHRqKioEDqaoEpLS7Ft2zb06NEDn376KYKCgnDu3DnY2dkJHY00DAscIiIiIg3Tpk0brFq1CpcvX4azszPee+899OrVC9988w0eP34sdDy1evToEb788kt0794d77//PiZMmIArV65g6dKl0NPTEzoeaSAWOEREREQaqlOnTtixYwcuXbqEYcOGYdGiRejatStWrlyJK1euCB1PpX7//Xd8+OGH6NKlCwIDAzFhwgRcvXoVmzZtgqmpqdDxSIOxwCEiIiLScD169MA333yDmzdvwsvLC5GRkejVqxecnJzw7bffIjc3V+iISnH37l1s2bIFAwcORJ8+fRAbG4ulS5ciMzMTX375JaysrISOSFqABQ4RERGRlujQoQOCg4Nx8+ZNHDhwAB06dMDChQthYWEBZ2dnfPHFF7h06ZLQMetNJpMhPT0d69atw8CBA2FpaQl/f3/Y2Njg+PHjuHLlClasWIFXXnlF6KikRXSFDkBEREREDdOiRQu4urrC1dUVRUVFOHToEPbv34+1a9di6dKl6NChA5ydneHk5ITBgwfD1tZWI+arPHnyBL/99huSk5ORmJiIEydOIC8vD+bm5nB3d8c//vEPuLi4oHXr1kJHJS3GAoeIiIhIixkYGGDixImYOHEiysrKcPbsWSQlJSExMRHLly/Hw4cP0apVK7zxxhuws7ND37598dprr6Fbt26wtrZWSTHx119/4fr167hx4wYyMjKQnp4OqVSKixcvorS0FO3bt8eQIUOwcuVKODs7QywWQ0eHA4tIOUQy3iqXiIhIY3TsYo17Pd4CBo8VOspLSferhVjjvxT+/v5CR1GK8vJyXLhwAVKpFGlpaZBKpUhPT0deXh4AQCQSwcLCAp07d4apqSlMTEwqv+rr68PAwAAA0K5dO+jq6uLJkycoKioCIF/drLi4GHl5ecjPz0deXh7y8vJw69Yt3L9/vzJDhw4d0KdPH9jb20MsFsPOzg42NjYsaEhl2INDRESkQfREAOKj5A9SuzKhAyhZixYt0LdvX/Tt27fG9sLCwsoeluvXr+Pu3buVhUpGRgby8vLw+PFjPHr0qHL/8vJy6OnpoW3btgDkRU/r1q1hYmICExMTmJub4/XXX4elpWVl71C3bt0qiyQidWEPDhERESlVz549MWvWLAQEBAgdhZSkc+fOWLx4MZYuXSp0FKIXYt8gERERKZWBgUHlMCZqHh4/fsyJ/6Q1WOAQERGRUrHAaX4eP36MVq1aCR2DqF5Y4BAREZFSscBpfkpKSljgkNZggUNERERKZWBggL/++kvoGKQkMpkMpaWlHKJGWoMFDhERESkVe3Cal8ePH0Mmk7EHh7QGCxwiIiJSKhY4zcvjx48BgAUOaQ0WOERERKRULHCaF0WBwyFqpC1Y4BAREZFSscBpXkpKSgCwB4e0BwscIiIiUioWOM0Lh6iRtmGBQ0RERErFAqd54RA10jYscIiIiEipWOA0LxyiRtqGBQ4REREpleI+ODKZTOgopAQcokbahgUOERERKZWBgQFkMhmKi4uFjkJKwCFqpG1Y4BAREZFSGRgYAACHqTUT7MEhbcMCh4iIiJSqTZs2AFjgNBecg0PahgUOERERKRV7cJqXx48fQ0dHB3p6ekJHIaoXFjhERESkVCxwmpfHjx+z94a0CgscIiIiUioWOM1LSUkJFxggrcICh4iIiJSKBU7zwh4c0jYscIiIiEip9PX1oaOjwwKnmWCBQ9qGBQ4REREplUgkgr6+PgucZoJD1EjbsMAhIiIipTMwMGCB00ywB4e0DQscIiIiUjoWOM0HCxzSNixwiIiISOlY4DQfLHBI27DAISIiIqVjgdN8cA4OaRsWOERERKR0LHCaD/bgkLZhgUNERERKxwKn+WCBQ9qGBQ4REREpHQuc5oND1EjbsMAhIiIipWOB03ywB4e0DQscIiIiUjoWOM0HCxzSNixwiIiISOlY4DQfHKJG2oYFDhERESmdgYEB/vrrr1rbZTKZAGmoKdiDQ9pGJON/aYiIiKgJMjIysGHDBhQXF6OkpAS5ubnIysrC/fv3YWJigsePH+Ovv/5CcXExJk2ahJiYGKEj0zMsWbIE3377LfT19aGnpwc9PT3k5+ejbdu26NmzJwDA0NAQrVu3xocffggHBweBExPVxgKHiIiImqSkpATm5uZ4+PDhC3todu3ahRkzZqgpGTXUgQMHMGbMmBfu17p1a2RnZ8PQ0FANqYgahkPUiIiIqElat26NOXPmQFdX97n76ejoYNSoUWpKRY3x9ttvo02bNs/dR09PD5MnT2ZxQxqLBQ4RERE12YIFC1BWVvbM10UiERwdHWFiYqLGVNRQrVq1wpgxY55brJaWlmLevHlqTEXUMCxwiIiIqMlsbW0xcOBAtGjRos7XdXV1MWHCBDWnosaYOHEiysvLn/m6paUlnJyc1JiIqGFY4BAREZFS+Pr6oqKios7XSktL4ebmpuZE1BjvvvvuM3tw9PT0sGDBAohEIjWnIqo/LjJARERESlFcXFy52MDTunfvjqtXrwqQihrj3XffxZEjR2r15IhEIty8eRNWVlYCJSN6MfbgEBERkVLo6+tjzpw50NPTq7G9ZcuWmDhxokCpqDEmTZpUa0W8Fi1awMXFhcUNaTwWOERERKQ0Pj4+KC0trbHtyZMnHJ6mZcaOHVtrGJpMJsP8+fMFSkRUfxyiRkREREo1cOBAnD17tnI+jpGREfLz85+5AAFpJicnJ/zyyy+V7WhoaIicnBy0atVK4GREz8ceHCIiIlIqX1/fyud6enpwd3dncaOFJk+eXNmLo6enh9mzZ7O4Ia3AAoeIiIiUysPDAwYGBgCAsrIyuLu7C5yIGmPChAmVvTelpaWYM2eOwImI6ocFDhERESmVvr4+PD09Acgnpo8YMULYQNQonTp1glgsBgC88cYbsLe3FzgRUf08+za1REREpHV++uknPHr0SOgYlStt2djY4NChQwKnqUksFqNXr14qPYemtENT2draQiqVYsCAAdizZ4/QcZpEHe2uqWQyGfLz85GXl4eioiI8ePAAMpkMpaWllb+nrVq1Qps2bQAA7dq1g4GBAUxMTGBqalprZURNx0UGiIiImpHOXa1xO/Om0DE02qeffgp/f3+VnoPtoHnU0e5CqaiowNWrV/HHH3/g+vXruHHjRuUjNzcXeXl5tZb9bghDQ0OYm5ujc+fO6NatG6ytrWFtbY2ePXuid+/eGjc3iz04REREzUi5DID3p8A0DbiQO7QDsBsKdOgqcJAqLWdYq+U8GtUOTbUjCPAMEjpFk6ir3dXl6tWrOHHiBM6ePQupVIr09PTKnhgLC4vKIqRfv34wMzODqakpzMzMYGJignbt2sHY2BiAfPGItm3bAgBKSkpQXFwMACgqKsLDhw+Rl5eH/Px85ObmIjs7G5mZmbhx4wbi4+Nx69YtlJWVQU9PD7a2trCzs4O9vT2GDBkCOzs7QRcWYYFDREREqvHOe0ALXmpovZkBQid46d2/fx8SiQTHjh1DYmIi7t69C319fdjb28POzg6enp6ws7PDG2+8UTnMrKFat26N1q1bAwDat2//wv3Lyspw5coVSKVSSKVSnD9/HgcOHEB+fj4MDQ0xZMgQODs7Y8yYMbC1tW1Upsbif3WIiIhINVjcNA9sR0Fcu3YNP/zwA/bt24dTp06hdevWGDJkCP72t7/ByckJAwYMQMuWLQXLp6urC1tbW9ja2mLatGkA5HN9Lly4gMTERCQlJSEkJAQff/wxevbsiXHjxmH8+PFwcHBQfTaVn4GIiIiIiF6opKQEEokE33zzDeLj49G+fXuMHj0aS5Ysgaura+VwMk0lEonQu3dv9O7dG3/7299QUVGB8+fPQyKRYM+ePfjss8/Qs2dPTJs2DXPmzEGXLl1UkoPLRBMRERERCSgzMxN+fn4wMzPDzJkz0b59exw4cAA5OTmIjIzE5MmTNb64qYuOjg769euHoKAg/PHHH0hNTcXIkSPx9ddfo3v37pgwYQJSUlKUf16lH5GIiIiIiF7ojz/+wKxZs9CjRw/s378fn3zyCe7cuYM9e/bA1dVV0In6qmBvb4+vvvoKd+/exb/+9S/cvXsXjo6OGDp0KA4fPqy087DAISIiIiJSo5ycHPj4+EAsFiM1NRXbtm3DlStXsGTJEpiYmAgdT+VatWoFDw8PpKSk4NixY9DX18eoUaPw9ttvIy0trcnHZ4FDRERERKQG5eXlCAkJQY8ePRAXF4dt27YhPT0ds2bN0rqbaSrL0KFDcfDgQZw4cQIPHz5Ev3794O3tjQcPHjT6mCxwiIiIiIhU7Nq1a3B2dkZAQAA+/PBDZGRkYPbs2dDR4eU4AAwePBgpKSmIjIyERCJB3759cfTo0UYdi58oEREREZEK7dq1C2KxGEVFRThz5gxWrVrV6PvVNGcikQjTp0/H77//DgcHB4wYMQJLly5FeXl5g47DAoeIiIiISAVkMhlWrlyJWbNmwcfHB6dOnUKfPn2EjqXxTExMsGfPHkRGRiIsLAxubm4oLCys9/tZ4BARERERKVl5eTmmT5+OkJAQbN++HSEhIYLemFMbvffee0hMTIRUKsWgQYOQk5NTr/exwCEiIiIiUiKZTAYvLy/Exsbi8OHD8PT0FDqS1urfvz9Onz6Nx48fY+TIkfVafIAFDhERERGREn300UeIiorCDz/8gKFDhwodR+tZWlri559/Rn5+PsaMGYMnT548d38WOERERERESiKRSPDFF19g+/btGDVqlNBxmo0uXbrgyJEjSE9Px4oVK567LwscIiIiapwHOUBCDLDSXegkRBrh3r17mDdvHmbPno0ZM2YIHafZsbGxwaZNmxAaGoqff/75mfuxwCEiIqLG+W4VEDwNOClRzfEf5ADbA4FhIvkjIUY156GmKSqQt4+y5WQBob7yY4f6AucTlH8OJVu9ejXatGmDr7/+Wugo9ZaTk4OIiAiIRCKIRCLExDTu31lBQQFSUlIQEREBd3fV/dFj1qxZGD9+PJYsWYKKioo692GBQ0RERI2zJEx1x36QA9y9DswNBo7JgMBoeTG1Z4PqzkmNk5ak/GMWFQBX0+S/Y3EPALEz8KGL6oppJbh16xa+++47BAQEoG3btkLHqZeCggJ4eXkBkC+MkJ2djaioKAQGBjb4WCEhIThw4AC8vb0hkai2ndatW4fLly9j7969db7OAoeIiIg0z93rwOsOVd8Pnyr/GrZMmDxUt6IC4ECE8o+blgS85SZ/bmBU1f4aPBxy8+bN6NChA2bPni10lHo7ePAgJBIJpkyZAgAwMzNDcHAw1qxZg4SEhvWYBQcHIzg4WBUxa+nRowemTJmC0NDQOl9ngUNERPSye5Aj/8v4Snf5BWuor3xoWPXX92yQDxVa6f78oUKK4WTVhyzVte1Fqhc3gDwXAMwMqP8xtEX1zx8A4iKqhmXdzqi9b11t8aw2fHqe1ElJ1bFzsuTbEmJqbwPq15a7Q6p6VZ7etyG/N09TFDdPc/ep/zHUbP/+/fDw8ICenp7Sj11QUFBjGFlgYGDlPWFycnIgkUjg7u6OgoIC+Pr61uiBSUhIgLu7O0QiETZs2FDjXjJRUVEAACMjo8ptXbt2BYBn9o5oihkzZuD06dO4e/durddY4BAREb3sPveSX4CelACZF+UXkQV58tce5MhfN+0kHyo2abF8qNC1tLqP9WN27W27M5uWLydLfiENACNmNu1Ymmi8edXn/0cKMGa+fFgWAMzsVVXkPK8tntWGn3tVzZO6liYvHDb/CsSGA/9aJz/f8KnyNlJsU6hPW86t9hf7YzL540VZG0NR4A58t3HvV7Hr16/j0qVLGD16tEqOv3z5cnh7eyM7OxuZmZlYs2YNVq1aBQDw8vKCu7s7JBIJLl68CB8fH+Tlyf/9SiQSuLi4YMWKFZDJZOjUqRPMzc0rC6W6hpIpip3w8HCV/CzKMmzYMOjr6+Pw4cO1XmOBQ0RE9LJbG1v1vIst0F1cNb8mNUF+cawYImQ/XP418d91H8vYrPY2M6vGZ8vJAjy6ADvXyL/X4DkYjaYoCoCqnisDo6reCsXP/Ly2eFYbVt/eXVzzHLHhVc8VbRRb7aK2KW3Z0N+bF8k4Jy/OxE6Ne7+KXbp0CQDQr18/lRzf1NQUPj4+MDMzg5WVvA0UBUhsbFUb29raQiwWIyxM/u9XMdnfwUHezlOnytsjJCQEMpkMPj7y37GMjKd6CrWAvr4+Xn/99crPvjoWOERERFTFwKjm9/HyISy1hiYpCg5VM7OSFwDbpPLhaWHL5EO4XgaKgkQx76i+bfF0GwpB2b83//4SmLFCM3626TdNNwAAIABJREFUOty7dw/t2rWDgYGBSo4fHByMsLAwZGVlYcOGZy+0UX2oGYDKAuZpy5bJf6cU84VCQ0NRUCDvJUtLk/eyhYSENDm3qnXs2JFD1IiIiKiBFL0HiuFH1R/q1F1cNTxtg7d6z60pNKUt6kOZWRNiAEe32vOyNMjDhw/Rrl07lZ4jIiICCxcuhJvbM+Yn1UFR4CiWfn66eHFwcEB8fDzu3LkDY2NjREREID8/HwDw9ttvKzO+ShgaGqKwsLDWdl0BshAREZG2uZ0BWPYUNoPQ5xfK0xPrNaEt6qupWa+lATcv1Jzro4HMzMyQm5uLiooK6Ogov/8gJiYG3t7eyMzMrByiVh9isRixsbHIyMiASCSCm5sboqOjK4eqAcDw4cMxfPjwyu83bNiAgIAAiMVipf4MqnD//n1069at1nb24BAREdGzLf1G/vXIzqqJ3orVsdRNcf7AaPWfWwiKxQUUE+s1qS1eRBlZH+QA547WLG6upclXe9MwFhYWKC0trbFCmTJNmzYNABpU3ADyRQacnJywdOlSyGQyxMbG1ihunhYTE4PExMTKIWya7s6dO7CwsKi1nQUOERHRy+7Bcy7KBo+Vf925BhhjLJ9LMd4cGDq55vuqP1f0OCgu0P9IqXqtvhenK93lF8OKZYuLCuQrqc0MqJq43hwl/O8u8kUF8uLgLbeqJZPr2xbVVd9evdB4+vWmtKUiX/UC5nlZ60OxClvYsprzeLzsNHIltX79+qFly5Y4duyYSo6vGJaWlZVVY0GAnJyc5xZV7u7uMDY2rlw1TfHw9fWtfF9BQQHS0tLg6+uLO3fuIDY2ttZcnvpSzON5+rkq3L17F5cuXapcQKE6FjhEREQvu/HmVc+fvpGisZl8aWDF/WfcfeTfm1nVfF/15zP+Lr/ondlLPhfjdQf594HRwJxP6pdp9Hz5xa1HF/mF7YFtgMNojR+q1GRdbOVtMMZY/hmv2Fn1Wn3bonobVt8+xrj2NsXzprSlok3+83XVPKnnZa2P71Y9e8U8q171O4YaGRoaYsiQIYiLi1PJ8RU30IyIiICxsTECAgLg4+ODkpISmJtXtZdi1TQFqVRa55yd8PBwrFq1CiKRCMbGxjh9+jR8fHywdOnSRmdUHEtBUVipyoEDB9CmTRsMHTq0dhaZTKaBM9OIiIioMTp2sca9UT7ANH+ho2ikljOssXqRD/z9Vfv5NLgdFKuMaeKCAc2AOtp969atWLJkCa5du1bnsCkhZGRkoHXr1rWGtmVkZKBXr17Q1jJAJpOhX79+sLGxqbxZaXXswSEiIiIiaiJPT0+YmJhg/fr1QkcBIJ9P07Nnzzrn7ZibmyM6Wnvnsu3btw9SqRTLly+v83UWOERERERCetb8F9IqrVq1wooVKxAeHl65HLOQoqKiEBERgaysrBrbMzIysGfPnucuNqDJHj16BH9/f0yZMgV9+/atcx8uE01ERETqNaye4/JfluFaT89/ae4/dzNu/wULFmDv3r2YPn06zpw5gzZt2giWZefOnTh48CDWrVuH8PBwAEBAQACGDRuG+fPn1/s49Z1Ho67hbosWLcKff/6J0NDQZ+7DAoeIiIjUSwsvXFXqZfs8mvHPq6Ojgx07dkAsFmPBggX4/vvvVXJfnPowMjLC1KlTMXXqVISFhTX6OJo0TyciIgI7duzA/v37nzvPiUPUiIiIiIiUxMrKCrt378bevXuxaNEioeM0G7t374avry+CgoLqXBmuOvbgEBEREREp0YgRIxAVFQUPDw/o6OggNDQULVq0EDqW1tq1axfmzp0LPz8//OMf/3jh/uzBISIiIiJSsgkTJiA6Ohrbtm2Du7s7CgsLhY6kdWQyGQIDAzFr1iwsWbIEISEh9XofCxwiIiIiIhWYNGkSjh8/jvPnz8PBwQHnzp0TOpLWyM7Ohru7Oz777DNs27YN69evr/eCByxwiIiIiIhUZMCAATh9+jQ6dOgAR0dHrF69GmVlZULH0mg//PADevfujQsXLiAhIQFz585t0PtZ4BARERERqZClpSXi4+OxadMmfPbZZ+jTpw/i4uKEjqVxMjIyMGXKFEyaNAmurq5IS0vDoEGDGnwcFjhERERERComEong7e0NqVQKGxsbuLm5wdXVFenp6UJHE1x2djYWLVqE3r174/Lly4iPj0dkZCTatWvXqOOxwCEiIiIiUpPXXnsNP/74I44dO4acnBzY2dlh9OjRSEpKEjqa2l29ehU+Pj7o2rUr9u7diy1btiA1NRXDhw9v0nFZ4BARERERqdnQoUNx9uxZSCQSPHr0CM7Ozhg4cCC2bdvWrFdcKysrg0Qiwfjx42FjY4OjR4/iiy++wPXr1+Hl5aWU5bRZ4BARERERCUAkEmH06NFITEzEyZMn8dprr+GDDz5Ax44dMXv2bBw5cgRPnjwROmaTyWQynDt3Dv7+/rCyssK4ceNQWFiI6OhoXL58Gb6+vtDX11fa+XijTyIiIiIigTk6OsLR0REPHjxAdHQ0duzYgZEjR8LIyAiurq4YN24c3n77bZiYmAgdtV6Ki4uRnJyM/fv3IzY2Frdu3ULXrl0xf/58eHp6wtraWmXnZoFDRERERKQhjI2NMX36dBw5cgS6urpYuHAhUlJS8N5776G8vBy9e/eGs7Nz5ZC2zp07Cx0ZAPDnn3/izJkz+P/27j2qqjr///jrIFChghcuYsUgqKiVR0VH01k2ghk6XJqKUrzkBVObMbotNaf5jTPZlE0tY6yUUL9m/cyfilngbZYyKjh5RUwzU1FRkwRs5HhJruf3x/mCkneFs885PB9rsTjts8/er6W11nn12fu9s7KytGHDBm3btk1lZWXq0qWLRo8erbi4OHXt2tUuWSg4AAAAgIPIzc1VfHy8LBaL1qxZo8jISElSSUmJNm3apI0bN2rjxo2aPXu2Kisr1aJFC3Xt2lVms1kPPPCAQkND1aZNG913331yc6v7u1GKiop0+PBhHT58WN999512796t3bt3Kz8/X5LUrl07PfLIIxo3bpx++9vf6r777qvzDDdCwQEAwNXkfSNtWGJ0CodU9fN5+52MvweHYde/9zuwcOFCTZgwQd27d9emTZsUGBhY856Pj49iYmIUExMjSbJYLMrNzVVubq52796tDRs26KOPPtLFixclSZ6engoODlZAQIBatmwpPz8/+fn5ydvbW02aNJGHh4dMJpOaNWsmSTp//rzKyspktVp15swZXbhwQadPn1ZxcbEKCwtVVFSko0eP6ty5c5Ikd3d3hYSEyGw2a9y4cTKbzeratWutzEah4AAA4EI8TJLWL7L94Ar2en48fw+OxV5/77fr4sWLmjx5smbNmqWJEyfq3XfflYeHx3U/4+3trb59+6pv3761thcUFNSssBw5ckRFRUU6ffq0jhw5ou3bt8tisdSUmaqqKpWUlEiSGjduLE9PT7m5ucnHx0f33HOPfH191bJlS7Vv3159+vRRUFCQQkJC1KZNGwUFBcnd3TGrhMlqtVqNDgEAAFAX/vjHP2rOnDl655139PLLLxsdx+mFhIRo3Lhxmjx5stFRXFZ+fr7i4+P1/fffa/78+XryySeNjuT0HLN2AQAA3IYPPvhA7dq10yuvvKJ9+/bpo48+kqenp9GxgKvKyMjQiBEjFBwcrJycHIWGhhodySXwHBwAAOBSkpKSlJGRoWXLlikiIkKFhYVGRwJqqays1LRp0xQXF6fo6GhlZ2dTbuoQBQcAALicqKgoZWdn6+TJk3r44Yf17bffGh0JkGSbQhYVFaUZM2YoJSVFCxculJeXl9GxXAoFBwAAuKQHH3xQ27dvV1BQkHr16qWvvvrK6Eho4LKysmQ2m5Wfn6+tW7cqMTHR6EguiYIDAABcVsuWLbV27VrFx8friSee0IwZM4yOhAbIarUqOTlZkZGR6tGjh7Zt26bOnTsbHctlMWQAAAC4NE9PT82fP19ms1mvvPKKDh48yPAB2I3FYtGYMWO0YsUKTZ8+XZMmTZLJZDI6lkuj4AAAgAYhKSlJYWFhGjx4sPbv36/ly5fL39/f6FhwYbm5uYqPj5fFYtGaNWsUGRlpdKQGgUvUAABAg8HwAdjLwoUL1adPH7Vu3Vq5ubmUGzui4AAAgAaF4QOoTxcvXlRSUpJGjhypxMRErVu3ToGBgUbHalAoOAAAoMFh+ADqQ35+vvr27asFCxZo6dKlSk5OloeHh9GxGhzuwQEAAA3SL4cPHDhwQLNnz2b4AG5LRkaGRowYoeDgYOXk5PDgTgOxggMAABq0pKQkZWRkKC0tTRERESosLDQ6EpxIZWWlpk2bpri4OEVHRys7O5tyYzAKDgAAaPAYPoDbUVRUpKioKM2YMUMpKSlauHChvLy8jI7V4FFwAAAAxPAB3JqsrCyZzWbl5+dr69atSkxMNDoS/hcFBwAA4H8xfAA3YrValZycrMjISPXo0UPbtm1T586djY6FyzBkAAAA4DIMH8C1WCwWjRkzRitWrND06dM1adIkmUwmo2PhFyg4AAAAV5GUlKSwsDANHjxY33//vZYvXy5/f3+jY8Egubm5io+Pl8Vi0Zo1a3hwpwPjEjUAAIBrYPgAJGnhwoXq06ePWrdurdzcXMqNg6PgAAAAXAfDBxquixcvKikpSSNHjlRiYqLWrVunwMBAo2PhBig4AAAAN8DwgYbn2LFj6tu3rxYsWKClS5cqOTlZHh4eRsfCTeAeHAAAgJvA8IGGIyMjQyNGjFBwcLBycnJ4cKeTYQUHAADgFiQlJSkjI0NpaWmKiIhQYWGh0ZFQRyorKzVt2jTFxcUpOjpa2dnZlBsnRMEBAAC4RQwfcD1FRUWKiorSjBkzlJKSooULF8rLy8voWLgNFBwAAIDbwPAB15GVlSWz2az8/Hxt3bpViYmJRkfCHaDgAAAA3Kbq4QNPP/00wweckNVqVXJysiIjI9WjRw9t27ZNnTt3NjoW7hBDBgAAAO6Ap6en5s2bp86dOzN8wIlYLBaNGTNGK1as0PTp0zVp0iSZTCajY6EOUHAAAADqQFJSksLCwjR48GB9//33Wr58ufz9/Y2OhavIzc1VfHy8LBaL1qxZw4M7XQyXqAEAANQRhg84voULF6pPnz5q3bq1cnNzKTcuiIIDAABQhxg+4JguXryopKQkjRw5UomJiVq3bp0CAwONjoV6QMEBAACoYwwfcCzHjh3TI488ogULFmjp0qVKTk6Wh4eH0bFQT7gHBwAAoB4wfMAxZGRkaMSIEQoODlZOTg4P7mwAWMEBAACoR0lJScrIyFBaWpoiIiJUWFhodKQGobKyUtOmTVNcXJyio6OVnZ1NuWkgTFar1Wp0CAAAAFe3d+9excbGSpLS09P1wAMPXHNfq9Vq95HFU6ZM0apVq3T5V8MjR47Ix8dHLVq0qNnm7u6u1NRUde/e3a75bkVRUZESEhKUnZ2tWbNm8eDOBoYVHAAAADuoHj7wq1/96rrDB7Kzs/XCCy/YOZ3UuXNn7dmzR3v37q35OX/+vE6ePFlr25EjR2Q2m+2er9pPP/2kqVOnXvP9rKwsmc1mHT16VFu3bqXcNEAUHAAAADu50fCBI0eOKCYmRh9++KG2bdtm12yPP/647r777uvu4+HhoYSEBENv0H/xxRf11ltvaf78+bW2W61WJScnKzIyUj169ND27dvVuXNng1LCSBQcAAAAO6oePvDee+/pT3/6k8aMGaOysjJZLBYNGjRI58+fl5ubm5577jlVVVXZLZeXl5fi4uKuW17Ky8s1ZMgQu2X6pTVr1ujTTz+VJE2YMEG5ubmSJIvFoqefflqvvvqqpk6dqhUrVqhZs2aG5YSxuAcHAADAICtXrlRCQoLMZrO8vLyUmZmp8vJySZKbm5tmz56t5557zm550tPTa+4TuppWrVrphx9+kJub/f8f+fnz59WhQwcVFBSosrJS7u7u8vf316JFi5SYmCiLxaJFixbx4E5QcAAAAIy0d+9ejRo1Srt27VJlZWWt97y9vZWXlydfX1+7ZCkvL5evr68sFssV73l6eurFF1807Jk+EyZM0Lx582oKoGS7ZC40NFSBgYH6/PPPFRAQYEg2OBYuUQMAADDQzp07tWPHjivKjST9/PPP172hvq55eHho8ODBV31WT1lZmWGXp23cuFEpKSm1yo1kK2QHDhzQgAEDKDeowQoOAACAQTZv3qx+/fpd8cX9ciaTSV9//bV69uxpl0wbNmxQv379rtgeEhKivLw8u2S43M8//6xOnTrp+PHjVy2Bku1yvrVr16p///52TgdHxAoOAACAAaonpt1okECjRo00YcIEuw0c6Nu37xWrIR4eHho5cqRdzv9Lf/7zn3XixIlrlhvJVgKfeeYZnTx50o7J4KgoOAAAAAb4+OOPdfbsWZlMpus+1LOiokK7d+/WvHnz7JLLzc1Nw4YNq3WZWnl5uQYPHmyX819u27ZtmjlzpioqKq67X2VlpX766SclJCTccF+4Pi5RAwAAMMh///tfLV26VB988IH27NkjDw+Pa16uZs+BAzt37lT37t0l2VZHzGazdu3aVe/nvVxZWZnMZrMOHTp0zdLi7u6uiooKhYSEKCEhQfHx8Tz7BqzgAAAAGKV58+Z67rnn9M0332jv3r16+eWX1aJFC5lMJrm7u9fa9+eff9brr79ul1zh4eEKCQmRZLtE7tlnn7XLeS/35ptv6uDBg1eUm+o/l/vvv1/PP/+8srKylJeXpzfeeINyA0ms4AAAADiU8vJyrVy5UvPnz9eqVatkMplUVVWlqqoqmUwmbd++XeHh4fWeY9q0afrb3/4mSTpx4oRat25d7+es9s033yg8PLym3FSv1LRv315Dhw7VU089pU6dOtktD5wLBQcAAKCerFq1SufOnbvtz1ssFmVnZyszM1PHjx+XJLVp00ZvvfXWde/bqQs//vijkpKS1LFjR02bNq1ez3W5yspKTZ06VUePHpUk3XvvvfrNb36jXr163VbJMpvNCgsLq+OUcGQUHAAAgHpyf3Abncg/anSMBu3tt9/W5MmTjY4BO3K/8S4AAAC4HZVWSc+9LQ2pwy/YFeXS99ulB3rX3TGvZfks6dGhUtMW9X+uaqdPSi3r5nI4z6Ft6uQ4cC4UHAAAAGfi7mGfciNJcROkRnb+ulhH5QYNF1PUAAAAcHX2LjdAHaDgAAAAAHAZFBwAAAAALoOCAwAAAMBlUHAAAAAAuAwKDgAAAACXQcEBAAAA4DIoOAAAAABcBgUHAAAAgMug4AAAAABwGRQcAAAAAC6DggMAAADAZVBwAAAAALgMCg4AAIAzO1MoZS6W/hR7Z/sALsLd6AAAAAC4A//zF+mrOXe+j6MoPCb937dseWPHS7+Nl7pGGJ0KToQVHAAAAGf20uy62ccRnC+RDu225c04I5kfkV6OlP6TbnQyOBEKDgAAABzD7k1S7xjb68Y+UsRg22surcMtoOAAAAA4ivMlUkaq1M9k+5n/Z9v9M7/cJ3Ox7f0/xUonDlz9ONfa55f34/wn3bbfzAm2y8OkS5+9fNudfvZmVJebX4odf2vHQYPGPTgAAACO4uMptntPvjgllV2UnvmVVFJc+xKzvw+XfO+1XcLV2MdWKH7pevv8I/HSJV95u22l4sOvpT88bNv22LO2lZMHe9vOL106/5189nacL7H97jno9o+BBocVHAAAAEfh42tbrWjmL/kH2bZdPhzgP+m2n/iXbMVFknoOrH2MG+3z5leXXoeabb879bp0rurXVzv/nXz2dhzYaStR5r53dhw0KKzgAAAAOIrRb9h+Fx6TNiy98v2tq2y/72t/aVt1ibmVfZzFsveloVOdNz8MwQoOAACAI8lIlZL/ePX7UW5mRcRZxkHfSOZi6eGYS6tCwE1iBQcAAMBRZC6W3ntO+n/5ly7zaojydktHv720ogXcAlZwAAAAHMUbQ2y/r1VuXvnY9jtv97WPcTP7OLIzhdLOdbXLTd5u21Q24CZQcAAAABxF9WVphceuHO0sSb9+zPZ7/p8vjWDelXlpv5kTbrzP/3ny0uvqKWWXj6Kufn2jbbf62ZtxptA2qW32q5dGZfczSYldmKSGm0bBAQAAcBTVqxYZqVKTZtLw121T1cou2rb7B9kuX/O91zaGeeYEqc2DtmL058+lUX+98T5Zyy+dL7qZ7ffvAy5tq359o223+tmb8T9/uTSG+peCwm7+OGjQTFar1Wp0CAAAAFfU+ldtVBA1Xhoy2egoDZLn0Db62wvjNXkyf/4NCSs4AAAAAFwGBQcAAACAy2BMNAAAAOpfP9PN7fdv7p7AnaHgAAAAoP5RXGAnXKIGAAAAwGVQcAAAAAC4DAoOAAAAAJdBwQEAAADgMig4AAAAAFwGBQcAAACAy6DgAAAAAHAZFBwAAAAALoOCAwAAAMBlUHAAAAAAuAwKDgAAAACXQcEBAAAA4DIoOAAAAABchrvRAQAAAFxa3jfShiVGp2iQqn4+b3QEGICCAwAAUE88TJLWL7L9wO4qjA4AQ5isVqvV6BAAAABwPCEhIRo3bpwmT55sdBTgpnEPDgAAAACXQcEBAAAA4DIoOAAAAABcBgUHAAAAgMug4AAAAABwGRQcAAAAAC6DggMAAADAZVBwAAAAALgMCg4AAAAAl0HBAQAAAOAyKDgAAAAAXAYFBwAAAIDLoOAAAAAAcBkUHAAAAAAug4IDAAAAwGVQcAAAAAC4DAoOAAAAAJdBwQEAAADgMig4AAAAAFwGBQcAAACAy6DgAAAAAHAZFBwAAAAALoOCAwAAAMBlUHAAAAAAuAwKDgAAAACXQcEBAAAA4DIoOAAAAABcBgUHAAAAgMug4AAAAABwGRQcAAAAAC6DggMAAADAZVBwAAAAALgMk9VqtRodAgAAAMaaMmWKVq1apcu/Gh45ckQ+Pj5q0aJFzTZ3d3elpqaqe/fuRsQEboiCAwAAAC1atEhDhw694X4+Pj4qKiqSh4eHHVIBt45L1AAAAKDHH39cd99993X38fDwUEJCAuUGDo2CAwAAAHl5eSkuLu665aW8vFxDhgyxYyrg1lFwAAAAIEkaOnSoysvLr/l+q1at1KdPHzsmAm4dBQcAAACSpKioKHl7e1/1PU9PT40YMUJubnx9hGPj31AAAABIst1jM3jwYHl6el7xXllZGZenwSlQcAAAAFBjyJAhKisru2J7SEiIunTpYkAi4NZQcAAAAFCjb9++CggIqLXNw8NDI0eONCYQcIsoOAAAAKjh5uamYcOG1bpMrby8XIMHDzYwFXDzKDgAAACo5fLL1Ewmk7p06aJ27doZnAq4ORQcAAAA1BIeHq6QkBBJUqNGjfTss88anAi4eRQcAAAAXGH48OEymUyqrKzU008/bXQc4Ka5Gx0AAAAAxiouLlZxcbHOnTunM2fOSJICAwNltVrVsWNH7dmzR/v27ZOnp6eaNGkiX19f+fr6ysvLy+DkwJVMVqvVanQIAAAA1J8zZ84oNzdXBw8e1KFDh5SXl6e8vDwVFBSouLhYlZWVt3VcLy8v+fn5KTg4WKGhoWrbtq1CQ0PVqVMndejQQe7u/L902B8FBwAAwIVUVlZq586d2rRpk3bs2KGdO3cqLy9PVqtVTZs2rSkhoaGhuvfee+Xr66uAgAD5+fnJ29tb3t7ekqR77rlHqampGjp0qBo1aqSqqipVVFTIYrGouLhYRUVFKi4u1qlTp3T06NGa0nTs2DFVVFTIy8tLZrNZ4eHh6tmzpyIiItS6dWuD/3TQEFBwAAAAnNzx48e1YsUKrVu3Ths3blRJSYlatWqlX//61+rWrZvCw8PVrVu3Wy4YFRUVt7wKU15eru+++047d+6s+dm1a5dKS0vVoUMHRUREKCoqSgMGDNBdd911S8cGbgYFBwAAwAkdP35cS5Ys0bJly7R161Z5e3srIiKi5qdTp05GR6xx4cIFZWdnKzMzU5mZmdqxY4eaNm2q2NhYPfXUUxo4cGCt5+4Ad4KCAwAA4CSqqqqUmZmpjz/+WF988YWaNm2q6OhoxcfHO9WKSFFRkVavXq2lS5dqzZo1atmypUaOHKmxY8cqNDTU6HhwchQcAAAAB1daWqq5c+fqH//4h44dO6aIiAiNGzdOcXFxTr/yceLECc2dO1dz585VQUGBBg0apNdff109e/Y0OhqcFAUHAADAQZWWliolJUXvvPOOTp8+rbFjx2rixIlq166d0dHqXEVFhTIyMjRjxgxt2bJFUVFR+stf/qJevXoZHQ1Ohgd9AgAAOKDVq1froYce0muvvab4+HgdPnxY//znP12y3EiSu7u7Hn/8cX399ddau3atzp07p969e2vEiBH68ccfjY4HJ0LBAQAAcCAFBQWKi4vToEGD1KVLF+3fv18zZ85UYGCg0dHsZsCAAcrKytKyZcu0adMmhYWF6YMPPhAXHuFmUHAAAAAcxMqVK2U2m7Vv3z6tW7dOS5Ys0f333290LMM88cQT2rdvnyZOnKiXXnpJMTExKioqMjoWHBwFBwAAwGBVVVWaPHmyYmJiNHDgQOXk5CgyMtLoWA7By8tL06dP18aNG/Xtt9/KbDZry5YtRseCA6PgAAAAGKi0tFQJCQlKTk7WggUL9Mknn6hp06ZGx3I4vXv3Vm5ursLDwxUZGamvvvrK6EhwUExRAwAAMMjFixcVHR2tHTt26IsvvlC/fv2MjuTwKisr9fzzz2vevHlasGCBhg0bZnQkOBh3owMAAAA0RFVVVRo+fLhycnK0ceNGmc1moyM5hUaNGiklJUXNmzfX6NGj5efnp8cee8zoWHAgrOAAAAAY4NVXX9WHH36otWvXqm/fvkbHcTpWq1WjRo1SWlqaNm/erM6dOxsdCQ6CggMAAGBn69at04ABA/TJJ59o+PDhRsdxWuXl5YqMjFRJSYm2b98uT09PoyPBAVBwAACT3/L7AAAIsUlEQVQA7Mhiseihhx5Sz549tWTJEqPjOL3Dhw/LbDYrKSlJ06dPNzoOHABT1AAAAOwoOTlZZ8+e1UcffWR0lCuUlJTIZDI51bFDQkL05ptv6r333lNBQUGdHx/Oh4IDAABgJ+fPn9esWbM0ceJE+fr6Gh3nCps2bXLKY48bN04tWrTQzJkz6+0ccB4UHAAAADtZvHixzp07p4kTJxod5QolJSVKTU11umNL0l133aUXX3xRKSkpKisrq7fzwDlQcAAAAOxk1apVioiIqJfVm5KSEi1evFgmk0kmk0mpqakqLCyUpJptl18i9stt7777rtLT02u9V1hYqPT0dMXGxkqSUlNTZTKZNGHCBB04cOCOjl3X4uPjZbFYlJ2dXefHhnOh4AAAANhBZWWl1q9fr6ioqHo5/vDhw3X27FlZrVadOnVK6enpSkxMVElJiU6dOnXF/vn5+bX++Y033qh5bbVaZbVaFRAQoNjYWKWnp2vLli0aO3aszpw5I0kKCwvTgQMHbvvYdS04OFgdO3bU2rVr6/zYcC4UHAAAADs4deqUSkpK1LVr1zo/dmZmptLT0xUXFydJ8vf319SpU5Wenq7Vq1fL39//is8EBQXd8LiXF5FevXpJknx8fDR+/HhJUnp6+m0fuz506dJFBw8eNOTccBwUHAAAADuoXukICAio82MvXbpUkmqVjY4dO0qSFi1aVOfnM5vNkmwPK3UkrVq10o8//mh0DBiMggMAAGAH586dkyQ1adKkzo89Z86cK7b5+PhIUs29Lw1B06ZNZbFYjI4Bg1FwAAAA7MDPz0+SVFRUVOfHjomJkaSaoQKXq76crD7U57FvR2FhYb2skMG5UHAAAADsoPqL98mTJ+v82AkJCZKkw4cP12wrKSmRZJsuVteqJ6gNGjSozo99J06ePEnBAQUHAADAHpo3b67Q0FBlZWXV+bEHDhyomJgY/f3vf69ZxVm9erXGjx+viIgISZdWW6rLyZYtW2o+P2HCBEm1V4Lee++9WudYvHixJFtx+vTTTxUTE1Oz/50euy5UVlZq8+bN6tGjR50fG86FggMAAGAnUVFRWr16dZ0f18fHR3PnzlVMTIwCAgJqnjPz9ttv1+zz2muvKSYmRmFhYUpPT1evXr0UExOjzz//XH/9618lXRrnPGvWLA0fPrzWOTp27KjY2Fg1a9ZMQUFB+vTTT+vs2HVh27ZtOn36dL2N4YbzMFnrYxA5AAAArrB+/Xr1799fO3bsUHh4uNFxbkp1WXL0r4yjR4/W119/re+++87oKDAYBQcAAMCOevTooeDg4JrRzo7OGQrO8ePH1bZtW82ZM0ejRo0yOg4MxiVqAAAAdjR16lQtX75cmzdvNjrKDV0+le1qE9ocxZQpUxQYGKhhw4YZHQUOgBUcAAAAO3viiSeUm5urb775pl6ei1NXqldvqjni18Yvv/xSv//977Vy5UoNHDjQ6DhwABQcAAAAOysoKNCDDz6o6OhoLViw4IoigZtz+PBh9erVS7GxsZo7d67RceAgKDgAAAAGWLt2rWJiYjRp0iRNnz7d6DhOp6ioSH369JG3t7c2bNjg0CthsC93owMAAAA0RI899phSU1M1atQoNWnSRFOmTDE6ktMoLCzUoEGDVFVVpZUrV1JuUAsFBwAAwCDPPvuszp07pxdeeEEnT57U+++/Lzc3ZkBdz6FDh2rutfnXv/6lgIAAgxPB0fBfEAAAgIH+8Ic/aMmSJUpNTVVsbKyKi4uNjuSwVq9erd69e6t58+bavHmzQkJCjI4EB0TBAQAAMNiTTz6pzMxM7d27V2azWevXrzc6kkMpLS3VSy+9pN/97ncaMGCA/v3vf8vf39/oWHBQFBwAAAAH8PDDDys3N1d9+vTRgAEDNHbsWFZzJK1fv15du3bVvHnz9Mknn+izzz5T48aNjY4FB0bBAQAAcBDNmjXTkiVL9Nlnn2n16tVq3769PvzwQ5WVlRkdze6OHj2qZ555Rv3791e7du20e/duDR8+3OhYcAIUHAAAAAczZMgQ7d+/X2PHjtXLL7+s9u3ba/bs2SotLTU6Wr3Ly8vTmDFj1L59e+3atUsrV67Ul19+qTZt2hgdDU6C5+AAAAA4sOPHj2vGjBmaO3eufH19NX78eI0ePVqtW7c2OlqdsVqt2rhxo+bMmaO0tDS1adNGU6dO1dChQ+Xh4WF0PDgZCg4AAIAT+OGHH/T+++9rwYIFOnPmjGJjYzVq1Cg9+uijuuuuu4yOd1tOnDhRM0Fu//796tWrlyZOnKhnnnlGjRo1MjoenBQFBwAAwImUlpYqLS1NKSkpysrKkre3t6Kjo/Xkk0/q0UcfdfiHXh48eFBfffWVli1bpq1bt8rHx0dDhgzRuHHjZDabjY4HF0DBAQAAcFInTpxQWlqa0tLStHnzZrm5ualnz56KjIxURESEwsPDDS88+fn5ys7OVmZmptavX6/8/Hy1aNFCsbGxeuqpp9S/f3+nXYGCY6LgAAAAuIDCwsKaEpGZmanDhw/Lzc1NYWFh6tatm7p27aoOHTooNDRUbdq0qfNScfr0aR06dEh5eXnas2ePcnJylJOTo+LiYnl6etYUr8jISPXs2ZN7a1BvKDgAAAAu6NixY9q5c6d27typnJwc5ebmqqCgQJLk5uam+++/X/fee6/8/Pzk5+engIAANW3aVN7e3mrUqJE8PT3VuHFjWa1WnTlzRpJ04cIFXbhwQUVFRSouLlZxcbEKCgqUn59fs4+np6fat2+vbt26KTw8vKZc8ewa2AsFBwAAoIE4e/as8vLydOjQIR06dEgFBQUqLi5WUVGRCgsLdfbsWZ09e1YVFRUqLS3VhQsXJEnNmzeXJDVu3Fj33HOPfH19a34CAgIUFBSktm3bqm3btgoKCmJAAAxFwQEAAADgMnjQJwAAAACXQcEBAAAA4DIoOAAAAABchrukpUaHAAAAAIC68P8BzsTR35ZfBc4AAAAASUVORK5CYII=;" vertex="1" parent="1">
          <mxGeometry x="-760" y="190" width="304.67" height="483.25" as="geometry" />
        </mxCell>
        <mxCell id="gFD01sq41hae8kPbe2xm-2" value="&lt;font style=&quot;font-size: 21px;&quot;&gt;&lt;b&gt;算子图示例&lt;/b&gt;&lt;/font&gt;" style="text;html=1;align=center;verticalAlign=middle;whiteSpace=wrap;rounded=0;" vertex="1" parent="1">
          <mxGeometry x="-599.9999999999999" y="70" width="160" height="65" as="geometry" />
        </mxCell>
        <mxCell id="gFD01sq41hae8kPbe2xm-4" value="" style="shape=flexArrow;endArrow=classic;html=1;rounded=0;exitX=0;exitY=0.5;exitDx=0;exitDy=0;entryX=0.25;entryY=0;entryDx=0;entryDy=0;" edge="1" parent="1" source="k0TNPrw3BuTJVG0LLQwn-27" target="gFD01sq41hae8kPbe2xm-1">
          <mxGeometry width="50" height="50" relative="1" as="geometry">
            <mxPoint x="10" y="350" as="sourcePoint" />
            <mxPoint x="60" y="300" as="targetPoint" />
            <Array as="points">
              <mxPoint x="-500" y="130" />
            </Array>
          </mxGeometry>
        </mxCell>
      </root>
    </mxGraphModel>
  </diagram>
</mxfile>
